%TF.GenerationSoftware,KiCad,Pcbnew,10.0.4*%
%TF.CreationDate,2026-09-21T13:34:08+02:00*%
%TF.ProjectId,esp32-relay-controller,65737033-322d-4726-956c-61792d636f6e,rev?*%
%TF.SameCoordinates,Original*%
%TF.FileFunction,Soldermask,Top*%
%TF.FilePolarity,Negative*%
%FSLAX46Y46*%
G04 Gerber Fmt 4.6, Leading zero omitted, Abs format (unit mm)*
G04 Created by KiCad (PCBNEW 10.0.4) date 2026-09-21 13:34:08*
%MOMM*%
%LPD*%
G01*
G04 APERTURE LIST*
G04 Aperture macros list*
%AMRoundRect*
0 Rectangle with rounded corners*
0 $1 Rounding radius*
0 $2 $3 $4 $5 $6 $7 $8 $9 X,Y pos of 4 corners*
0 Add a 4 corners polygon primitive as box body*
4,1,4,$2,$3,$4,$5,$6,$7,$8,$9,$2,$3,0*
0 Add four circle primitives for the rounded corners*
1,1,$1+$1,$2,$3*
1,1,$1+$1,$4,$5*
1,1,$1+$1,$6,$7*
1,1,$1+$1,$8,$9*
0 Add four rect primitives between the rounded corners*
20,1,$1+$1,$2,$3,$4,$5,0*
20,1,$1+$1,$4,$5,$6,$7,0*
20,1,$1+$1,$6,$7,$8,$9,0*
20,1,$1+$1,$8,$9,$2,$3,0*%
G04 Aperture macros list end*
%ADD10RoundRect,0.250001X1.149999X1.149999X-1.149999X1.149999X-1.149999X-1.149999X1.149999X-1.149999X0*%
%ADD11C,2.800000*%
%ADD12RoundRect,0.200000X-0.200000X-0.275000X0.200000X-0.275000X0.200000X0.275000X-0.200000X0.275000X0*%
%ADD13RoundRect,0.090000X-0.660000X-0.360000X0.660000X-0.360000X0.660000X0.360000X-0.660000X0.360000X0*%
%ADD14RoundRect,0.225000X0.225000X0.250000X-0.225000X0.250000X-0.225000X-0.250000X0.225000X-0.250000X0*%
%ADD15RoundRect,0.250001X-1.149999X-1.149999X1.149999X-1.149999X1.149999X1.149999X-1.149999X1.149999X0*%
%ADD16RoundRect,0.150000X0.825000X0.150000X-0.825000X0.150000X-0.825000X-0.150000X0.825000X-0.150000X0*%
%ADD17C,3.000000*%
%ADD18C,2.500000*%
%ADD19RoundRect,0.250000X-0.925000X-1.500000X0.925000X-1.500000X0.925000X1.500000X-0.925000X1.500000X0*%
%ADD20RoundRect,0.250000X1.500000X0.550000X-1.500000X0.550000X-1.500000X-0.550000X1.500000X-0.550000X0*%
%ADD21C,0.650000*%
%ADD22RoundRect,0.150000X0.425000X-0.150000X0.425000X0.150000X-0.425000X0.150000X-0.425000X-0.150000X0*%
%ADD23RoundRect,0.075000X0.500000X-0.075000X0.500000X0.075000X-0.500000X0.075000X-0.500000X-0.075000X0*%
%ADD24O,2.100000X1.000000*%
%ADD25O,1.800000X1.000000*%
%ADD26RoundRect,0.150000X0.150000X-0.587500X0.150000X0.587500X-0.150000X0.587500X-0.150000X-0.587500X0*%
%ADD27RoundRect,0.225000X-0.225000X-0.250000X0.225000X-0.250000X0.225000X0.250000X-0.225000X0.250000X0*%
%ADD28C,2.000000*%
%ADD29R,1.700000X1.700000*%
%ADD30C,1.700000*%
%ADD31RoundRect,0.250000X0.250000X0.475000X-0.250000X0.475000X-0.250000X-0.475000X0.250000X-0.475000X0*%
%ADD32RoundRect,0.250000X1.500000X-0.925000X1.500000X0.925000X-1.500000X0.925000X-1.500000X-0.925000X0*%
%ADD33RoundRect,0.150000X-0.512500X-0.150000X0.512500X-0.150000X0.512500X0.150000X-0.512500X0.150000X0*%
%ADD34RoundRect,0.100000X0.130000X0.100000X-0.130000X0.100000X-0.130000X-0.100000X0.130000X-0.100000X0*%
%ADD35RoundRect,0.150000X0.150000X-0.825000X0.150000X0.825000X-0.150000X0.825000X-0.150000X-0.825000X0*%
%ADD36RoundRect,0.112500X0.187500X0.112500X-0.187500X0.112500X-0.187500X-0.112500X0.187500X-0.112500X0*%
%ADD37R,2.000000X2.000000*%
%ADD38RoundRect,0.200000X-0.275000X0.200000X-0.275000X-0.200000X0.275000X-0.200000X0.275000X0.200000X0*%
%ADD39RoundRect,0.200000X0.200000X0.275000X-0.200000X0.275000X-0.200000X-0.275000X0.200000X-0.275000X0*%
%ADD40RoundRect,0.200000X0.275000X-0.200000X0.275000X0.200000X-0.275000X0.200000X-0.275000X-0.200000X0*%
%ADD41RoundRect,0.100000X-0.130000X-0.100000X0.130000X-0.100000X0.130000X0.100000X-0.130000X0.100000X0*%
%ADD42RoundRect,0.150000X-0.150000X-0.200000X0.150000X-0.200000X0.150000X0.200000X-0.150000X0.200000X0*%
%ADD43RoundRect,0.225000X-0.250000X0.225000X-0.250000X-0.225000X0.250000X-0.225000X0.250000X0.225000X0*%
%ADD44RoundRect,0.150000X0.587500X0.150000X-0.587500X0.150000X-0.587500X-0.150000X0.587500X-0.150000X0*%
%ADD45RoundRect,0.150000X0.150000X0.200000X-0.150000X0.200000X-0.150000X-0.200000X0.150000X-0.200000X0*%
%ADD46C,1.500000*%
%ADD47RoundRect,0.250000X1.950000X1.000000X-1.950000X1.000000X-1.950000X-1.000000X1.950000X-1.000000X0*%
%ADD48RoundRect,0.250000X-0.250000X-0.475000X0.250000X-0.475000X0.250000X0.475000X-0.250000X0.475000X0*%
%ADD49RoundRect,0.150000X0.875000X0.150000X-0.875000X0.150000X-0.875000X-0.150000X0.875000X-0.150000X0*%
%ADD50R,1.905000X2.000000*%
%ADD51O,1.905000X2.000000*%
%ADD52RoundRect,0.112500X-0.112500X0.187500X-0.112500X-0.187500X0.112500X-0.187500X0.112500X0.187500X0*%
%ADD53RoundRect,0.250000X0.475000X-0.250000X0.475000X0.250000X-0.475000X0.250000X-0.475000X-0.250000X0*%
%ADD54RoundRect,0.150000X-0.150000X0.587500X-0.150000X-0.587500X0.150000X-0.587500X0.150000X0.587500X0*%
%ADD55RoundRect,0.250000X0.900000X-1.000000X0.900000X1.000000X-0.900000X1.000000X-0.900000X-1.000000X0*%
%ADD56R,0.900000X1.500000*%
%ADD57R,1.500000X0.900000*%
%ADD58C,0.600000*%
%ADD59R,3.800000X3.800000*%
G04 APERTURE END LIST*
D10*
%TO.C,J1*%
X174000000Y-111250000D03*
D11*
X169000000Y-111250000D03*
%TD*%
D12*
%TO.C,R26*%
X200675000Y-51000000D03*
X202325000Y-51000000D03*
%TD*%
D13*
%TO.C,D15*%
X193300000Y-66350000D03*
X193300000Y-69650000D03*
X198200000Y-69650000D03*
X198200000Y-66350000D03*
%TD*%
D14*
%TO.C,C19*%
X203800000Y-70250000D03*
X202250000Y-70250000D03*
%TD*%
D15*
%TO.C,J10*%
X96500000Y-112000000D03*
D11*
X101500000Y-112000000D03*
X106500000Y-112000000D03*
%TD*%
D10*
%TO.C,J11*%
X141500000Y-56200000D03*
D11*
X136500000Y-56200000D03*
X131500000Y-56200000D03*
%TD*%
D16*
%TO.C,U6*%
X199475000Y-112445000D03*
X199475000Y-111175000D03*
X199475000Y-109905000D03*
X199475000Y-108635000D03*
X199475000Y-107365000D03*
X199475000Y-106095000D03*
X199475000Y-104825000D03*
X199475000Y-103555000D03*
X194525000Y-103555000D03*
X194525000Y-104825000D03*
X194525000Y-106095000D03*
X194525000Y-107365000D03*
X194525000Y-108635000D03*
X194525000Y-109905000D03*
X194525000Y-111175000D03*
X194525000Y-112445000D03*
%TD*%
D17*
%TO.C,K7*%
X154250000Y-88300000D03*
D18*
X148200000Y-90250000D03*
D17*
X148200000Y-102450000D03*
X160250000Y-102500000D03*
D18*
X160200000Y-90250000D03*
%TD*%
D19*
%TO.C,L1*%
X165475000Y-78250000D03*
X171525000Y-78250000D03*
%TD*%
D20*
%TO.C,C2*%
X185650000Y-101500000D03*
X180250000Y-101500000D03*
%TD*%
D21*
%TO.C,J5*%
X204895000Y-111030000D03*
X204895000Y-105250000D03*
D22*
X203820000Y-111340000D03*
X203820000Y-110540000D03*
D23*
X203820000Y-109390000D03*
X203820000Y-108390000D03*
X203820000Y-107890000D03*
X203820000Y-106890000D03*
D22*
X203820000Y-105740000D03*
X203820000Y-104940000D03*
X203820000Y-104940000D03*
X203820000Y-105740000D03*
D23*
X203820000Y-106390000D03*
X203820000Y-107390000D03*
X203820000Y-108890000D03*
X203820000Y-109890000D03*
D22*
X203820000Y-110540000D03*
X203820000Y-111340000D03*
D24*
X204395000Y-112460000D03*
D25*
X208575000Y-112460000D03*
D24*
X204395000Y-103820000D03*
D25*
X208575000Y-103820000D03*
%TD*%
D26*
%TO.C,Q5*%
X189000000Y-76125000D03*
X190900000Y-76125000D03*
X189950000Y-74250000D03*
%TD*%
D27*
%TO.C,C14*%
X208725000Y-72250000D03*
X210275000Y-72250000D03*
%TD*%
D12*
%TO.C,R14*%
X175850000Y-74750000D03*
X177500000Y-74750000D03*
%TD*%
D28*
%TO.C,H1*%
X209500000Y-115750000D03*
%TD*%
D29*
%TO.C,JP1*%
X206975000Y-58500000D03*
D30*
X209515000Y-58500000D03*
%TD*%
D31*
%TO.C,C12*%
X166950000Y-88000000D03*
X165050000Y-88000000D03*
%TD*%
D27*
%TO.C,C21*%
X208725000Y-70250000D03*
X210275000Y-70250000D03*
%TD*%
D32*
%TO.C,L2*%
X168750000Y-69275000D03*
X168750000Y-63225000D03*
%TD*%
D33*
%TO.C,U4*%
X195862500Y-114050000D03*
X195862500Y-115000000D03*
X195862500Y-115950000D03*
X198137500Y-115950000D03*
X198137500Y-115000000D03*
X198137500Y-114050000D03*
%TD*%
D12*
%TO.C,R8*%
X194675000Y-100000000D03*
X196325000Y-100000000D03*
%TD*%
%TO.C,R18*%
X185750000Y-75500000D03*
X187400000Y-75500000D03*
%TD*%
D34*
%TO.C,D9*%
X173320000Y-92500000D03*
X172680000Y-92500000D03*
%TD*%
D10*
%TO.C,J9*%
X123750000Y-56200000D03*
D11*
X118750000Y-56200000D03*
X113750000Y-56200000D03*
%TD*%
D35*
%TO.C,U9*%
X200595000Y-58000000D03*
X201865000Y-58000000D03*
X203135000Y-58000000D03*
X204405000Y-58000000D03*
X204405000Y-53050000D03*
X203135000Y-53050000D03*
X201865000Y-53050000D03*
X200595000Y-53050000D03*
%TD*%
D15*
%TO.C,J8*%
X149250000Y-111750000D03*
D11*
X154250000Y-111750000D03*
X159250000Y-111750000D03*
%TD*%
D36*
%TO.C,D3*%
X172000000Y-71750000D03*
X169900000Y-71750000D03*
%TD*%
D37*
%TO.C,Buzzer1*%
X181950000Y-68000000D03*
D28*
X189550000Y-68000000D03*
%TD*%
D12*
%TO.C,R15*%
X193925000Y-94250000D03*
X195575000Y-94250000D03*
%TD*%
D38*
%TO.C,R3*%
X178475000Y-69225000D03*
X178475000Y-70875000D03*
%TD*%
D17*
%TO.C,K3*%
X101500000Y-88300000D03*
D18*
X95450000Y-90250000D03*
D17*
X95450000Y-102450000D03*
X107500000Y-102500000D03*
D18*
X107450000Y-90250000D03*
%TD*%
D39*
%TO.C,R9*%
X199825000Y-100000000D03*
X198175000Y-100000000D03*
%TD*%
D10*
%TO.C,J2*%
X158700000Y-56150000D03*
D11*
X153700000Y-56150000D03*
X148700000Y-56150000D03*
%TD*%
D26*
%TO.C,Q3*%
X194550000Y-97875000D03*
X196450000Y-97875000D03*
X195500000Y-96000000D03*
%TD*%
D40*
%TO.C,R42*%
X200250000Y-69075000D03*
X200250000Y-67425000D03*
%TD*%
D15*
%TO.C,J4*%
X131750000Y-111800000D03*
D11*
X136750000Y-111800000D03*
X141750000Y-111800000D03*
%TD*%
D41*
%TO.C,D7*%
X177930000Y-91500000D03*
X178570000Y-91500000D03*
%TD*%
D28*
%TO.C,TP4*%
X90000000Y-83750000D03*
%TD*%
D40*
%TO.C,R2*%
X172750000Y-88075000D03*
X172750000Y-86425000D03*
%TD*%
D38*
%TO.C,R7*%
X206250000Y-114175000D03*
X206250000Y-115825000D03*
%TD*%
D19*
%TO.C,L3*%
X165275000Y-95850000D03*
X171325000Y-95850000D03*
%TD*%
D42*
%TO.C,D13*%
X194520000Y-71725000D03*
X193120000Y-71725000D03*
%TD*%
D41*
%TO.C,D11*%
X177930000Y-93500000D03*
X178570000Y-93500000D03*
%TD*%
D28*
%TO.C,SW2*%
X202750000Y-96000000D03*
X209250000Y-96000000D03*
X202750000Y-100500000D03*
X209250000Y-100500000D03*
%TD*%
D12*
%TO.C,R38*%
X174675000Y-92500000D03*
X176325000Y-92500000D03*
%TD*%
D38*
%TO.C,R25*%
X189750000Y-96175000D03*
X189750000Y-97825000D03*
%TD*%
D33*
%TO.C,U3*%
X174475000Y-69000000D03*
X174475000Y-69950000D03*
X174475000Y-70900000D03*
X176750000Y-70900000D03*
X176750000Y-69950000D03*
X176750000Y-69000000D03*
%TD*%
D38*
%TO.C,R27*%
X206250000Y-52675000D03*
X206250000Y-54325000D03*
%TD*%
D40*
%TO.C,R6*%
X201500000Y-104825000D03*
X201500000Y-103175000D03*
%TD*%
D28*
%TO.C,H3*%
X89250000Y-52250000D03*
%TD*%
D39*
%TO.C,R40*%
X176325000Y-94000000D03*
X174675000Y-94000000D03*
%TD*%
D43*
%TO.C,C3*%
X189250000Y-101725000D03*
X189250000Y-103275000D03*
%TD*%
D12*
%TO.C,R5*%
X175775000Y-100750000D03*
X177425000Y-100750000D03*
%TD*%
D27*
%TO.C,C25*%
X172950000Y-61000000D03*
X174500000Y-61000000D03*
%TD*%
D17*
%TO.C,K6*%
X136750000Y-88300000D03*
D18*
X130700000Y-90250000D03*
D17*
X130700000Y-102450000D03*
X142750000Y-102500000D03*
D18*
X142700000Y-90250000D03*
%TD*%
D14*
%TO.C,C22*%
X204525000Y-116750000D03*
X202975000Y-116750000D03*
%TD*%
D44*
%TO.C,D5*%
X175937500Y-99200000D03*
X175937500Y-97300000D03*
X174062500Y-98250000D03*
%TD*%
D28*
%TO.C,SW3*%
X180750000Y-91750000D03*
X187250000Y-91750000D03*
X180750000Y-96250000D03*
X187250000Y-96250000D03*
%TD*%
D12*
%TO.C,R24*%
X169900000Y-61000000D03*
X171550000Y-61000000D03*
%TD*%
D15*
%TO.C,J6*%
X114250000Y-112000000D03*
D11*
X119250000Y-112000000D03*
X124250000Y-112000000D03*
%TD*%
D14*
%TO.C,C5*%
X170775000Y-82750000D03*
X169225000Y-82750000D03*
%TD*%
D31*
%TO.C,C8*%
X174950000Y-84750000D03*
X173050000Y-84750000D03*
%TD*%
D17*
%TO.C,K5*%
X118950000Y-80100000D03*
D18*
X125000000Y-78150000D03*
D17*
X125000000Y-65950000D03*
X112950000Y-65900000D03*
D18*
X113000000Y-78150000D03*
%TD*%
D45*
%TO.C,D1*%
X195750000Y-64475000D03*
X197150000Y-64475000D03*
%TD*%
D46*
%TO.C,TP2*%
X169750000Y-88500000D03*
%TD*%
D47*
%TO.C,C1*%
X188400000Y-110750000D03*
X180000000Y-110750000D03*
%TD*%
D48*
%TO.C,C10*%
X175500000Y-63500000D03*
X177400000Y-63500000D03*
%TD*%
D46*
%TO.C,TP1*%
X162700000Y-85250000D03*
%TD*%
D14*
%TO.C,C4*%
X166775000Y-86250000D03*
X165225000Y-86250000D03*
%TD*%
D38*
%TO.C,R1*%
X174250000Y-86425000D03*
X174250000Y-88075000D03*
%TD*%
D43*
%TO.C,C18*%
X192500000Y-110725000D03*
X192500000Y-112275000D03*
%TD*%
D14*
%TO.C,C9*%
X177500000Y-67300000D03*
X175950000Y-67300000D03*
%TD*%
D49*
%TO.C,U7*%
X189000000Y-88160000D03*
X189000000Y-86890000D03*
X189000000Y-85620000D03*
X189000000Y-84350000D03*
X189000000Y-83080000D03*
X189000000Y-81810000D03*
X189000000Y-80540000D03*
X189000000Y-79270000D03*
X189000000Y-78000000D03*
X179700000Y-78000000D03*
X179700000Y-79270000D03*
X179700000Y-80540000D03*
X179700000Y-81810000D03*
X179700000Y-83080000D03*
X179700000Y-84350000D03*
X179700000Y-85620000D03*
X179700000Y-86890000D03*
X179700000Y-88160000D03*
%TD*%
D48*
%TO.C,C15*%
X175895000Y-72800000D03*
X177795000Y-72800000D03*
%TD*%
D50*
%TO.C,Q1*%
X175080000Y-103000000D03*
D51*
X172540000Y-103000000D03*
X170000000Y-103000000D03*
%TD*%
D28*
%TO.C,SW1*%
X203000000Y-62000000D03*
X209500000Y-62000000D03*
X203000000Y-66500000D03*
X209500000Y-66500000D03*
%TD*%
D27*
%TO.C,C23*%
X204425000Y-51000000D03*
X205975000Y-51000000D03*
%TD*%
D39*
%TO.C,R37*%
X176325000Y-91000000D03*
X174675000Y-91000000D03*
%TD*%
D52*
%TO.C,D4*%
X173750000Y-72250000D03*
X173750000Y-74350000D03*
%TD*%
D38*
%TO.C,R4*%
X179500000Y-72425000D03*
X179500000Y-74075000D03*
%TD*%
D31*
%TO.C,C7*%
X174950000Y-82750000D03*
X173050000Y-82750000D03*
%TD*%
D28*
%TO.C,H2*%
X89250000Y-115750000D03*
%TD*%
D17*
%TO.C,K9*%
X153900000Y-80200000D03*
D18*
X159950000Y-78250000D03*
D17*
X159950000Y-66050000D03*
X147900000Y-66000000D03*
D18*
X147950000Y-78250000D03*
%TD*%
D46*
%TO.C,TP3*%
X165200000Y-61150000D03*
%TD*%
D10*
%TO.C,J3*%
X106250000Y-56250000D03*
D11*
X101250000Y-56250000D03*
X96250000Y-56250000D03*
%TD*%
D27*
%TO.C,C20*%
X204975000Y-68740000D03*
X206525000Y-68740000D03*
%TD*%
D46*
%TO.C,TP10*%
X204000000Y-114750000D03*
%TD*%
D12*
%TO.C,R23*%
X209000000Y-56000000D03*
X210650000Y-56000000D03*
%TD*%
D53*
%TO.C,C13*%
X173500000Y-67450000D03*
X173500000Y-65550000D03*
%TD*%
D48*
%TO.C,C11*%
X175550000Y-65500000D03*
X177450000Y-65500000D03*
%TD*%
D17*
%TO.C,K2*%
X101400000Y-80150000D03*
D18*
X107450000Y-78200000D03*
D17*
X107450000Y-66000000D03*
X95400000Y-65950000D03*
D18*
X95450000Y-78200000D03*
%TD*%
D54*
%TO.C,D6*%
X199400000Y-61200000D03*
X197500000Y-61200000D03*
X198450000Y-63075000D03*
%TD*%
D27*
%TO.C,C17*%
X192225000Y-64250000D03*
X193775000Y-64250000D03*
%TD*%
D17*
%TO.C,K8*%
X119150000Y-88250000D03*
D18*
X113100000Y-90200000D03*
D17*
X113100000Y-102400000D03*
X125150000Y-102450000D03*
D18*
X125100000Y-90200000D03*
%TD*%
D15*
%TO.C,J12*%
X181750000Y-55750000D03*
D11*
X186750000Y-55750000D03*
X191750000Y-55750000D03*
X196750000Y-55750000D03*
%TD*%
D39*
%TO.C,R22*%
X207625000Y-56000000D03*
X205975000Y-56000000D03*
%TD*%
D55*
%TO.C,D2*%
X164650000Y-105350000D03*
X164650000Y-101050000D03*
%TD*%
D26*
%TO.C,Q2*%
X198300000Y-97875000D03*
X200200000Y-97875000D03*
X199250000Y-96000000D03*
%TD*%
D39*
%TO.C,R10*%
X206900000Y-70250000D03*
X205250000Y-70250000D03*
%TD*%
D28*
%TO.C,H4*%
X209500000Y-52250000D03*
%TD*%
D33*
%TO.C,U2*%
X168612500Y-84300000D03*
X168612500Y-85250000D03*
X168612500Y-86200000D03*
X170887500Y-86200000D03*
X170887500Y-85250000D03*
X170887500Y-84300000D03*
%TD*%
D14*
%TO.C,C6*%
X171775000Y-73500000D03*
X170225000Y-73500000D03*
%TD*%
D15*
%TO.C,J7*%
X169750000Y-55750000D03*
D11*
X174750000Y-55750000D03*
%TD*%
D17*
%TO.C,K4*%
X136500000Y-80150000D03*
D18*
X142550000Y-78200000D03*
D17*
X142550000Y-66000000D03*
X130500000Y-65950000D03*
D18*
X130550000Y-78200000D03*
%TD*%
D56*
%TO.C,U1*%
X210770000Y-74150000D03*
X209500000Y-74150000D03*
X208230000Y-74150000D03*
X206960000Y-74150000D03*
X205690000Y-74150000D03*
X204420000Y-74150000D03*
X203150000Y-74150000D03*
X201880000Y-74150000D03*
X200610000Y-74150000D03*
X199340000Y-74150000D03*
X198070000Y-74150000D03*
X196800000Y-74150000D03*
X195530000Y-74150000D03*
X194260000Y-74150000D03*
D57*
X193010000Y-77190000D03*
X193010000Y-78460000D03*
X193010000Y-79730000D03*
X193010000Y-81000000D03*
X193010000Y-82270000D03*
X193010000Y-83540000D03*
X193010000Y-84810000D03*
X193010000Y-86080000D03*
X193010000Y-87350000D03*
X193010000Y-88620000D03*
D56*
X194260000Y-91650000D03*
X195530000Y-91650000D03*
X196800000Y-91650000D03*
X198070000Y-91650000D03*
X199340000Y-91650000D03*
X200610000Y-91650000D03*
X201880000Y-91650000D03*
X203150000Y-91650000D03*
X204420000Y-91650000D03*
X205690000Y-91650000D03*
X206960000Y-91650000D03*
X208230000Y-91650000D03*
X209500000Y-91650000D03*
X210770000Y-91650000D03*
D58*
X203750000Y-80000000D03*
X202350000Y-80000000D03*
X204450000Y-80700000D03*
X203050000Y-80700000D03*
X201650000Y-80700000D03*
X203750000Y-81375000D03*
X202350000Y-81375000D03*
D59*
X203050000Y-81400000D03*
D58*
X204450000Y-82100000D03*
X203050000Y-82100000D03*
X201650000Y-82100000D03*
X203750000Y-82800000D03*
X202350000Y-82800000D03*
%TD*%
D45*
%TO.C,D8*%
X175775000Y-61000000D03*
X177175000Y-61000000D03*
%TD*%
M02*
