M48
; DRILL file KiCad 10.0.4 date 2026-09-21T13:34:09
; FORMAT={-:-/ absolute / metric / decimal}
; #@! TF.CreationDate,2026-09-21T13:34:09+02:00
; #@! TF.GenerationSoftware,Kicad,Pcbnew,10.0.4
; #@! TF.FileFunction,Plated,1,2,PTH
FMAT,2
METRIC
; #@! TA.AperFunction,Plated,PTH,ViaDrill
T1C0.300
; #@! TA.AperFunction,Plated,PTH,ComponentDrill
T2C0.300
; #@! TA.AperFunction,Plated,PTH,ViaDrill
T3C0.500
; #@! TA.AperFunction,Plated,PTH,ComponentDrill
T4C0.600
; #@! TA.AperFunction,Plated,PTH,ComponentDrill
T5C1.000
; #@! TA.AperFunction,Plated,PTH,ComponentDrill
T6C1.100
; #@! TA.AperFunction,Plated,PTH,ComponentDrill
T7C1.300
%
G90
G05
T1
X164.0Y-86.25
X164.05Y-72.05
X164.125Y-89.375
X165.5Y-98.75
X166.0Y-81.95
X167.25Y-74.2
X169.5Y-74.0
X172.049Y-86.001
X172.35Y-81.3
X174.25Y-81.0
X174.5Y-63.5
X174.75Y-68.0
X174.75Y-78.3
X175.75Y-76.4
X177.25Y-92.5
X177.5Y-78.25
X178.0Y-84.25
X178.0Y-85.5
X178.0Y-86.75
X178.02Y-79.27
X178.04Y-80.54
X178.08Y-83.08
X178.5Y-62.0
X179.5Y-71.0
X180.08Y-62.83
X181.0Y-81.75
X181.75Y-87.75
X186.5Y-76.5
X188.0Y-94.25
X189.25Y-98.75
X189.75Y-93.05
X189.75Y-104.5
X190.25Y-64.75
X190.5Y-79.25
X190.5Y-80.5
X190.5Y-81.75
X190.5Y-83.0
X190.5Y-84.25
X190.5Y-85.5
X191.25Y-74.75
X192.3Y-109.5
X193.0Y-96.25
X193.05Y-94.236
X193.75Y-101.5
X194.0Y-76.25
X194.25Y-79.25
X194.3Y-63.1
X194.5Y-83.7
X194.701Y-114.249
X194.708Y-115.253
X195.2Y-84.3
X196.25Y-76.5
X196.55Y-104.25
X197.0Y-69.5
X197.25Y-73.0
X197.75Y-112.25
X198.0Y-110.25
X198.75Y-71.5
X199.387Y-52.287
X199.4Y-63.6
X200.25Y-90.5
X200.65Y-59.85
X200.75Y-111.0
X200.986Y-78.236
X201.0Y-61.0
X201.5Y-69.0
X201.5Y-90.5
X202.1Y-108.608
X202.6Y-54.6
X202.9Y-75.6
X203.6Y-51.3
X204.0Y-73.0
X204.64Y-109.39
X205.316Y-52.916
X205.599Y-110.349
X205.75Y-93.5
X205.75Y-116.5
X206.0Y-71.5
X207.0Y-93.5
X207.125Y-51.3
X207.25Y-72.95
X207.4Y-55.0
X208.9Y-76.15
X209.0Y-90.5
X209.45Y-68.45
X209.647Y-76.212
X210.25Y-93.0
T2
X201.65Y-80.7
X201.65Y-82.1
X202.35Y-80.0
X202.35Y-81.375
X202.35Y-82.8
X203.05Y-80.7
X203.05Y-82.1
X203.75Y-80.0
X203.75Y-81.375
X203.75Y-82.8
X204.45Y-80.7
X204.45Y-82.1
T3
X172.5Y-60.0
X176.5Y-59.75
X178.5Y-75.75
X180.75Y-74.75
T5
X90.0Y-83.75
X95.45Y-78.2
X95.45Y-90.25
X107.45Y-78.2
X107.45Y-90.25
X113.0Y-78.15
X113.1Y-90.2
X125.0Y-78.15
X125.1Y-90.2
X130.55Y-78.2
X130.7Y-90.25
X142.55Y-78.2
X142.7Y-90.25
X147.95Y-78.25
X148.2Y-90.25
X159.95Y-78.25
X160.2Y-90.25
X181.95Y-68.0
X189.55Y-68.0
X206.975Y-58.5
X209.515Y-58.5
T6
X170.0Y-103.0
X172.54Y-103.0
X175.08Y-103.0
X180.75Y-91.75
X180.75Y-96.25
X187.25Y-91.75
X187.25Y-96.25
X202.75Y-96.0
X202.75Y-100.5
X203.0Y-62.0
X203.0Y-66.5
X209.25Y-96.0
X209.25Y-100.5
X209.5Y-62.0
X209.5Y-66.5
T7
X95.4Y-65.95
X95.45Y-102.45
X96.25Y-56.25
X96.5Y-112.0
X101.25Y-56.25
X101.4Y-80.15
X101.5Y-88.3
X101.5Y-112.0
X106.25Y-56.25
X106.5Y-112.0
X107.45Y-66.0
X107.5Y-102.5
X112.95Y-65.9
X113.1Y-102.4
X113.75Y-56.2
X114.25Y-112.0
X118.75Y-56.2
X118.95Y-80.1
X119.15Y-88.25
X119.25Y-112.0
X123.75Y-56.2
X124.25Y-112.0
X125.0Y-65.95
X125.15Y-102.45
X130.5Y-65.95
X130.7Y-102.45
X131.5Y-56.2
X131.75Y-111.8
X136.5Y-56.2
X136.5Y-80.15
X136.75Y-88.3
X136.75Y-111.8
X141.5Y-56.2
X141.75Y-111.8
X142.55Y-66.0
X142.75Y-102.5
X147.9Y-66.0
X148.2Y-102.45
X148.7Y-56.15
X149.25Y-111.75
X153.7Y-56.15
X153.9Y-80.2
X154.25Y-88.3
X154.25Y-111.75
X158.7Y-56.15
X159.25Y-111.75
X159.95Y-66.05
X160.25Y-102.5
X169.0Y-111.25
X169.75Y-55.75
X174.0Y-111.25
X174.75Y-55.75
X181.75Y-55.75
X186.75Y-55.75
X191.75Y-55.75
X196.75Y-55.75
T4
X203.845Y-103.82G85X204.945Y-103.82
G05
X203.845Y-112.46G85X204.945Y-112.46
G05
X208.175Y-103.82G85X208.975Y-103.82
G05
X208.175Y-112.46G85X208.975Y-112.46
G05
M30
