%TF.GenerationSoftware,KiCad,Pcbnew,10.0.4*%
%TF.CreationDate,2026-09-21T13:34:08+02:00*%
%TF.ProjectId,esp32-relay-controller,65737033-322d-4726-956c-61792d636f6e,rev?*%
%TF.SameCoordinates,Original*%
%TF.FileFunction,Soldermask,Bot*%
%TF.FilePolarity,Negative*%
%FSLAX46Y46*%
G04 Gerber Fmt 4.6, Leading zero omitted, Abs format (unit mm)*
G04 Created by KiCad (PCBNEW 10.0.4) date 2026-09-21 13:34:08*
%MOMM*%
%LPD*%
G01*
G04 APERTURE LIST*
G04 Aperture macros list*
%AMRoundRect*
0 Rectangle with rounded corners*
0 $1 Rounding radius*
0 $2 $3 $4 $5 $6 $7 $8 $9 X,Y pos of 4 corners*
0 Add a 4 corners polygon primitive as box body*
4,1,4,$2,$3,$4,$5,$6,$7,$8,$9,$2,$3,0*
0 Add four circle primitives for the rounded corners*
1,1,$1+$1,$2,$3*
1,1,$1+$1,$4,$5*
1,1,$1+$1,$6,$7*
1,1,$1+$1,$8,$9*
0 Add four rect primitives between the rounded corners*
20,1,$1+$1,$2,$3,$4,$5,0*
20,1,$1+$1,$4,$5,$6,$7,0*
20,1,$1+$1,$6,$7,$8,$9,0*
20,1,$1+$1,$8,$9,$2,$3,0*%
G04 Aperture macros list end*
%ADD10RoundRect,0.250001X1.149999X1.149999X-1.149999X1.149999X-1.149999X-1.149999X1.149999X-1.149999X0*%
%ADD11C,2.800000*%
%ADD12RoundRect,0.250001X-1.149999X-1.149999X1.149999X-1.149999X1.149999X1.149999X-1.149999X1.149999X0*%
%ADD13C,3.000000*%
%ADD14C,2.500000*%
%ADD15C,0.650000*%
%ADD16O,2.100000X1.000000*%
%ADD17O,1.800000X1.000000*%
%ADD18C,2.000000*%
%ADD19R,1.700000X1.700000*%
%ADD20C,1.700000*%
%ADD21R,2.000000X2.000000*%
%ADD22R,1.905000X2.000000*%
%ADD23O,1.905000X2.000000*%
G04 APERTURE END LIST*
D10*
%TO.C,J1*%
X174000000Y-111250000D03*
D11*
X169000000Y-111250000D03*
%TD*%
D12*
%TO.C,J10*%
X96500000Y-112000000D03*
D11*
X101500000Y-112000000D03*
X106500000Y-112000000D03*
%TD*%
D10*
%TO.C,J11*%
X141500000Y-56200000D03*
D11*
X136500000Y-56200000D03*
X131500000Y-56200000D03*
%TD*%
D13*
%TO.C,K7*%
X154250000Y-88300000D03*
D14*
X148200000Y-90250000D03*
D13*
X148200000Y-102450000D03*
X160250000Y-102500000D03*
D14*
X160200000Y-90250000D03*
%TD*%
D15*
%TO.C,J5*%
X204895000Y-111030000D03*
X204895000Y-105250000D03*
D16*
X204395000Y-112460000D03*
D17*
X208575000Y-112460000D03*
D16*
X204395000Y-103820000D03*
D17*
X208575000Y-103820000D03*
%TD*%
D18*
%TO.C,H1*%
X209500000Y-115750000D03*
%TD*%
D19*
%TO.C,JP1*%
X206975000Y-58500000D03*
D20*
X209515000Y-58500000D03*
%TD*%
D10*
%TO.C,J9*%
X123750000Y-56200000D03*
D11*
X118750000Y-56200000D03*
X113750000Y-56200000D03*
%TD*%
D12*
%TO.C,J8*%
X149250000Y-111750000D03*
D11*
X154250000Y-111750000D03*
X159250000Y-111750000D03*
%TD*%
D21*
%TO.C,Buzzer1*%
X181950000Y-68000000D03*
D18*
X189550000Y-68000000D03*
%TD*%
D13*
%TO.C,K3*%
X101500000Y-88300000D03*
D14*
X95450000Y-90250000D03*
D13*
X95450000Y-102450000D03*
X107500000Y-102500000D03*
D14*
X107450000Y-90250000D03*
%TD*%
D10*
%TO.C,J2*%
X158700000Y-56150000D03*
D11*
X153700000Y-56150000D03*
X148700000Y-56150000D03*
%TD*%
D12*
%TO.C,J4*%
X131750000Y-111800000D03*
D11*
X136750000Y-111800000D03*
X141750000Y-111800000D03*
%TD*%
D18*
%TO.C,TP4*%
X90000000Y-83750000D03*
%TD*%
%TO.C,SW2*%
X202750000Y-96000000D03*
X209250000Y-96000000D03*
X202750000Y-100500000D03*
X209250000Y-100500000D03*
%TD*%
%TO.C,H3*%
X89250000Y-52250000D03*
%TD*%
D13*
%TO.C,K6*%
X136750000Y-88300000D03*
D14*
X130700000Y-90250000D03*
D13*
X130700000Y-102450000D03*
X142750000Y-102500000D03*
D14*
X142700000Y-90250000D03*
%TD*%
D18*
%TO.C,SW3*%
X180750000Y-91750000D03*
X187250000Y-91750000D03*
X180750000Y-96250000D03*
X187250000Y-96250000D03*
%TD*%
D12*
%TO.C,J6*%
X114250000Y-112000000D03*
D11*
X119250000Y-112000000D03*
X124250000Y-112000000D03*
%TD*%
D13*
%TO.C,K5*%
X118950000Y-80100000D03*
D14*
X125000000Y-78150000D03*
D13*
X125000000Y-65950000D03*
X112950000Y-65900000D03*
D14*
X113000000Y-78150000D03*
%TD*%
D22*
%TO.C,Q1*%
X175080000Y-103000000D03*
D23*
X172540000Y-103000000D03*
X170000000Y-103000000D03*
%TD*%
D18*
%TO.C,SW1*%
X203000000Y-62000000D03*
X209500000Y-62000000D03*
X203000000Y-66500000D03*
X209500000Y-66500000D03*
%TD*%
%TO.C,H2*%
X89250000Y-115750000D03*
%TD*%
D13*
%TO.C,K9*%
X153900000Y-80200000D03*
D14*
X159950000Y-78250000D03*
D13*
X159950000Y-66050000D03*
X147900000Y-66000000D03*
D14*
X147950000Y-78250000D03*
%TD*%
D10*
%TO.C,J3*%
X106250000Y-56250000D03*
D11*
X101250000Y-56250000D03*
X96250000Y-56250000D03*
%TD*%
D13*
%TO.C,K2*%
X101400000Y-80150000D03*
D14*
X107450000Y-78200000D03*
D13*
X107450000Y-66000000D03*
X95400000Y-65950000D03*
D14*
X95450000Y-78200000D03*
%TD*%
D13*
%TO.C,K8*%
X119150000Y-88250000D03*
D14*
X113100000Y-90200000D03*
D13*
X113100000Y-102400000D03*
X125150000Y-102450000D03*
D14*
X125100000Y-90200000D03*
%TD*%
D12*
%TO.C,J12*%
X181750000Y-55750000D03*
D11*
X186750000Y-55750000D03*
X191750000Y-55750000D03*
X196750000Y-55750000D03*
%TD*%
D18*
%TO.C,H4*%
X209500000Y-52250000D03*
%TD*%
D12*
%TO.C,J7*%
X169750000Y-55750000D03*
D11*
X174750000Y-55750000D03*
%TD*%
D13*
%TO.C,K4*%
X136500000Y-80150000D03*
D14*
X142550000Y-78200000D03*
D13*
X142550000Y-66000000D03*
X130500000Y-65950000D03*
D14*
X130550000Y-78200000D03*
%TD*%
M02*
