%TF.GenerationSoftware,KiCad,Pcbnew,10.0.4*%
%TF.CreationDate,2026-09-21T13:34:08+02:00*%
%TF.ProjectId,esp32-relay-controller,65737033-322d-4726-956c-61792d636f6e,rev?*%
%TF.SameCoordinates,Original*%
%TF.FileFunction,Copper,L1,Top*%
%TF.FilePolarity,Positive*%
%FSLAX46Y46*%
G04 Gerber Fmt 4.6, Leading zero omitted, Abs format (unit mm)*
G04 Created by KiCad (PCBNEW 10.0.4) date 2026-09-21 13:34:08*
%MOMM*%
%LPD*%
G01*
G04 APERTURE LIST*
G04 Aperture macros list*
%AMRoundRect*
0 Rectangle with rounded corners*
0 $1 Rounding radius*
0 $2 $3 $4 $5 $6 $7 $8 $9 X,Y pos of 4 corners*
0 Add a 4 corners polygon primitive as box body*
4,1,4,$2,$3,$4,$5,$6,$7,$8,$9,$2,$3,0*
0 Add four circle primitives for the rounded corners*
1,1,$1+$1,$2,$3*
1,1,$1+$1,$4,$5*
1,1,$1+$1,$6,$7*
1,1,$1+$1,$8,$9*
0 Add four rect primitives between the rounded corners*
20,1,$1+$1,$2,$3,$4,$5,0*
20,1,$1+$1,$4,$5,$6,$7,0*
20,1,$1+$1,$6,$7,$8,$9,0*
20,1,$1+$1,$8,$9,$2,$3,0*%
G04 Aperture macros list end*
%TA.AperFunction,ComponentPad*%
%ADD10RoundRect,0.250001X1.149999X1.149999X-1.149999X1.149999X-1.149999X-1.149999X1.149999X-1.149999X0*%
%TD*%
%TA.AperFunction,ComponentPad*%
%ADD11C,2.800000*%
%TD*%
%TA.AperFunction,SMDPad,CuDef*%
%ADD12RoundRect,0.200000X-0.200000X-0.275000X0.200000X-0.275000X0.200000X0.275000X-0.200000X0.275000X0*%
%TD*%
%TA.AperFunction,SMDPad,CuDef*%
%ADD13RoundRect,0.090000X-0.660000X-0.360000X0.660000X-0.360000X0.660000X0.360000X-0.660000X0.360000X0*%
%TD*%
%TA.AperFunction,SMDPad,CuDef*%
%ADD14RoundRect,0.225000X0.225000X0.250000X-0.225000X0.250000X-0.225000X-0.250000X0.225000X-0.250000X0*%
%TD*%
%TA.AperFunction,ComponentPad*%
%ADD15RoundRect,0.250001X-1.149999X-1.149999X1.149999X-1.149999X1.149999X1.149999X-1.149999X1.149999X0*%
%TD*%
%TA.AperFunction,SMDPad,CuDef*%
%ADD16RoundRect,0.150000X0.825000X0.150000X-0.825000X0.150000X-0.825000X-0.150000X0.825000X-0.150000X0*%
%TD*%
%TA.AperFunction,ComponentPad*%
%ADD17C,3.000000*%
%TD*%
%TA.AperFunction,ComponentPad*%
%ADD18C,2.500000*%
%TD*%
%TA.AperFunction,SMDPad,CuDef*%
%ADD19RoundRect,0.250000X-0.925000X-1.500000X0.925000X-1.500000X0.925000X1.500000X-0.925000X1.500000X0*%
%TD*%
%TA.AperFunction,SMDPad,CuDef*%
%ADD20RoundRect,0.250000X1.500000X0.550000X-1.500000X0.550000X-1.500000X-0.550000X1.500000X-0.550000X0*%
%TD*%
%TA.AperFunction,SMDPad,CuDef*%
%ADD21RoundRect,0.150000X0.425000X-0.150000X0.425000X0.150000X-0.425000X0.150000X-0.425000X-0.150000X0*%
%TD*%
%TA.AperFunction,SMDPad,CuDef*%
%ADD22RoundRect,0.075000X0.500000X-0.075000X0.500000X0.075000X-0.500000X0.075000X-0.500000X-0.075000X0*%
%TD*%
%TA.AperFunction,ComponentPad*%
%ADD23O,2.100000X1.000000*%
%TD*%
%TA.AperFunction,ComponentPad*%
%ADD24O,1.800000X1.000000*%
%TD*%
%TA.AperFunction,SMDPad,CuDef*%
%ADD25RoundRect,0.150000X0.150000X-0.587500X0.150000X0.587500X-0.150000X0.587500X-0.150000X-0.587500X0*%
%TD*%
%TA.AperFunction,SMDPad,CuDef*%
%ADD26RoundRect,0.225000X-0.225000X-0.250000X0.225000X-0.250000X0.225000X0.250000X-0.225000X0.250000X0*%
%TD*%
%TA.AperFunction,ComponentPad*%
%ADD27R,1.700000X1.700000*%
%TD*%
%TA.AperFunction,ComponentPad*%
%ADD28C,1.700000*%
%TD*%
%TA.AperFunction,SMDPad,CuDef*%
%ADD29RoundRect,0.250000X0.250000X0.475000X-0.250000X0.475000X-0.250000X-0.475000X0.250000X-0.475000X0*%
%TD*%
%TA.AperFunction,SMDPad,CuDef*%
%ADD30RoundRect,0.250000X1.500000X-0.925000X1.500000X0.925000X-1.500000X0.925000X-1.500000X-0.925000X0*%
%TD*%
%TA.AperFunction,SMDPad,CuDef*%
%ADD31RoundRect,0.150000X-0.512500X-0.150000X0.512500X-0.150000X0.512500X0.150000X-0.512500X0.150000X0*%
%TD*%
%TA.AperFunction,SMDPad,CuDef*%
%ADD32RoundRect,0.100000X0.130000X0.100000X-0.130000X0.100000X-0.130000X-0.100000X0.130000X-0.100000X0*%
%TD*%
%TA.AperFunction,SMDPad,CuDef*%
%ADD33RoundRect,0.150000X0.150000X-0.825000X0.150000X0.825000X-0.150000X0.825000X-0.150000X-0.825000X0*%
%TD*%
%TA.AperFunction,SMDPad,CuDef*%
%ADD34RoundRect,0.112500X0.187500X0.112500X-0.187500X0.112500X-0.187500X-0.112500X0.187500X-0.112500X0*%
%TD*%
%TA.AperFunction,ComponentPad*%
%ADD35R,2.000000X2.000000*%
%TD*%
%TA.AperFunction,ComponentPad*%
%ADD36C,2.000000*%
%TD*%
%TA.AperFunction,SMDPad,CuDef*%
%ADD37RoundRect,0.200000X-0.275000X0.200000X-0.275000X-0.200000X0.275000X-0.200000X0.275000X0.200000X0*%
%TD*%
%TA.AperFunction,SMDPad,CuDef*%
%ADD38RoundRect,0.200000X0.200000X0.275000X-0.200000X0.275000X-0.200000X-0.275000X0.200000X-0.275000X0*%
%TD*%
%TA.AperFunction,SMDPad,CuDef*%
%ADD39RoundRect,0.200000X0.275000X-0.200000X0.275000X0.200000X-0.275000X0.200000X-0.275000X-0.200000X0*%
%TD*%
%TA.AperFunction,SMDPad,CuDef*%
%ADD40RoundRect,0.100000X-0.130000X-0.100000X0.130000X-0.100000X0.130000X0.100000X-0.130000X0.100000X0*%
%TD*%
%TA.AperFunction,SMDPad,CuDef*%
%ADD41RoundRect,0.150000X-0.150000X-0.200000X0.150000X-0.200000X0.150000X0.200000X-0.150000X0.200000X0*%
%TD*%
%TA.AperFunction,SMDPad,CuDef*%
%ADD42RoundRect,0.225000X-0.250000X0.225000X-0.250000X-0.225000X0.250000X-0.225000X0.250000X0.225000X0*%
%TD*%
%TA.AperFunction,SMDPad,CuDef*%
%ADD43RoundRect,0.150000X0.587500X0.150000X-0.587500X0.150000X-0.587500X-0.150000X0.587500X-0.150000X0*%
%TD*%
%TA.AperFunction,SMDPad,CuDef*%
%ADD44RoundRect,0.150000X0.150000X0.200000X-0.150000X0.200000X-0.150000X-0.200000X0.150000X-0.200000X0*%
%TD*%
%TA.AperFunction,SMDPad,CuDef*%
%ADD45C,1.500000*%
%TD*%
%TA.AperFunction,SMDPad,CuDef*%
%ADD46RoundRect,0.250000X1.950000X1.000000X-1.950000X1.000000X-1.950000X-1.000000X1.950000X-1.000000X0*%
%TD*%
%TA.AperFunction,SMDPad,CuDef*%
%ADD47RoundRect,0.250000X-0.250000X-0.475000X0.250000X-0.475000X0.250000X0.475000X-0.250000X0.475000X0*%
%TD*%
%TA.AperFunction,SMDPad,CuDef*%
%ADD48RoundRect,0.150000X0.875000X0.150000X-0.875000X0.150000X-0.875000X-0.150000X0.875000X-0.150000X0*%
%TD*%
%TA.AperFunction,ComponentPad*%
%ADD49R,1.905000X2.000000*%
%TD*%
%TA.AperFunction,ComponentPad*%
%ADD50O,1.905000X2.000000*%
%TD*%
%TA.AperFunction,SMDPad,CuDef*%
%ADD51RoundRect,0.112500X-0.112500X0.187500X-0.112500X-0.187500X0.112500X-0.187500X0.112500X0.187500X0*%
%TD*%
%TA.AperFunction,SMDPad,CuDef*%
%ADD52RoundRect,0.250000X0.475000X-0.250000X0.475000X0.250000X-0.475000X0.250000X-0.475000X-0.250000X0*%
%TD*%
%TA.AperFunction,SMDPad,CuDef*%
%ADD53RoundRect,0.150000X-0.150000X0.587500X-0.150000X-0.587500X0.150000X-0.587500X0.150000X0.587500X0*%
%TD*%
%TA.AperFunction,SMDPad,CuDef*%
%ADD54RoundRect,0.250000X0.900000X-1.000000X0.900000X1.000000X-0.900000X1.000000X-0.900000X-1.000000X0*%
%TD*%
%TA.AperFunction,SMDPad,CuDef*%
%ADD55R,0.900000X1.500000*%
%TD*%
%TA.AperFunction,SMDPad,CuDef*%
%ADD56R,1.500000X0.900000*%
%TD*%
%TA.AperFunction,SMDPad,CuDef*%
%ADD57R,0.900000X0.900000*%
%TD*%
%TA.AperFunction,HeatsinkPad*%
%ADD58C,0.600000*%
%TD*%
%TA.AperFunction,HeatsinkPad*%
%ADD59R,3.800000X3.800000*%
%TD*%
%TA.AperFunction,ViaPad*%
%ADD60C,0.600000*%
%TD*%
%TA.AperFunction,ViaPad*%
%ADD61C,0.500000*%
%TD*%
%TA.AperFunction,ViaPad*%
%ADD62C,0.700000*%
%TD*%
%TA.AperFunction,Conductor*%
%ADD63C,0.500000*%
%TD*%
%TA.AperFunction,Conductor*%
%ADD64C,0.200000*%
%TD*%
%TA.AperFunction,Conductor*%
%ADD65C,1.000000*%
%TD*%
%TA.AperFunction,Conductor*%
%ADD66C,3.000000*%
%TD*%
%TA.AperFunction,Conductor*%
%ADD67C,0.800000*%
%TD*%
%TA.AperFunction,Conductor*%
%ADD68C,0.600000*%
%TD*%
%TA.AperFunction,Conductor*%
%ADD69C,0.300000*%
%TD*%
G04 APERTURE END LIST*
D10*
%TO.P,J1,1,Pin_1_1*%
%TO.N,GND*%
X174000000Y-111250000D03*
D11*
%TO.P,J1,2,Pin_2_2*%
%TO.N,Net-(D2-A1)*%
X169000000Y-111250000D03*
%TD*%
D12*
%TO.P,R26,1*%
%TO.N,+3.3V*%
X200675000Y-51000000D03*
%TO.P,R26,2*%
%TO.N,Net-(D6-A1)*%
X202325000Y-51000000D03*
%TD*%
D13*
%TO.P,D15,1,VDD_1*%
%TO.N,Net-(D1-K)*%
X193300000Y-66350000D03*
%TO.P,D15,2,DOUT_2*%
%TO.N,unconnected-(D15-DOUT-Pad2)*%
X193300000Y-69650000D03*
%TO.P,D15,3,VSS_3*%
%TO.N,GND*%
X198200000Y-69650000D03*
%TO.P,D15,4,DIN_4*%
%TO.N,Net-(D15-DIN)*%
X198200000Y-66350000D03*
%TD*%
D14*
%TO.P,C19,1*%
%TO.N,EN*%
X203800000Y-70250000D03*
%TO.P,C19,2*%
%TO.N,GND*%
X202250000Y-70250000D03*
%TD*%
D15*
%TO.P,J10,1,Pin_1_1*%
%TO.N,Net-(J10-Pin_1)*%
X96500000Y-112000000D03*
D11*
%TO.P,J10,2,Pin_2_2*%
%TO.N,Net-(J10-Pin_2)*%
X101500000Y-112000000D03*
%TO.P,J10,3,Pin_3_3*%
%TO.N,Net-(J10-Pin_3)*%
X106500000Y-112000000D03*
%TD*%
D10*
%TO.P,J11,1,Pin_1_1*%
%TO.N,Net-(J11-Pin_1)*%
X141500000Y-56200000D03*
D11*
%TO.P,J11,2,Pin_2_2*%
%TO.N,Net-(J11-Pin_2)*%
X136500000Y-56200000D03*
%TO.P,J11,3,Pin_3_3*%
%TO.N,Net-(J11-Pin_3)*%
X131500000Y-56200000D03*
%TD*%
D16*
%TO.P,U6,1,GND_1*%
%TO.N,GND*%
X199475000Y-112445000D03*
%TO.P,U6,2,TXD_2*%
%TO.N,RX*%
X199475000Y-111175000D03*
%TO.P,U6,3,RXD_3*%
%TO.N,TX*%
X199475000Y-109905000D03*
%TO.P,U6,4,V3_4*%
%TO.N,+3.3V*%
X199475000Y-108635000D03*
%TO.P,U6,5,UD+_5*%
%TO.N,D+*%
X199475000Y-107365000D03*
%TO.P,U6,6,UD-_6*%
%TO.N,D-*%
X199475000Y-106095000D03*
%TO.P,U6,7,NC_7*%
%TO.N,unconnected-(U6-NC-Pad7)*%
X199475000Y-104825000D03*
%TO.P,U6,8,NC_8*%
%TO.N,unconnected-(U6-NC-Pad8)*%
X199475000Y-103555000D03*
%TO.P,U6,9,~{CTS}_9*%
%TO.N,unconnected-(U6-~{CTS}-Pad9)*%
X194525000Y-103555000D03*
%TO.P,U6,10,~{DSR}_10*%
%TO.N,unconnected-(U6-~{DSR}-Pad10)*%
X194525000Y-104825000D03*
%TO.P,U6,11,~{RI}_11*%
%TO.N,unconnected-(U6-~{RI}-Pad11)*%
X194525000Y-106095000D03*
%TO.P,U6,12,~{DCD}_12*%
%TO.N,unconnected-(U6-~{DCD}-Pad12)*%
X194525000Y-107365000D03*
%TO.P,U6,13,~{DTR}_13*%
%TO.N,DTR*%
X194525000Y-108635000D03*
%TO.P,U6,14,~{RTS}_14*%
%TO.N,RTS*%
X194525000Y-109905000D03*
%TO.P,U6,15,R232_15*%
%TO.N,unconnected-(U6-R232-Pad15)*%
X194525000Y-111175000D03*
%TO.P,U6,16,VCC_16*%
%TO.N,+3.3V*%
X194525000Y-112445000D03*
%TD*%
D17*
%TO.P,K7,1*%
%TO.N,Net-(J8-Pin_2)*%
X154250000Y-88300000D03*
D18*
%TO.P,K7,2*%
%TO.N,Relay_5v*%
X148200000Y-90250000D03*
D17*
%TO.P,K7,3*%
%TO.N,Net-(J8-Pin_1)*%
X148200000Y-102450000D03*
%TO.P,K7,4*%
%TO.N,Net-(J8-Pin_3)*%
X160250000Y-102500000D03*
D18*
%TO.P,K7,5*%
%TO.N,Relay5*%
X160200000Y-90250000D03*
%TD*%
D19*
%TO.P,L1,1,1_1*%
%TO.N,Net-(U2-SW)*%
X165475000Y-78250000D03*
%TO.P,L1,2,2_2*%
%TO.N,Relay_5v*%
X171525000Y-78250000D03*
%TD*%
D20*
%TO.P,C2,1*%
%TO.N,+12V Protected*%
X185650000Y-101500000D03*
%TO.P,C2,2*%
%TO.N,GND*%
X180250000Y-101500000D03*
%TD*%
D21*
%TO.P,J5,A1,GND_A1*%
%TO.N,GND*%
X203820000Y-111340000D03*
%TO.P,J5,A4,VBUS_A4*%
%TO.N,USB_5V*%
X203820000Y-110540000D03*
D22*
%TO.P,J5,A5,CC1_A5*%
%TO.N,Net-(J5-CC1)*%
X203820000Y-109390000D03*
%TO.P,J5,A6,D+_A6*%
%TO.N,D+*%
X203820000Y-108390000D03*
%TO.P,J5,A7,D-_A7*%
%TO.N,D-*%
X203820000Y-107890000D03*
%TO.P,J5,A8,SBU1_A8*%
%TO.N,unconnected-(J5-SBU1-PadA8)*%
X203820000Y-106890000D03*
D21*
%TO.P,J5,A9,VBUS_A9*%
%TO.N,USB_5V*%
X203820000Y-105740000D03*
%TO.P,J5,A12,GND_A12*%
%TO.N,GND*%
X203820000Y-104940000D03*
%TO.P,J5,B1,GND_B1*%
X203820000Y-104940000D03*
%TO.P,J5,B4,VBUS_B4*%
%TO.N,USB_5V*%
X203820000Y-105740000D03*
D22*
%TO.P,J5,B5,CC2_B5*%
%TO.N,Net-(J5-CC2)*%
X203820000Y-106390000D03*
%TO.P,J5,B6,D+_B6*%
%TO.N,D+*%
X203820000Y-107390000D03*
%TO.P,J5,B7,D-_B7*%
%TO.N,D-*%
X203820000Y-108890000D03*
%TO.P,J5,B8,SBU2_B8*%
%TO.N,unconnected-(J5-SBU2-PadB8)*%
X203820000Y-109890000D03*
D21*
%TO.P,J5,B9,VBUS_B9*%
%TO.N,USB_5V*%
X203820000Y-110540000D03*
%TO.P,J5,B12,GND_B12*%
%TO.N,GND*%
X203820000Y-111340000D03*
D23*
%TO.P,J5,SH,SHIELD_SH*%
X204395000Y-112460000D03*
D24*
X208575000Y-112460000D03*
D23*
X204395000Y-103820000D03*
D24*
X208575000Y-103820000D03*
%TD*%
D25*
%TO.P,Q5,1,B_1*%
%TO.N,Net-(Q5-B)*%
X189000000Y-76125000D03*
%TO.P,Q5,2,E_2*%
%TO.N,GND*%
X190900000Y-76125000D03*
%TO.P,Q5,3,C_3*%
%TO.N,Net-(Buzzer1--)*%
X189950000Y-74250000D03*
%TD*%
D26*
%TO.P,C14,1*%
%TO.N,+3.3V*%
X208725000Y-72250000D03*
%TO.P,C14,2*%
%TO.N,GND*%
X210275000Y-72250000D03*
%TD*%
D12*
%TO.P,R14,1*%
%TO.N,USB_5V*%
X175850000Y-74750000D03*
%TO.P,R14,2*%
%TO.N,GND*%
X177500000Y-74750000D03*
%TD*%
D27*
%TO.P,JP1,1,A_1*%
%TO.N,Net-(JP1-A)*%
X206975000Y-58500000D03*
D28*
%TO.P,JP1,2,B_2*%
%TO.N,Net-(D6-A2)*%
X209515000Y-58500000D03*
%TD*%
D29*
%TO.P,C12,1*%
%TO.N,+12V Protected*%
X166950000Y-88000000D03*
%TO.P,C12,2*%
%TO.N,GND*%
X165050000Y-88000000D03*
%TD*%
D26*
%TO.P,C21,1*%
%TO.N,+3.3V*%
X208725000Y-70250000D03*
%TO.P,C21,2*%
%TO.N,GND*%
X210275000Y-70250000D03*
%TD*%
D30*
%TO.P,L2,1,1_1*%
%TO.N,Net-(U3-SW)*%
X168750000Y-69275000D03*
%TO.P,L2,2,2_2*%
%TO.N,+3.3V*%
X168750000Y-63225000D03*
%TD*%
D31*
%TO.P,U4,1,I/O1_1*%
%TO.N,D+*%
X195862500Y-114050000D03*
%TO.P,U4,2,GND_2*%
%TO.N,GND*%
X195862500Y-115000000D03*
%TO.P,U4,3,I/O2_3*%
%TO.N,D-*%
X195862500Y-115950000D03*
%TO.P,U4,4,I/O2_4*%
%TO.N,unconnected-(U4-I{slash}O2-Pad4)*%
X198137500Y-115950000D03*
%TO.P,U4,5,VBUS_5*%
%TO.N,USB_5V*%
X198137500Y-115000000D03*
%TO.P,U4,6,I/O1_6*%
%TO.N,unconnected-(U4-I{slash}O1-Pad6)*%
X198137500Y-114050000D03*
%TD*%
D12*
%TO.P,R8,1*%
%TO.N,Net-(Q3-B)*%
X194675000Y-100000000D03*
%TO.P,R8,2*%
%TO.N,DTR*%
X196325000Y-100000000D03*
%TD*%
%TO.P,R18,1*%
%TO.N,BUZZER*%
X185750000Y-75500000D03*
%TO.P,R18,2*%
%TO.N,Net-(Q5-B)*%
X187400000Y-75500000D03*
%TD*%
D32*
%TO.P,D9,1,K_1*%
%TO.N,Net-(D9-K)*%
X173320000Y-92500000D03*
%TO.P,D9,2,A_2*%
%TO.N,Relay_5v*%
X172680000Y-92500000D03*
%TD*%
D10*
%TO.P,J9,1,Pin_1_1*%
%TO.N,Net-(J9-Pin_1)*%
X123750000Y-56200000D03*
D11*
%TO.P,J9,2,Pin_2_2*%
%TO.N,Net-(J9-Pin_2)*%
X118750000Y-56200000D03*
%TO.P,J9,3,Pin_3_3*%
%TO.N,Net-(J9-Pin_3)*%
X113750000Y-56200000D03*
%TD*%
D33*
%TO.P,U9,1,RO_1*%
%TO.N,RX1*%
X200595000Y-58000000D03*
%TO.P,U9,2,~{RE}_2*%
%TO.N,Direction*%
X201865000Y-58000000D03*
%TO.P,U9,3,DE_3*%
X203135000Y-58000000D03*
%TO.P,U9,4,DI_4*%
%TO.N,TX1*%
X204405000Y-58000000D03*
%TO.P,U9,5,GND_5*%
%TO.N,GND*%
X204405000Y-53050000D03*
%TO.P,U9,6,A_6*%
%TO.N,Net-(D6-A1)*%
X203135000Y-53050000D03*
%TO.P,U9,7,B_7*%
%TO.N,Net-(D6-A2)*%
X201865000Y-53050000D03*
%TO.P,U9,8,VCC_8*%
%TO.N,+3.3V*%
X200595000Y-53050000D03*
%TD*%
D15*
%TO.P,J8,1,Pin_1_1*%
%TO.N,Net-(J8-Pin_1)*%
X149250000Y-111750000D03*
D11*
%TO.P,J8,2,Pin_2_2*%
%TO.N,Net-(J8-Pin_2)*%
X154250000Y-111750000D03*
%TO.P,J8,3,Pin_3_3*%
%TO.N,Net-(J8-Pin_3)*%
X159250000Y-111750000D03*
%TD*%
D34*
%TO.P,D3,1,K_1*%
%TO.N,Net-(D3-K)*%
X172000000Y-71750000D03*
%TO.P,D3,2,A_2*%
%TO.N,+12V Protected*%
X169900000Y-71750000D03*
%TD*%
D35*
%TO.P,Buzzer1,1,+_1*%
%TO.N,Relay_5v*%
X181950000Y-68000000D03*
D36*
%TO.P,Buzzer1,2,-_2*%
%TO.N,Net-(Buzzer1--)*%
X189550000Y-68000000D03*
%TD*%
D12*
%TO.P,R15,1*%
%TO.N,+3.3V*%
X193925000Y-94250000D03*
%TO.P,R15,2*%
%TO.N,IO0*%
X195575000Y-94250000D03*
%TD*%
D37*
%TO.P,R3,1*%
%TO.N,+3.3V*%
X178475000Y-69225000D03*
%TO.P,R3,2*%
%TO.N,Net-(U3-FB)*%
X178475000Y-70875000D03*
%TD*%
D17*
%TO.P,K3,1*%
%TO.N,Net-(J10-Pin_2)*%
X101500000Y-88300000D03*
D18*
%TO.P,K3,2*%
%TO.N,Relay_5v*%
X95450000Y-90250000D03*
D17*
%TO.P,K3,3*%
%TO.N,Net-(J10-Pin_1)*%
X95450000Y-102450000D03*
%TO.P,K3,4*%
%TO.N,Net-(J10-Pin_3)*%
X107500000Y-102500000D03*
D18*
%TO.P,K3,5*%
%TO.N,Relay7*%
X107450000Y-90250000D03*
%TD*%
D38*
%TO.P,R9,1*%
%TO.N,Net-(Q2-B)*%
X199825000Y-100000000D03*
%TO.P,R9,2*%
%TO.N,RTS*%
X198175000Y-100000000D03*
%TD*%
D10*
%TO.P,J2,1,Pin_1_1*%
%TO.N,Net-(J2-Pin_1)*%
X158700000Y-56150000D03*
D11*
%TO.P,J2,2,Pin_2_2*%
%TO.N,Net-(J2-Pin_2)*%
X153700000Y-56150000D03*
%TO.P,J2,3,Pin_3_3*%
%TO.N,Net-(J2-Pin_3)*%
X148700000Y-56150000D03*
%TD*%
D25*
%TO.P,Q3,1,B_1*%
%TO.N,Net-(Q3-B)*%
X194550000Y-97875000D03*
%TO.P,Q3,2,E_2*%
%TO.N,RTS*%
X196450000Y-97875000D03*
%TO.P,Q3,3,C_3*%
%TO.N,EN*%
X195500000Y-96000000D03*
%TD*%
D39*
%TO.P,R42,1*%
%TO.N,Status_led*%
X200250000Y-69075000D03*
%TO.P,R42,2*%
%TO.N,Net-(D15-DIN)*%
X200250000Y-67425000D03*
%TD*%
D15*
%TO.P,J4,1,Pin_1_1*%
%TO.N,Net-(J4-Pin_1)*%
X131750000Y-111800000D03*
D11*
%TO.P,J4,2,Pin_2_2*%
%TO.N,Net-(J4-Pin_2)*%
X136750000Y-111800000D03*
%TO.P,J4,3,Pin_3_3*%
%TO.N,Net-(J4-Pin_3)*%
X141750000Y-111800000D03*
%TD*%
D40*
%TO.P,D7,1,K_1*%
%TO.N,Net-(D7-K)*%
X177930000Y-91500000D03*
%TO.P,D7,2,A_2*%
%TO.N,+3.3V*%
X178570000Y-91500000D03*
%TD*%
D36*
%TO.P,TP4,1,1_1*%
%TO.N,GND*%
X90000000Y-83750000D03*
%TD*%
D39*
%TO.P,R2,1*%
%TO.N,Net-(U2-FB)*%
X172750000Y-88075000D03*
%TO.P,R2,2*%
%TO.N,GND*%
X172750000Y-86425000D03*
%TD*%
D37*
%TO.P,R7,1*%
%TO.N,Net-(J5-CC1)*%
X206250000Y-114175000D03*
%TO.P,R7,2*%
%TO.N,GND*%
X206250000Y-115825000D03*
%TD*%
D19*
%TO.P,L3,1,1_1*%
%TO.N,Net-(D5-K)*%
X165275000Y-95850000D03*
%TO.P,L3,2,2_2*%
%TO.N,+12V Protected*%
X171325000Y-95850000D03*
%TD*%
D41*
%TO.P,D13,1,K_1*%
%TO.N,Relay_5v*%
X194520000Y-71725000D03*
%TO.P,D13,2,A_2*%
%TO.N,Net-(Buzzer1--)*%
X193120000Y-71725000D03*
%TD*%
D40*
%TO.P,D11,1,K_1*%
%TO.N,Net-(D11-K)*%
X177930000Y-93500000D03*
%TO.P,D11,2,A_2*%
%TO.N,+12V Protected*%
X178570000Y-93500000D03*
%TD*%
D36*
%TO.P,SW2,1,1_1*%
%TO.N,IO0*%
X202750000Y-96000000D03*
X209250000Y-96000000D03*
%TO.P,SW2,2,2_2*%
%TO.N,GND*%
X202750000Y-100500000D03*
X209250000Y-100500000D03*
%TD*%
D12*
%TO.P,R38,1*%
%TO.N,Net-(D9-K)*%
X174675000Y-92500000D03*
%TO.P,R38,2*%
%TO.N,GND*%
X176325000Y-92500000D03*
%TD*%
D37*
%TO.P,R25,1*%
%TO.N,Net-(U1-IO35)*%
X189750000Y-96175000D03*
%TO.P,R25,2*%
%TO.N,GND*%
X189750000Y-97825000D03*
%TD*%
D31*
%TO.P,U3,1,GND_1*%
%TO.N,GND*%
X174475000Y-69000000D03*
%TO.P,U3,2,SW_2*%
%TO.N,Net-(U3-SW)*%
X174475000Y-69950000D03*
%TO.P,U3,3,VIN_3*%
%TO.N,Net-(D3-K)*%
X174475000Y-70900000D03*
%TO.P,U3,4,FB_4*%
%TO.N,Net-(U3-FB)*%
X176750000Y-70900000D03*
%TO.P,U3,5,EN_5*%
%TO.N,Net-(D3-K)*%
X176750000Y-69950000D03*
%TO.P,U3,6,CB_6*%
%TO.N,Net-(U3-CB)*%
X176750000Y-69000000D03*
%TD*%
D37*
%TO.P,R27,1*%
%TO.N,Net-(D6-A2)*%
X206250000Y-52675000D03*
%TO.P,R27,2*%
%TO.N,GND*%
X206250000Y-54325000D03*
%TD*%
D39*
%TO.P,R6,1*%
%TO.N,Net-(J5-CC2)*%
X201500000Y-104825000D03*
%TO.P,R6,2*%
%TO.N,GND*%
X201500000Y-103175000D03*
%TD*%
D38*
%TO.P,R40,1*%
%TO.N,Net-(D11-K)*%
X176325000Y-94000000D03*
%TO.P,R40,2*%
%TO.N,GND*%
X174675000Y-94000000D03*
%TD*%
D42*
%TO.P,C3,1*%
%TO.N,+12V Protected*%
X189250000Y-101725000D03*
%TO.P,C3,2*%
%TO.N,GND*%
X189250000Y-103275000D03*
%TD*%
D12*
%TO.P,R5,1*%
%TO.N,Net-(D5-A)*%
X175775000Y-100750000D03*
%TO.P,R5,2*%
%TO.N,GND*%
X177425000Y-100750000D03*
%TD*%
D26*
%TO.P,C25,1*%
%TO.N,GND*%
X172950000Y-61000000D03*
%TO.P,C25,2*%
%TO.N,Switch_1*%
X174500000Y-61000000D03*
%TD*%
D17*
%TO.P,K6,1*%
%TO.N,Net-(J4-Pin_2)*%
X136750000Y-88300000D03*
D18*
%TO.P,K6,2*%
%TO.N,Relay_5v*%
X130700000Y-90250000D03*
D17*
%TO.P,K6,3*%
%TO.N,Net-(J4-Pin_1)*%
X130700000Y-102450000D03*
%TO.P,K6,4*%
%TO.N,Net-(J4-Pin_3)*%
X142750000Y-102500000D03*
D18*
%TO.P,K6,5*%
%TO.N,Relay3*%
X142700000Y-90250000D03*
%TD*%
D14*
%TO.P,C22,1*%
%TO.N,GND*%
X204525000Y-116750000D03*
%TO.P,C22,2*%
%TO.N,USB_5V*%
X202975000Y-116750000D03*
%TD*%
D43*
%TO.P,D5,1,A_1*%
%TO.N,Net-(D5-A)*%
X175937500Y-99200000D03*
%TO.P,D5,2,NC_2*%
%TO.N,unconnected-(D5-NC-Pad2)*%
X175937500Y-97300000D03*
%TO.P,D5,3,K_3*%
%TO.N,Net-(D5-K)*%
X174062500Y-98250000D03*
%TD*%
D36*
%TO.P,SW3,1,1_1*%
%TO.N,+3.3V*%
X180750000Y-91750000D03*
X187250000Y-91750000D03*
%TO.P,SW3,2,2_2*%
%TO.N,Net-(U1-IO35)*%
X180750000Y-96250000D03*
X187250000Y-96250000D03*
%TD*%
D12*
%TO.P,R24,1*%
%TO.N,+3.3V*%
X169900000Y-61000000D03*
%TO.P,R24,2*%
%TO.N,Switch_1*%
X171550000Y-61000000D03*
%TD*%
D15*
%TO.P,J6,1,Pin_1_1*%
%TO.N,Net-(J6-Pin_1)*%
X114250000Y-112000000D03*
D11*
%TO.P,J6,2,Pin_2_2*%
%TO.N,Net-(J6-Pin_2)*%
X119250000Y-112000000D03*
%TO.P,J6,3,Pin_3_3*%
%TO.N,Net-(J6-Pin_3)*%
X124250000Y-112000000D03*
%TD*%
D14*
%TO.P,C5,1*%
%TO.N,Net-(U2-CB)*%
X170775000Y-82750000D03*
%TO.P,C5,2*%
%TO.N,Net-(U2-SW)*%
X169225000Y-82750000D03*
%TD*%
D29*
%TO.P,C8,1*%
%TO.N,GND*%
X174950000Y-84750000D03*
%TO.P,C8,2*%
%TO.N,Relay_5v*%
X173050000Y-84750000D03*
%TD*%
D17*
%TO.P,K5,1*%
%TO.N,Net-(J9-Pin_2)*%
X118950000Y-80100000D03*
D18*
%TO.P,K5,2*%
%TO.N,Relay_5v*%
X125000000Y-78150000D03*
D17*
%TO.P,K5,3*%
%TO.N,Net-(J9-Pin_1)*%
X125000000Y-65950000D03*
%TO.P,K5,4*%
%TO.N,Net-(J9-Pin_3)*%
X112950000Y-65900000D03*
D18*
%TO.P,K5,5*%
%TO.N,Relay6*%
X113000000Y-78150000D03*
%TD*%
D44*
%TO.P,D1,1,K_1*%
%TO.N,Net-(D1-K)*%
X195750000Y-64475000D03*
%TO.P,D1,2,A_2*%
%TO.N,Relay_5v*%
X197150000Y-64475000D03*
%TD*%
D45*
%TO.P,TP2,1,1_1*%
%TO.N,Relay_5v*%
X169750000Y-88500000D03*
%TD*%
D46*
%TO.P,C1,1*%
%TO.N,+12V Protected*%
X188400000Y-110750000D03*
%TO.P,C1,2*%
%TO.N,GND*%
X180000000Y-110750000D03*
%TD*%
D47*
%TO.P,C10,1*%
%TO.N,GND*%
X175500000Y-63500000D03*
%TO.P,C10,2*%
%TO.N,+3.3V*%
X177400000Y-63500000D03*
%TD*%
D45*
%TO.P,TP1,1,1_1*%
%TO.N,+12V Protected*%
X162700000Y-85250000D03*
%TD*%
D14*
%TO.P,C4,1*%
%TO.N,+12V Protected*%
X166775000Y-86250000D03*
%TO.P,C4,2*%
%TO.N,GND*%
X165225000Y-86250000D03*
%TD*%
D37*
%TO.P,R1,1*%
%TO.N,Relay_5v*%
X174250000Y-86425000D03*
%TO.P,R1,2*%
%TO.N,Net-(U2-FB)*%
X174250000Y-88075000D03*
%TD*%
D42*
%TO.P,C18,1*%
%TO.N,GND*%
X192500000Y-110725000D03*
%TO.P,C18,2*%
%TO.N,+3.3V*%
X192500000Y-112275000D03*
%TD*%
D14*
%TO.P,C9,1*%
%TO.N,Net-(U3-CB)*%
X177500000Y-67300000D03*
%TO.P,C9,2*%
%TO.N,Net-(U3-SW)*%
X175950000Y-67300000D03*
%TD*%
D48*
%TO.P,U7,1,I1_1*%
%TO.N,R1_GPIO*%
X189000000Y-88160000D03*
%TO.P,U7,2,I2_2*%
%TO.N,R2_GPIO*%
X189000000Y-86890000D03*
%TO.P,U7,3,I3_3*%
%TO.N,R3_GPIO*%
X189000000Y-85620000D03*
%TO.P,U7,4,I4_4*%
%TO.N,R4_GPIO*%
X189000000Y-84350000D03*
%TO.P,U7,5,I5_5*%
%TO.N,R5_GPIO*%
X189000000Y-83080000D03*
%TO.P,U7,6,I6_6*%
%TO.N,R6_GPIO*%
X189000000Y-81810000D03*
%TO.P,U7,7,I7_7*%
%TO.N,R7_GPIO*%
X189000000Y-80540000D03*
%TO.P,U7,8,I8_8*%
%TO.N,R8_GPIO*%
X189000000Y-79270000D03*
%TO.P,U7,9,GND_9*%
%TO.N,GND*%
X189000000Y-78000000D03*
%TO.P,U7,10,COM_10*%
%TO.N,Relay_5v*%
X179700000Y-78000000D03*
%TO.P,U7,11,O8_11*%
%TO.N,Relay8*%
X179700000Y-79270000D03*
%TO.P,U7,12,O7_12*%
%TO.N,Relay7*%
X179700000Y-80540000D03*
%TO.P,U7,13,O6_13*%
%TO.N,Relay6*%
X179700000Y-81810000D03*
%TO.P,U7,14,O5_14*%
%TO.N,Relay5*%
X179700000Y-83080000D03*
%TO.P,U7,15,O4_15*%
%TO.N,Relay4*%
X179700000Y-84350000D03*
%TO.P,U7,16,O3_16*%
%TO.N,Relay3*%
X179700000Y-85620000D03*
%TO.P,U7,17,O2_17*%
%TO.N,Relay2*%
X179700000Y-86890000D03*
%TO.P,U7,18,O1_18*%
%TO.N,Relay1*%
X179700000Y-88160000D03*
%TD*%
D47*
%TO.P,C15,1*%
%TO.N,Net-(D3-K)*%
X175895000Y-72800000D03*
%TO.P,C15,2*%
%TO.N,GND*%
X177795000Y-72800000D03*
%TD*%
D49*
%TO.P,Q1,1,G_1*%
%TO.N,Net-(D5-A)*%
X175080000Y-103000000D03*
D50*
%TO.P,Q1,2,D_2*%
%TO.N,Net-(D2-A1)*%
X172540000Y-103000000D03*
%TO.P,Q1,3,S_3*%
%TO.N,Net-(D5-K)*%
X170000000Y-103000000D03*
%TD*%
D36*
%TO.P,SW1,1,1_1*%
%TO.N,EN*%
X203000000Y-62000000D03*
X209500000Y-62000000D03*
%TO.P,SW1,2,2_2*%
%TO.N,GND*%
X203000000Y-66500000D03*
X209500000Y-66500000D03*
%TD*%
D26*
%TO.P,C23,1*%
%TO.N,+3.3V*%
X204425000Y-51000000D03*
%TO.P,C23,2*%
%TO.N,GND*%
X205975000Y-51000000D03*
%TD*%
D38*
%TO.P,R37,1*%
%TO.N,Net-(D7-K)*%
X176325000Y-91000000D03*
%TO.P,R37,2*%
%TO.N,GND*%
X174675000Y-91000000D03*
%TD*%
D51*
%TO.P,D4,1,K_1*%
%TO.N,Net-(D3-K)*%
X173750000Y-72250000D03*
%TO.P,D4,2,A_2*%
%TO.N,USB_5V*%
X173750000Y-74350000D03*
%TD*%
D37*
%TO.P,R4,1*%
%TO.N,Net-(U3-FB)*%
X179500000Y-72425000D03*
%TO.P,R4,2*%
%TO.N,GND*%
X179500000Y-74075000D03*
%TD*%
D29*
%TO.P,C7,1*%
%TO.N,GND*%
X174950000Y-82750000D03*
%TO.P,C7,2*%
%TO.N,Relay_5v*%
X173050000Y-82750000D03*
%TD*%
D17*
%TO.P,K9,1*%
%TO.N,Net-(J2-Pin_2)*%
X153900000Y-80200000D03*
D18*
%TO.P,K9,2*%
%TO.N,Relay_5v*%
X159950000Y-78250000D03*
D17*
%TO.P,K9,3*%
%TO.N,Net-(J2-Pin_1)*%
X159950000Y-66050000D03*
%TO.P,K9,4*%
%TO.N,Net-(J2-Pin_3)*%
X147900000Y-66000000D03*
D18*
%TO.P,K9,5*%
%TO.N,Relay1*%
X147950000Y-78250000D03*
%TD*%
D45*
%TO.P,TP3,1,1_1*%
%TO.N,+3.3V*%
X165200000Y-61150000D03*
%TD*%
D10*
%TO.P,J3,1,Pin_1_1*%
%TO.N,Net-(J3-Pin_1)*%
X106250000Y-56250000D03*
D11*
%TO.P,J3,2,Pin_2_2*%
%TO.N,Net-(J3-Pin_2)*%
X101250000Y-56250000D03*
%TO.P,J3,3,Pin_3_3*%
%TO.N,Net-(J3-Pin_3)*%
X96250000Y-56250000D03*
%TD*%
D26*
%TO.P,C20,1*%
%TO.N,+3.3V*%
X204975000Y-68740000D03*
%TO.P,C20,2*%
%TO.N,GND*%
X206525000Y-68740000D03*
%TD*%
D45*
%TO.P,TP10,1,1_1*%
%TO.N,USB_5V*%
X204000000Y-114750000D03*
%TD*%
D12*
%TO.P,R23,1*%
%TO.N,Net-(D6-A1)*%
X209000000Y-56000000D03*
%TO.P,R23,2*%
%TO.N,Net-(JP1-A)*%
X210650000Y-56000000D03*
%TD*%
D52*
%TO.P,C13,1*%
%TO.N,Net-(D3-K)*%
X173500000Y-67450000D03*
%TO.P,C13,2*%
%TO.N,GND*%
X173500000Y-65550000D03*
%TD*%
D47*
%TO.P,C11,1*%
%TO.N,GND*%
X175550000Y-65500000D03*
%TO.P,C11,2*%
%TO.N,+3.3V*%
X177450000Y-65500000D03*
%TD*%
D17*
%TO.P,K2,1*%
%TO.N,Net-(J3-Pin_2)*%
X101400000Y-80150000D03*
D18*
%TO.P,K2,2*%
%TO.N,Relay_5v*%
X107450000Y-78200000D03*
D17*
%TO.P,K2,3*%
%TO.N,Net-(J3-Pin_1)*%
X107450000Y-66000000D03*
%TO.P,K2,4*%
%TO.N,Net-(J3-Pin_3)*%
X95400000Y-65950000D03*
D18*
%TO.P,K2,5*%
%TO.N,Relay2*%
X95450000Y-78200000D03*
%TD*%
D53*
%TO.P,D6,1,A1_1*%
%TO.N,Net-(D6-A1)*%
X199400000Y-61200000D03*
%TO.P,D6,2,A2_2*%
%TO.N,Net-(D6-A2)*%
X197500000Y-61200000D03*
%TO.P,D6,3,common_3*%
%TO.N,GND*%
X198450000Y-63075000D03*
%TD*%
D26*
%TO.P,C17,1*%
%TO.N,Net-(D1-K)*%
X192225000Y-64250000D03*
%TO.P,C17,2*%
%TO.N,GND*%
X193775000Y-64250000D03*
%TD*%
D17*
%TO.P,K8,1*%
%TO.N,Net-(J6-Pin_2)*%
X119150000Y-88250000D03*
D18*
%TO.P,K8,2*%
%TO.N,Relay_5v*%
X113100000Y-90200000D03*
D17*
%TO.P,K8,3*%
%TO.N,Net-(J6-Pin_1)*%
X113100000Y-102400000D03*
%TO.P,K8,4*%
%TO.N,Net-(J6-Pin_3)*%
X125150000Y-102450000D03*
D18*
%TO.P,K8,5*%
%TO.N,Relay4*%
X125100000Y-90200000D03*
%TD*%
D15*
%TO.P,J12,1,Pin_1_1*%
%TO.N,+12V Protected*%
X181750000Y-55750000D03*
D11*
%TO.P,J12,2,Pin_2_2*%
%TO.N,Net-(D6-A1)*%
X186750000Y-55750000D03*
%TO.P,J12,3,Pin_3_3*%
%TO.N,Net-(D6-A2)*%
X191750000Y-55750000D03*
%TO.P,J12,4,Pin_4_4*%
%TO.N,GND*%
X196750000Y-55750000D03*
%TD*%
D38*
%TO.P,R22,1*%
%TO.N,GND*%
X207625000Y-56000000D03*
%TO.P,R22,2*%
%TO.N,Direction*%
X205975000Y-56000000D03*
%TD*%
D54*
%TO.P,D2,1,A1_1*%
%TO.N,Net-(D2-A1)*%
X164650000Y-105350000D03*
%TO.P,D2,2,A2_2*%
%TO.N,GND*%
X164650000Y-101050000D03*
%TD*%
D25*
%TO.P,Q2,1,B_1*%
%TO.N,Net-(Q2-B)*%
X198300000Y-97875000D03*
%TO.P,Q2,2,E_2*%
%TO.N,DTR*%
X200200000Y-97875000D03*
%TO.P,Q2,3,C_3*%
%TO.N,IO0*%
X199250000Y-96000000D03*
%TD*%
D38*
%TO.P,R10,1*%
%TO.N,+3.3V*%
X206900000Y-70250000D03*
%TO.P,R10,2*%
%TO.N,EN*%
X205250000Y-70250000D03*
%TD*%
D31*
%TO.P,U2,1,GND_1*%
%TO.N,GND*%
X168612500Y-84300000D03*
%TO.P,U2,2,SW_2*%
%TO.N,Net-(U2-SW)*%
X168612500Y-85250000D03*
%TO.P,U2,3,VIN_3*%
%TO.N,+12V Protected*%
X168612500Y-86200000D03*
%TO.P,U2,4,FB_4*%
%TO.N,Net-(U2-FB)*%
X170887500Y-86200000D03*
%TO.P,U2,5,EN_5*%
%TO.N,+12V Protected*%
X170887500Y-85250000D03*
%TO.P,U2,6,CB_6*%
%TO.N,Net-(U2-CB)*%
X170887500Y-84300000D03*
%TD*%
D14*
%TO.P,C6,1*%
%TO.N,Net-(D3-K)*%
X171775000Y-73500000D03*
%TO.P,C6,2*%
%TO.N,GND*%
X170225000Y-73500000D03*
%TD*%
D15*
%TO.P,J7,1,Pin_1_1*%
%TO.N,Switch_1*%
X169750000Y-55750000D03*
D11*
%TO.P,J7,2,Pin_2_2*%
%TO.N,GND*%
X174750000Y-55750000D03*
%TD*%
D17*
%TO.P,K4,1*%
%TO.N,Net-(J11-Pin_2)*%
X136500000Y-80150000D03*
D18*
%TO.P,K4,2*%
%TO.N,Relay_5v*%
X142550000Y-78200000D03*
D17*
%TO.P,K4,3*%
%TO.N,Net-(J11-Pin_1)*%
X142550000Y-66000000D03*
%TO.P,K4,4*%
%TO.N,Net-(J11-Pin_3)*%
X130500000Y-65950000D03*
D18*
%TO.P,K4,5*%
%TO.N,Relay8*%
X130550000Y-78200000D03*
%TD*%
D55*
%TO.P,U1,1,GND_1*%
%TO.N,GND*%
X210770000Y-74150000D03*
%TO.P,U1,2,VDD_2*%
%TO.N,+3.3V*%
X209500000Y-74150000D03*
%TO.P,U1,3,EN_3*%
%TO.N,EN*%
X208230000Y-74150000D03*
%TO.P,U1,4,SENSOR_VP_4*%
%TO.N,unconnected-(U1-SENSOR_VP-Pad4)*%
X206960000Y-74150000D03*
%TO.P,U1,5,SENSOR_VN_5*%
%TO.N,unconnected-(U1-SENSOR_VN-Pad5)*%
X205690000Y-74150000D03*
%TO.P,U1,6,IO34_6*%
%TO.N,Switch_1*%
X204420000Y-74150000D03*
%TO.P,U1,7,IO35_7*%
%TO.N,Net-(U1-IO35)*%
X203150000Y-74150000D03*
%TO.P,U1,8,IO32_8*%
%TO.N,R3_GPIO*%
X201880000Y-74150000D03*
%TO.P,U1,9,IO33_9*%
%TO.N,R4_GPIO*%
X200610000Y-74150000D03*
%TO.P,U1,10,IO25_10*%
%TO.N,R8_GPIO*%
X199340000Y-74150000D03*
%TO.P,U1,11,IO26_11*%
%TO.N,BUZZER*%
X198070000Y-74150000D03*
%TO.P,U1,12,IO27_12*%
%TO.N,Status_led*%
X196800000Y-74150000D03*
%TO.P,U1,13,IO14_13*%
%TO.N,R2_GPIO*%
X195530000Y-74150000D03*
%TO.P,U1,14,IO12_14*%
%TO.N,unconnected-(U1-IO12-Pad14)*%
X194260000Y-74150000D03*
D56*
%TO.P,U1,15,GND_15*%
%TO.N,GND*%
X193010000Y-77190000D03*
%TO.P,U1,16,IO13_16*%
%TO.N,R1_GPIO*%
X193010000Y-78460000D03*
%TO.P,U1,17,SHD/SD2_17*%
%TO.N,unconnected-(U1-SHD{slash}SD2-Pad17)*%
X193010000Y-79730000D03*
%TO.P,U1,18,SWP/SD3_18*%
%TO.N,unconnected-(U1-SWP{slash}SD3-Pad18)*%
X193010000Y-81000000D03*
%TO.P,U1,19,SCS/CMD_19*%
%TO.N,unconnected-(U1-SCS{slash}CMD-Pad19)*%
X193010000Y-82270000D03*
%TO.P,U1,20,SCK/CLK_20*%
%TO.N,unconnected-(U1-SCK{slash}CLK-Pad20)*%
X193010000Y-83540000D03*
%TO.P,U1,21,SDO/SD0_21*%
%TO.N,unconnected-(U1-SDO{slash}SD0-Pad21)*%
X193010000Y-84810000D03*
%TO.P,U1,22,SDI/SD1_22*%
%TO.N,unconnected-(U1-SDI{slash}SD1-Pad22)*%
X193010000Y-86080000D03*
%TO.P,U1,23,IO15_23*%
%TO.N,unconnected-(U1-IO15-Pad23)*%
X193010000Y-87350000D03*
%TO.P,U1,24,IO2_24*%
%TO.N,Direction*%
X193010000Y-88620000D03*
D55*
%TO.P,U1,25,IO0_25*%
%TO.N,IO0*%
X194260000Y-91650000D03*
%TO.P,U1,26,IO4_26*%
%TO.N,unconnected-(U1-IO4-Pad26)*%
X195530000Y-91650000D03*
%TO.P,U1,27,IO16_27*%
%TO.N,RX1*%
X196800000Y-91650000D03*
%TO.P,U1,28,IO17_28*%
%TO.N,TX1*%
X198070000Y-91650000D03*
%TO.P,U1,29,IO5_29*%
%TO.N,unconnected-(U1-IO5-Pad29)*%
X199340000Y-91650000D03*
%TO.P,U1,30,IO18_30*%
%TO.N,R5_GPIO*%
X200610000Y-91650000D03*
%TO.P,U1,31,IO19_31*%
%TO.N,R6_GPIO*%
X201880000Y-91650000D03*
%TO.P,U1,32,NC_32*%
%TO.N,unconnected-(U1-NC-Pad32)*%
X203150000Y-91650000D03*
%TO.P,U1,33,IO21_33*%
%TO.N,SDA*%
X204420000Y-91650000D03*
%TO.P,U1,34,RXD0/IO3_34*%
%TO.N,RX*%
X205690000Y-91650000D03*
%TO.P,U1,35,TXD0/IO1_35*%
%TO.N,TX*%
X206960000Y-91650000D03*
%TO.P,U1,36,IO22_36*%
%TO.N,SCL*%
X208230000Y-91650000D03*
%TO.P,U1,37,IO23_37*%
%TO.N,R7_GPIO*%
X209500000Y-91650000D03*
%TO.P,U1,38,GND_38*%
%TO.N,GND*%
X210770000Y-91650000D03*
D57*
%TO.P,U1,39,GND_39*%
X204450000Y-80000000D03*
D58*
X203750000Y-80000000D03*
D57*
X203050000Y-80000000D03*
D58*
X202350000Y-80000000D03*
D57*
X201650000Y-80000000D03*
D58*
X204450000Y-80700000D03*
X203050000Y-80700000D03*
X201650000Y-80700000D03*
X203750000Y-81375000D03*
X202350000Y-81375000D03*
D57*
X204450000Y-81400000D03*
X203050000Y-81400000D03*
D59*
X203050000Y-81400000D03*
D57*
X201650000Y-81400000D03*
D58*
X204450000Y-82100000D03*
X203050000Y-82100000D03*
X201650000Y-82100000D03*
D57*
X204450000Y-82800000D03*
D58*
X203750000Y-82800000D03*
D57*
X203050000Y-82800000D03*
D58*
X202350000Y-82800000D03*
D57*
X201650000Y-82800000D03*
%TD*%
D44*
%TO.P,D8,1,K_1*%
%TO.N,Switch_1*%
X175775000Y-61000000D03*
%TO.P,D8,2,A_2*%
%TO.N,GND*%
X177175000Y-61000000D03*
%TD*%
D60*
%TO.N,GND*%
X194701191Y-114249256D03*
X205750000Y-116500000D03*
X164000000Y-86250000D03*
X174500000Y-63500000D03*
D61*
X189750000Y-104500000D03*
D60*
X172048809Y-86000744D03*
X177250000Y-92500000D03*
X201500000Y-69000000D03*
X199400000Y-63600000D03*
X174750000Y-68000000D03*
X197000000Y-69500000D03*
X197750000Y-112250000D03*
X194300000Y-63100000D03*
X174250000Y-81000000D03*
X194000000Y-76250000D03*
D61*
X210250000Y-93000000D03*
D60*
X207400000Y-55000000D03*
X192300000Y-109500000D03*
X164125000Y-89375000D03*
D61*
X189250000Y-98750000D03*
D60*
X166000000Y-81950000D03*
D61*
X191250000Y-74750000D03*
D60*
X172350000Y-81300000D03*
D62*
X178500000Y-75750000D03*
D60*
X169500000Y-74000000D03*
X165500000Y-98750000D03*
X207125000Y-51300000D03*
D62*
X172500000Y-60000000D03*
X176500000Y-59750000D03*
X180750000Y-74750000D03*
D61*
%TO.N,+3.3V*%
X188000000Y-94250000D03*
D60*
X175750000Y-76400000D03*
X199387500Y-52287500D03*
D61*
X193050000Y-94236091D03*
D60*
X179500000Y-71000000D03*
X203600000Y-51300000D03*
D61*
X193000000Y-96250000D03*
X196550000Y-104250000D03*
X193750000Y-101500000D03*
%TO.N,EN*%
X206000000Y-71500000D03*
X207250000Y-72950000D03*
D60*
%TO.N,RX*%
X205750000Y-93500000D03*
X200750000Y-111000000D03*
%TO.N,TX*%
X198000000Y-110250000D03*
X207000000Y-93500000D03*
%TO.N,D-*%
X194707870Y-115253134D03*
X202100000Y-108608141D03*
%TO.N,Relay_5v*%
X174750000Y-78300000D03*
D61*
X177500000Y-78250000D03*
D60*
X167250000Y-74200000D03*
X164050000Y-72050000D03*
%TO.N,Relay5*%
X178080000Y-83080000D03*
D61*
%TO.N,Net-(J5-CC1)*%
X205598530Y-110348530D03*
X204640000Y-109390000D03*
D60*
%TO.N,Net-(D6-A2)*%
X202600000Y-54600000D03*
X205316409Y-52916409D03*
D61*
%TO.N,BUZZER*%
X196250000Y-76500000D03*
X186500000Y-76500000D03*
D60*
%TO.N,RX1*%
X200650000Y-59850000D03*
X208900000Y-76150000D03*
%TO.N,Direction*%
X201000000Y-61000000D03*
X200986091Y-78236091D03*
%TO.N,TX1*%
X209450000Y-68450000D03*
X209647412Y-76212284D03*
%TO.N,Relay7*%
X178040000Y-80540000D03*
D61*
%TO.N,Status_led*%
X198750000Y-71500000D03*
X197250000Y-73000000D03*
D60*
%TO.N,Net-(U1-IO35)*%
X189750000Y-93050000D03*
X202900000Y-75600000D03*
D61*
%TO.N,Switch_1*%
X204000000Y-73000000D03*
D60*
X178500000Y-62000000D03*
X180080331Y-62830331D03*
X190250000Y-64750000D03*
%TO.N,Relay3*%
X178000000Y-85500000D03*
%TO.N,Relay6*%
X181000000Y-81750000D03*
%TO.N,R3_GPIO*%
X195200000Y-84300000D03*
D61*
X190500000Y-85500000D03*
D60*
%TO.N,R4_GPIO*%
X194500000Y-83700000D03*
D61*
X190500000Y-84250000D03*
%TO.N,R5_GPIO*%
X190500000Y-83000000D03*
X200250000Y-90500000D03*
%TO.N,R6_GPIO*%
X201500000Y-90500000D03*
X190500000Y-81750000D03*
%TO.N,R7_GPIO*%
X190500000Y-80500000D03*
X209000000Y-90500000D03*
%TO.N,R8_GPIO*%
X190500000Y-79250000D03*
X194250000Y-79250000D03*
D60*
%TO.N,Relay8*%
X178020000Y-79270000D03*
%TO.N,Relay4*%
X178000000Y-84250000D03*
%TO.N,Relay2*%
X178000000Y-86750000D03*
%TO.N,Relay1*%
X181750000Y-87750000D03*
%TD*%
%TO.N,GND*%
D63*
X164125000Y-89375000D02*
X165050000Y-88450000D01*
X175550000Y-65500000D02*
X175550000Y-63550000D01*
D64*
X190900000Y-75100000D02*
X191250000Y-74750000D01*
X203820000Y-104940000D02*
X203820000Y-104395000D01*
D63*
X167550000Y-84300000D02*
X168612500Y-84300000D01*
X165050000Y-88000000D02*
X165050000Y-86425000D01*
D64*
X201500000Y-103175000D02*
X201660000Y-103175000D01*
X201660000Y-103175000D02*
X203425000Y-104940000D01*
D63*
X177500000Y-74750000D02*
X178500000Y-75750000D01*
D64*
X192500000Y-109750000D02*
X192250000Y-109500000D01*
X201500000Y-103175000D02*
X201500000Y-101750000D01*
X172048809Y-86000744D02*
X172048809Y-81601191D01*
X203000000Y-66500000D02*
X209500000Y-66500000D01*
X172750000Y-86425000D02*
X173062352Y-86425000D01*
D63*
X179070000Y-74075000D02*
X177795000Y-72800000D01*
X166000000Y-82750000D02*
X167550000Y-84300000D01*
D64*
X207025000Y-113225000D02*
X207790000Y-112460000D01*
D63*
X172950000Y-61000000D02*
X172950000Y-60450000D01*
X165050000Y-88450000D02*
X165050000Y-88000000D01*
X180250000Y-110500000D02*
X180000000Y-110750000D01*
D65*
X174000000Y-111250000D02*
X179500000Y-111250000D01*
D64*
X193775000Y-63625000D02*
X194300000Y-63100000D01*
X172048809Y-81601191D02*
X172350000Y-81300000D01*
X206250000Y-54325000D02*
X206725000Y-54325000D01*
X195500000Y-115000000D02*
X194749256Y-114249256D01*
X172473065Y-86425000D02*
X172048809Y-86000744D01*
X202250000Y-70250000D02*
X202250000Y-69750000D01*
X193060000Y-77190000D02*
X194000000Y-76250000D01*
X203820000Y-112070000D02*
X203820000Y-111340000D01*
X192250000Y-109500000D02*
X192300000Y-109500000D01*
X205975000Y-51000000D02*
X206825000Y-51000000D01*
X210770000Y-92480000D02*
X210250000Y-93000000D01*
D63*
X179500000Y-74075000D02*
X179070000Y-74075000D01*
D64*
X209500000Y-66500000D02*
X207260000Y-68740000D01*
D63*
X189250000Y-103275000D02*
X189250000Y-104000000D01*
D64*
X198200000Y-69650000D02*
X197150000Y-69650000D01*
X204525000Y-116750000D02*
X205500000Y-116750000D01*
D63*
X174950000Y-81700000D02*
X174250000Y-81000000D01*
X177175000Y-61000000D02*
X177175000Y-60425000D01*
X179500000Y-74075000D02*
X180075000Y-74075000D01*
D64*
X201500000Y-101750000D02*
X202750000Y-100500000D01*
X189750000Y-97825000D02*
X189750000Y-98250000D01*
X207260000Y-68740000D02*
X206525000Y-68740000D01*
X195862500Y-115000000D02*
X195500000Y-115000000D01*
X176325000Y-92500000D02*
X177250000Y-92500000D01*
X198975000Y-63600000D02*
X199400000Y-63600000D01*
D63*
X189250000Y-104000000D02*
X189750000Y-104500000D01*
D64*
X194749256Y-114249256D02*
X194701191Y-114249256D01*
X199475000Y-112445000D02*
X197945000Y-112445000D01*
X203820000Y-104395000D02*
X204395000Y-103820000D01*
D63*
X177425000Y-100750000D02*
X179500000Y-100750000D01*
D64*
X202250000Y-69750000D02*
X201500000Y-69000000D01*
X170000000Y-73500000D02*
X169500000Y-74000000D01*
D63*
X179500000Y-111250000D02*
X180000000Y-110750000D01*
D64*
X174737352Y-84750000D02*
X174950000Y-84750000D01*
X207625000Y-56000000D02*
X207625000Y-55225000D01*
X172750000Y-86425000D02*
X172473065Y-86425000D01*
X207025000Y-115050000D02*
X207025000Y-113225000D01*
X207790000Y-112460000D02*
X208180000Y-112460000D01*
X198450000Y-63075000D02*
X198975000Y-63600000D01*
D63*
X177175000Y-60425000D02*
X176500000Y-59750000D01*
D64*
X190900000Y-76125000D02*
X190900000Y-75100000D01*
D65*
X164750000Y-100750000D02*
X164750000Y-99500000D01*
D64*
X206825000Y-51000000D02*
X207125000Y-51300000D01*
D63*
X176500000Y-59750000D02*
X176500000Y-57500000D01*
D64*
X204210000Y-112460000D02*
X203820000Y-112070000D01*
X205975000Y-51000000D02*
X205975000Y-51480000D01*
X205975000Y-51480000D02*
X204405000Y-53050000D01*
D63*
X179500000Y-100750000D02*
X180250000Y-101500000D01*
X173500000Y-65550000D02*
X175500000Y-65550000D01*
D64*
X210275000Y-70250000D02*
X210275000Y-72250000D01*
X206250000Y-116000000D02*
X205750000Y-116500000D01*
D63*
X164000000Y-86250000D02*
X165225000Y-86250000D01*
D64*
X170225000Y-73500000D02*
X170000000Y-73500000D01*
D65*
X164750000Y-99500000D02*
X165500000Y-98750000D01*
D63*
X176500000Y-57500000D02*
X174750000Y-55750000D01*
D64*
X210770000Y-91650000D02*
X210770000Y-92480000D01*
X206250000Y-115825000D02*
X207025000Y-115050000D01*
X205500000Y-116750000D02*
X205750000Y-116500000D01*
D63*
X175550000Y-63550000D02*
X175500000Y-63500000D01*
X165050000Y-86425000D02*
X165225000Y-86250000D01*
D64*
X206725000Y-54325000D02*
X207400000Y-55000000D01*
X174675000Y-94000000D02*
X174825000Y-94000000D01*
X174675000Y-91000000D02*
X174825000Y-91000000D01*
D63*
X174950000Y-82750000D02*
X174950000Y-81700000D01*
X180075000Y-74075000D02*
X180750000Y-74750000D01*
X172950000Y-60450000D02*
X172500000Y-60000000D01*
D64*
X174825000Y-94000000D02*
X176325000Y-92500000D01*
X208765000Y-68740000D02*
X210275000Y-70250000D01*
X207625000Y-55225000D02*
X207400000Y-55000000D01*
D63*
X175500000Y-65550000D02*
X175550000Y-65500000D01*
D64*
X174825000Y-91000000D02*
X176325000Y-92500000D01*
X189000000Y-78000000D02*
X190875000Y-76125000D01*
X174475000Y-69000000D02*
X174475000Y-68275000D01*
X210275000Y-72250000D02*
X210820000Y-72795000D01*
D63*
X174950000Y-82750000D02*
X174950000Y-84750000D01*
D64*
X197945000Y-112445000D02*
X197750000Y-112250000D01*
X189750000Y-98250000D02*
X189250000Y-98750000D01*
X193775000Y-64250000D02*
X193775000Y-63625000D01*
X202750000Y-100500000D02*
X209250000Y-100500000D01*
X175500000Y-63500000D02*
X174500000Y-63500000D01*
D65*
X180250000Y-101500000D02*
X180250000Y-110500000D01*
D63*
X166000000Y-81950000D02*
X166000000Y-82750000D01*
D64*
X206250000Y-115825000D02*
X206250000Y-116000000D01*
X190875000Y-76125000D02*
X190900000Y-76125000D01*
X204000000Y-103820000D02*
X208180000Y-103820000D01*
X197000000Y-69500000D02*
X197150000Y-69650000D01*
X174475000Y-68275000D02*
X174750000Y-68000000D01*
X192500000Y-110725000D02*
X192500000Y-109750000D01*
X175500000Y-65450000D02*
X175550000Y-65500000D01*
X204395000Y-112460000D02*
X204210000Y-112460000D01*
X206525000Y-68740000D02*
X208765000Y-68740000D01*
X210820000Y-72795000D02*
X210820000Y-74150000D01*
%TO.N,Net-(D2-A1)*%
D65*
X166250000Y-111250000D02*
X169000000Y-111250000D01*
X164750000Y-109750000D02*
X166250000Y-111250000D01*
X164750000Y-105050000D02*
X164750000Y-109750000D01*
X172540000Y-103000000D02*
X172540000Y-107710000D01*
X172540000Y-107710000D02*
X169000000Y-111250000D01*
%TO.N,+3.3V*%
D64*
X187250000Y-93500000D02*
X188000000Y-94250000D01*
X208725000Y-70250000D02*
X208725000Y-72250000D01*
X198680552Y-108635000D02*
X194870552Y-112445000D01*
D63*
X205986091Y-72263909D02*
X205972182Y-72250000D01*
D64*
X209550000Y-74150000D02*
X209550000Y-73075000D01*
X178570000Y-90930000D02*
X179000000Y-90500000D01*
D63*
X168750000Y-63225000D02*
X168750000Y-62150000D01*
X166675000Y-61150000D02*
X168750000Y-63225000D01*
X178350000Y-63500000D02*
X180850000Y-61000000D01*
X195850000Y-69600000D02*
X195850000Y-66984542D01*
D64*
X177450000Y-63550000D02*
X177400000Y-63500000D01*
X206485000Y-70250000D02*
X206900000Y-70250000D01*
X187250000Y-91750000D02*
X187250000Y-93500000D01*
X196550000Y-104250000D02*
X196550000Y-106684999D01*
D63*
X199387500Y-52287500D02*
X200675000Y-51000000D01*
D64*
X196550000Y-106684999D02*
X198500001Y-108635000D01*
X180750000Y-91750000D02*
X187250000Y-91750000D01*
X193911091Y-94236091D02*
X193925000Y-94250000D01*
D63*
X197850000Y-64043026D02*
X197850000Y-64984542D01*
X180750000Y-91750000D02*
X179500000Y-90500000D01*
X198775000Y-52900000D02*
X185850000Y-52900000D01*
D64*
X194525000Y-112445000D02*
X192670000Y-112445000D01*
D63*
X184300000Y-57550000D02*
X180850000Y-61000000D01*
X175900000Y-88314213D02*
X175900000Y-76550000D01*
X178475000Y-69225000D02*
X178475000Y-66525000D01*
D64*
X199475000Y-108635000D02*
X198680552Y-108635000D01*
D63*
X178085787Y-90500000D02*
X175900000Y-88314213D01*
D64*
X179500000Y-71000000D02*
X179500000Y-70250000D01*
D63*
X184300000Y-54450000D02*
X184300000Y-57550000D01*
D64*
X203900000Y-51000000D02*
X203600000Y-51300000D01*
D63*
X199387500Y-52287500D02*
X198775000Y-52900000D01*
X171025000Y-63225000D02*
X168750000Y-63225000D01*
X205972182Y-72250000D02*
X198500000Y-72250000D01*
D64*
X204425000Y-51000000D02*
X203900000Y-51000000D01*
D63*
X168750000Y-62150000D02*
X169900000Y-61000000D01*
D64*
X193050000Y-94236091D02*
X193911091Y-94236091D01*
D63*
X198500000Y-72250000D02*
X195850000Y-69600000D01*
X177400000Y-63500000D02*
X178350000Y-63500000D01*
D64*
X194525000Y-112445000D02*
X195319448Y-112445000D01*
D63*
X200675000Y-51000000D02*
X200675000Y-52970000D01*
X197850000Y-64984542D02*
X195850000Y-66984542D01*
D64*
X178570000Y-91500000D02*
X178570000Y-90930000D01*
D63*
X165200000Y-61150000D02*
X166675000Y-61150000D01*
X178475000Y-66525000D02*
X177450000Y-65500000D01*
D64*
X193000000Y-100750000D02*
X193750000Y-101500000D01*
X198500001Y-108635000D02*
X199475000Y-108635000D01*
D63*
X200675000Y-52970000D02*
X200595000Y-53050000D01*
X180850000Y-61000000D02*
X194806974Y-61000000D01*
X179000000Y-90500000D02*
X178085787Y-90500000D01*
X208725000Y-72250000D02*
X206000000Y-72250000D01*
X177400000Y-63500000D02*
X176150000Y-62250000D01*
D64*
X208725000Y-70250000D02*
X206900000Y-70250000D01*
D63*
X177450000Y-65500000D02*
X177450000Y-63550000D01*
X185850000Y-52900000D02*
X184300000Y-54450000D01*
D64*
X193000000Y-96250000D02*
X193000000Y-100750000D01*
D63*
X179500000Y-90500000D02*
X179000000Y-90500000D01*
D64*
X204975000Y-68740000D02*
X206485000Y-70250000D01*
D63*
X206000000Y-72250000D02*
X205986091Y-72263909D01*
D64*
X209550000Y-73075000D02*
X208725000Y-72250000D01*
X194870552Y-112445000D02*
X194525000Y-112445000D01*
X192670000Y-112445000D02*
X192500000Y-112275000D01*
X179500000Y-70250000D02*
X178475000Y-69225000D01*
D63*
X172000000Y-62250000D02*
X171025000Y-63225000D01*
X176150000Y-62250000D02*
X172000000Y-62250000D01*
X194806974Y-61000000D02*
X197850000Y-64043026D01*
X175900000Y-76550000D02*
X175750000Y-76400000D01*
%TO.N,Net-(D6-A1)*%
D64*
X209000000Y-55800000D02*
X206875000Y-53675000D01*
X206875000Y-53675000D02*
X205783062Y-53675000D01*
X202958062Y-56500000D02*
X205183062Y-54275000D01*
X203135000Y-51810000D02*
X202325000Y-51000000D01*
X199400000Y-60733453D02*
X199400000Y-61200000D01*
X205783062Y-53675000D02*
X205183062Y-54275000D01*
X199400000Y-57500000D02*
X200400000Y-56500000D01*
X203135000Y-53050000D02*
X203135000Y-51810000D01*
X199400000Y-61200000D02*
X199400000Y-57500000D01*
X203135000Y-53324842D02*
X203135000Y-53050000D01*
X188400000Y-54100000D02*
X192766547Y-54100000D01*
X186750000Y-55750000D02*
X188400000Y-54100000D01*
X200400000Y-56500000D02*
X202958062Y-56500000D01*
X204085158Y-54275000D02*
X203135000Y-53324842D01*
X205183062Y-54275000D02*
X204085158Y-54275000D01*
X209000000Y-56000000D02*
X209000000Y-55800000D01*
X192766547Y-54100000D02*
X199400000Y-60733453D01*
%TO.N,Net-(D1-K)*%
X195175000Y-64475000D02*
X193300000Y-66350000D01*
X192225000Y-64250000D02*
X192225000Y-65275000D01*
X195750000Y-64475000D02*
X195175000Y-64475000D01*
X192225000Y-65275000D02*
X193300000Y-66350000D01*
%TO.N,Net-(D15-DIN)*%
X200250000Y-67425000D02*
X200250000Y-66750000D01*
X200250000Y-66750000D02*
X199850000Y-66350000D01*
X199850000Y-66350000D02*
X198200000Y-66350000D01*
%TO.N,EN*%
X208230000Y-74150000D02*
X208230000Y-73200000D01*
X192500000Y-94500000D02*
X192500000Y-91500000D01*
X194000000Y-96000000D02*
X192500000Y-94500000D01*
X196750000Y-87250000D02*
X202000000Y-87250000D01*
X201750000Y-68200000D02*
X201750000Y-63250000D01*
X203000000Y-62000000D02*
X209500000Y-62000000D01*
X195500000Y-96000000D02*
X194000000Y-96000000D01*
X202000000Y-87250000D02*
X208280000Y-80970000D01*
X205250000Y-70250000D02*
X203800000Y-70250000D01*
X203800000Y-70250000D02*
X201750000Y-68200000D01*
X207980000Y-72950000D02*
X207250000Y-72950000D01*
X206000000Y-71500000D02*
X206000000Y-71000000D01*
X208280000Y-80970000D02*
X208280000Y-73720000D01*
X201750000Y-63250000D02*
X203000000Y-62000000D01*
X208230000Y-73200000D02*
X207980000Y-72950000D01*
X192500000Y-91500000D02*
X196750000Y-87250000D01*
X206000000Y-71000000D02*
X205250000Y-70250000D01*
%TO.N,Net-(J10-Pin_1)*%
D66*
X95450000Y-102450000D02*
X95450000Y-110950000D01*
X95450000Y-110950000D02*
X96500000Y-112000000D01*
%TO.N,Net-(J10-Pin_2)*%
X101500000Y-88300000D02*
X101500000Y-112000000D01*
%TO.N,Net-(J10-Pin_3)*%
X107500000Y-102500000D02*
X107500000Y-111000000D01*
X107500000Y-111000000D02*
X106500000Y-112000000D01*
%TO.N,Net-(J11-Pin_1)*%
X142550000Y-66000000D02*
X142550000Y-57250000D01*
X142550000Y-57250000D02*
X141500000Y-56200000D01*
%TO.N,Net-(J11-Pin_2)*%
X136500000Y-80150000D02*
X136500000Y-56200000D01*
%TO.N,Net-(J11-Pin_3)*%
X130500000Y-57200000D02*
X131500000Y-56200000D01*
X130500000Y-65950000D02*
X130500000Y-57200000D01*
%TO.N,RX*%
D64*
X200575000Y-111175000D02*
X200750000Y-111000000D01*
X205750000Y-93500000D02*
X205750000Y-91660000D01*
X205750000Y-91660000D02*
X205740000Y-91650000D01*
X199475000Y-111175000D02*
X200575000Y-111175000D01*
%TO.N,TX*%
X207000000Y-93500000D02*
X207000000Y-91660000D01*
X207000000Y-91660000D02*
X207010000Y-91650000D01*
X198345000Y-109905000D02*
X198000000Y-110250000D01*
X199475000Y-109905000D02*
X198345000Y-109905000D01*
%TO.N,D+*%
X204356698Y-107390000D02*
X204645000Y-107678302D01*
X196662500Y-113250000D02*
X195862500Y-114050000D01*
X199500000Y-107390000D02*
X199475000Y-107365000D01*
X198200000Y-107064999D02*
X198500001Y-107365000D01*
X200972182Y-113250000D02*
X196662500Y-113250000D01*
X204645000Y-108139999D02*
X204394999Y-108390000D01*
X198200000Y-105754448D02*
X198200000Y-107064999D01*
X200745000Y-105495000D02*
X198459448Y-105495000D01*
X204394999Y-108390000D02*
X203820000Y-108390000D01*
X200449999Y-107365000D02*
X201500000Y-108415001D01*
X203820000Y-107390000D02*
X204356698Y-107390000D01*
X198459448Y-105495000D02*
X198200000Y-105754448D01*
X203820000Y-107390000D02*
X202640000Y-107390000D01*
X202640000Y-107390000D02*
X200745000Y-105495000D01*
X201500000Y-108415001D02*
X201500000Y-112722182D01*
X201500000Y-112722182D02*
X200972182Y-113250000D01*
X204645000Y-107678302D02*
X204645000Y-108139999D01*
X198500001Y-107365000D02*
X199475000Y-107365000D01*
X199475000Y-107365000D02*
X200449999Y-107365000D01*
%TO.N,D-*%
X203820000Y-107890000D02*
X202817590Y-107890000D01*
X200487410Y-106095000D02*
X199475000Y-106095000D01*
X202817590Y-108890000D02*
X202550000Y-108622410D01*
X202550000Y-108622410D02*
X202550000Y-108157590D01*
X195862500Y-115950000D02*
X195450000Y-115950000D01*
X202100000Y-108607590D02*
X202550000Y-108157590D01*
X202550000Y-108157590D02*
X200487410Y-106095000D01*
X202100000Y-108608141D02*
X202100000Y-108607590D01*
X194750000Y-115250000D02*
X194746866Y-115253134D01*
X194746866Y-115253134D02*
X194707870Y-115253134D01*
X202817590Y-107890000D02*
X202550000Y-108157590D01*
X195450000Y-115950000D02*
X194750000Y-115250000D01*
X203820000Y-108890000D02*
X202817590Y-108890000D01*
%TO.N,DTR*%
X200750000Y-98425000D02*
X200200000Y-97875000D01*
X197750000Y-101500000D02*
X200250000Y-101500000D01*
X200250000Y-101500000D02*
X200750000Y-101000000D01*
X196000000Y-108134999D02*
X196000000Y-103250000D01*
X196000000Y-103250000D02*
X197750000Y-101500000D01*
X196325000Y-100325000D02*
X197500000Y-101500000D01*
X196325000Y-100000000D02*
X196325000Y-100325000D01*
X200750000Y-101000000D02*
X200750000Y-98425000D01*
X195499999Y-108635000D02*
X196000000Y-108134999D01*
X194525000Y-108635000D02*
X195499999Y-108635000D01*
X197500000Y-101500000D02*
X197750000Y-101500000D01*
%TO.N,RTS*%
X193000000Y-103250000D02*
X193000000Y-109354999D01*
X198175000Y-100000000D02*
X198175000Y-99600000D01*
X196450000Y-97875000D02*
X195500000Y-98825000D01*
X195500000Y-100750000D02*
X193000000Y-103250000D01*
X194525000Y-109905000D02*
X193550001Y-109905000D01*
X195500000Y-98825000D02*
X195500000Y-100750000D01*
X198175000Y-99600000D02*
X196450000Y-97875000D01*
X193550001Y-109905000D02*
X193000000Y-109354999D01*
%TO.N,Net-(J8-Pin_2)*%
D66*
X154300000Y-111700000D02*
X154250000Y-111750000D01*
X154250000Y-88300000D02*
X154250000Y-111750000D01*
%TO.N,Relay_5v*%
D63*
X174250000Y-86425000D02*
X175175000Y-87350000D01*
X108750000Y-84000000D02*
X107450000Y-82700000D01*
X143700000Y-84000000D02*
X143700000Y-83850000D01*
X108750000Y-84000000D02*
X120450000Y-84000000D01*
D64*
X195300000Y-70900000D02*
X195300000Y-66325000D01*
D63*
X195200000Y-66425000D02*
X197150000Y-64475000D01*
X95500000Y-86500000D02*
X95500000Y-90200000D01*
X169750000Y-78250000D02*
X167250000Y-75750000D01*
X195200000Y-70800000D02*
X195200000Y-69450000D01*
X175175000Y-87350000D02*
X175175000Y-88549780D01*
X189650000Y-65500000D02*
X184450000Y-65500000D01*
X171525000Y-78250000D02*
X169750000Y-78250000D01*
D64*
X172680000Y-92500000D02*
X172680000Y-91044780D01*
D63*
X108750000Y-84000000D02*
X113100000Y-88350000D01*
X164000000Y-72100000D02*
X163400000Y-72100000D01*
X130700000Y-90250000D02*
X124450000Y-84000000D01*
X143700000Y-84000000D02*
X148200000Y-88500000D01*
D64*
X172680000Y-91044780D02*
X174799780Y-88925000D01*
D63*
X148200000Y-88500000D02*
X148200000Y-90250000D01*
X181950000Y-75750000D02*
X181950000Y-68000000D01*
X128350000Y-84000000D02*
X128350000Y-81500000D01*
X174799780Y-88925000D02*
X170175000Y-88925000D01*
X162250000Y-81700000D02*
X160000000Y-79450000D01*
X142550000Y-82700000D02*
X142550000Y-78200000D01*
X120450000Y-84000000D02*
X124450000Y-84000000D01*
X162250000Y-81750000D02*
X162250000Y-83000000D01*
X195200000Y-69450000D02*
X195200000Y-66425000D01*
X179700000Y-78000000D02*
X181950000Y-75750000D01*
X184450000Y-65500000D02*
X181950000Y-68000000D01*
X170175000Y-88925000D02*
X169750000Y-88500000D01*
X195200000Y-70800000D02*
X194520000Y-71480000D01*
X138050000Y-84000000D02*
X143700000Y-84000000D01*
X108750000Y-84000000D02*
X98000000Y-84000000D01*
X107450000Y-82700000D02*
X107450000Y-78200000D01*
X173050000Y-84750000D02*
X173050000Y-82750000D01*
X124450000Y-84000000D02*
X126250000Y-84000000D01*
X194250000Y-68500000D02*
X192650000Y-68500000D01*
X128350000Y-84000000D02*
X138050000Y-84000000D01*
X98000000Y-84000000D02*
X95500000Y-86500000D01*
X128350000Y-81500000D02*
X125000000Y-78150000D01*
X179450000Y-78250000D02*
X179700000Y-78000000D01*
X163400000Y-72100000D02*
X162250000Y-73250000D01*
X173050000Y-82750000D02*
X173050000Y-79775000D01*
X162250000Y-81750000D02*
X162250000Y-81700000D01*
X95500000Y-90200000D02*
X95450000Y-90250000D01*
X173050000Y-84750000D02*
X173050000Y-85225000D01*
X113100000Y-88350000D02*
X113100000Y-90200000D01*
X162250000Y-83000000D02*
X161250000Y-84000000D01*
X143700000Y-83850000D02*
X142550000Y-82700000D01*
X171575000Y-78300000D02*
X171525000Y-78250000D01*
X161250000Y-84000000D02*
X143700000Y-84000000D01*
X167250000Y-75750000D02*
X167250000Y-74200000D01*
X192650000Y-68500000D02*
X189650000Y-65500000D01*
X195200000Y-69450000D02*
X194250000Y-68500000D01*
X174750000Y-78300000D02*
X171575000Y-78300000D01*
X175175000Y-88549780D02*
X174799780Y-88925000D01*
X177500000Y-78250000D02*
X179450000Y-78250000D01*
X194520000Y-71480000D02*
X194520000Y-71725000D01*
D64*
X195300000Y-66325000D02*
X197150000Y-64475000D01*
D63*
X173050000Y-79775000D02*
X171525000Y-78250000D01*
X126250000Y-84000000D02*
X128350000Y-84000000D01*
X173050000Y-85225000D02*
X174250000Y-86425000D01*
X162250000Y-73250000D02*
X162250000Y-81750000D01*
X164050000Y-72050000D02*
X164000000Y-72100000D01*
%TO.N,Net-(J8-Pin_1)*%
D66*
X148200000Y-110700000D02*
X149250000Y-111750000D01*
X148200000Y-102450000D02*
X148200000Y-110700000D01*
%TO.N,Net-(J8-Pin_3)*%
X160300000Y-110700000D02*
X159250000Y-111750000D01*
X160250000Y-102500000D02*
X160250000Y-110750000D01*
X160250000Y-110750000D02*
X159250000Y-111750000D01*
%TO.N,Relay5*%
D64*
X178000000Y-83000000D02*
X178080000Y-83080000D01*
X179700000Y-83080000D02*
X178080000Y-83080000D01*
%TO.N,Net-(U2-SW)*%
D63*
X169225000Y-82750000D02*
X169225000Y-82000000D01*
X169177684Y-85250000D02*
X168612500Y-85250000D01*
X169725000Y-83250000D02*
X169725000Y-84702684D01*
X169725000Y-84702684D02*
X169177684Y-85250000D01*
X169225000Y-82000000D02*
X165475000Y-78250000D01*
X169225000Y-82750000D02*
X169725000Y-83250000D01*
%TO.N,+12V Protected*%
D65*
X162800000Y-85100000D02*
X163300000Y-84600000D01*
X177250000Y-96000000D02*
X169500000Y-96000000D01*
X163850000Y-93250000D02*
X162800000Y-92200000D01*
X181000000Y-99750000D02*
X183900000Y-99750000D01*
X163300000Y-84600000D02*
X163300000Y-75427208D01*
X162800000Y-92200000D02*
X162800000Y-85100000D01*
D63*
X166775000Y-87825000D02*
X166950000Y-88000000D01*
D65*
X188400000Y-110750000D02*
X185650000Y-108000000D01*
X181750000Y-54650000D02*
X179550000Y-52450000D01*
X163250000Y-56200000D02*
X163250000Y-68000000D01*
X163300000Y-75427208D02*
X166977208Y-71750000D01*
X166750000Y-87950000D02*
X166750000Y-93250000D01*
D64*
X178570000Y-93500000D02*
X178570000Y-95680000D01*
D63*
X169372316Y-86200000D02*
X170322316Y-85250000D01*
D65*
X166950000Y-87750000D02*
X166750000Y-87950000D01*
D67*
X166775000Y-86250000D02*
X166775000Y-87825000D01*
D63*
X189025000Y-101500000D02*
X189250000Y-101725000D01*
D65*
X179550000Y-52450000D02*
X167000000Y-52450000D01*
D63*
X185650000Y-101500000D02*
X189025000Y-101500000D01*
D65*
X185650000Y-108000000D02*
X185650000Y-101500000D01*
X166977208Y-71750000D02*
X167000000Y-71750000D01*
X177875000Y-96625000D02*
X177250000Y-96000000D01*
D63*
X166825000Y-86200000D02*
X166775000Y-86250000D01*
X170322316Y-85250000D02*
X170887500Y-85250000D01*
D65*
X163250000Y-68000000D02*
X167000000Y-71750000D01*
X183900000Y-99750000D02*
X185650000Y-101500000D01*
X167000000Y-52450000D02*
X163250000Y-56200000D01*
D63*
X168612500Y-86200000D02*
X166825000Y-86200000D01*
D65*
X169900000Y-71750000D02*
X167000000Y-71750000D01*
D63*
X168612500Y-86200000D02*
X169372316Y-86200000D01*
D65*
X166750000Y-93250000D02*
X163850000Y-93250000D01*
X169500000Y-96000000D02*
X166750000Y-93250000D01*
D64*
X178570000Y-95680000D02*
X177750000Y-96500000D01*
D65*
X181750000Y-55750000D02*
X181750000Y-54650000D01*
X177875000Y-96625000D02*
X181000000Y-99750000D01*
D63*
X177750000Y-96500000D02*
X177875000Y-96625000D01*
%TO.N,USB_5V*%
D68*
X195000000Y-116750000D02*
X201000000Y-116750000D01*
X202050000Y-115700000D02*
X202050000Y-113250000D01*
D64*
X204000000Y-115000000D02*
X202750000Y-115000000D01*
D69*
X205500000Y-106962590D02*
X204277410Y-105740000D01*
D68*
X188750000Y-89750000D02*
X191250000Y-92250000D01*
X191250000Y-92250000D02*
X191250000Y-113000000D01*
D69*
X205500000Y-109317410D02*
X205500000Y-106962590D01*
D68*
X203425000Y-110540000D02*
X202460000Y-110540000D01*
D69*
X203820000Y-110540000D02*
X204277410Y-110540000D01*
X204277410Y-110540000D02*
X205500000Y-109317410D01*
D68*
X202050000Y-110950000D02*
X202050000Y-113250000D01*
X178500000Y-89750000D02*
X188750000Y-89750000D01*
X175850000Y-74750000D02*
X176750000Y-75650000D01*
D63*
X198137500Y-115000000D02*
X200300000Y-115000000D01*
D69*
X203425000Y-105740000D02*
X203964695Y-105740000D01*
D64*
X202975000Y-116750000D02*
X201000000Y-116750000D01*
D63*
X200300000Y-115000000D02*
X202050000Y-113250000D01*
D69*
X203820000Y-110540000D02*
X203425000Y-110540000D01*
D68*
X176750000Y-75650000D02*
X176750000Y-88000000D01*
X175850000Y-74750000D02*
X174150000Y-74750000D01*
X201000000Y-116750000D02*
X202050000Y-115700000D01*
D64*
X202750000Y-115000000D02*
X202250000Y-115500000D01*
D69*
X204277410Y-105740000D02*
X203820000Y-105740000D01*
D68*
X176750000Y-88000000D02*
X178500000Y-89750000D01*
X191250000Y-113000000D02*
X195000000Y-116750000D01*
X202460000Y-110540000D02*
X202050000Y-110950000D01*
X174150000Y-74750000D02*
X173750000Y-74350000D01*
D69*
X203960000Y-110540000D02*
X203425000Y-110540000D01*
%TO.N,Net-(J5-CC1)*%
D64*
X204640000Y-109390000D02*
X203820000Y-109390000D01*
X203425000Y-109390000D02*
X204261470Y-109390000D01*
X206250000Y-111000000D02*
X205598530Y-110348530D01*
X206250000Y-114175000D02*
X206250000Y-111000000D01*
%TO.N,Net-(J5-CC2)*%
X201500000Y-105225000D02*
X202665000Y-106390000D01*
X202665000Y-106390000D02*
X203820000Y-106390000D01*
X201500000Y-104825000D02*
X201500000Y-105225000D01*
%TO.N,Net-(Q5-B)*%
X189000000Y-76125000D02*
X188025000Y-76125000D01*
X188025000Y-76125000D02*
X187400000Y-75500000D01*
%TO.N,Net-(Buzzer1--)*%
X193100000Y-72000000D02*
X193100000Y-71550000D01*
D63*
X189950000Y-74250000D02*
X192475000Y-71725000D01*
X192475000Y-71725000D02*
X193120000Y-71725000D01*
D64*
X193120000Y-71725000D02*
X193120000Y-71570000D01*
D63*
X193120000Y-71570000D02*
X189550000Y-68000000D01*
%TO.N,Net-(D5-K)*%
D65*
X174062500Y-98250000D02*
X172325000Y-98250000D01*
X170000000Y-103000000D02*
X170000000Y-100575000D01*
X172325000Y-98250000D02*
X170000000Y-100575000D01*
X170000000Y-100575000D02*
X165275000Y-95850000D01*
%TO.N,Net-(JP1-A)*%
D64*
X210650000Y-58920635D02*
X209970635Y-59600000D01*
X210650000Y-56000000D02*
X210650000Y-58920635D01*
X209970635Y-59600000D02*
X208075000Y-59600000D01*
X208075000Y-59600000D02*
X206975000Y-58500000D01*
X207550000Y-57925000D02*
X206975000Y-58500000D01*
%TO.N,Net-(D6-A2)*%
X201865000Y-53050000D02*
X201865000Y-53865000D01*
X209650000Y-55533062D02*
X209650000Y-58365000D01*
X197200001Y-61200000D02*
X197500000Y-61200000D01*
X206250000Y-52675000D02*
X206791938Y-52675000D01*
X201865000Y-53050000D02*
X201865000Y-54024999D01*
X191750000Y-55750000D02*
X197200001Y-61200000D01*
X205300000Y-52900000D02*
X205316409Y-52916409D01*
X205525000Y-52675000D02*
X205300000Y-52900000D01*
X206250000Y-52675000D02*
X205525000Y-52675000D01*
X201865000Y-53865000D02*
X202600000Y-54600000D01*
X206250000Y-52749842D02*
X206250000Y-52675000D01*
X209650000Y-58365000D02*
X209515000Y-58500000D01*
X206791938Y-52675000D02*
X209650000Y-55533062D01*
%TO.N,Net-(U3-SW)*%
D63*
X175071878Y-67300000D02*
X174271878Y-66500000D01*
X171525000Y-66500000D02*
X168750000Y-69275000D01*
X174475000Y-69950000D02*
X175137499Y-69950000D01*
X174271878Y-66500000D02*
X171525000Y-66500000D01*
X175587500Y-69499999D02*
X175587500Y-67662500D01*
X175137499Y-69950000D02*
X175587500Y-69499999D01*
X175587500Y-67662500D02*
X175950000Y-67300000D01*
X175950000Y-67300000D02*
X175071878Y-67300000D01*
%TO.N,Net-(Q3-B)*%
D64*
X194550000Y-97875000D02*
X194550000Y-99875000D01*
X194550000Y-99875000D02*
X194675000Y-100000000D01*
%TO.N,BUZZER*%
X185750000Y-75500000D02*
X185750000Y-75750000D01*
X185750000Y-75750000D02*
X186500000Y-76500000D01*
X198070000Y-74150000D02*
X198070000Y-74680000D01*
X198070000Y-74680000D02*
X196250000Y-76500000D01*
%TO.N,Net-(D9-K)*%
X173320000Y-92500000D02*
X174675000Y-92500000D01*
%TO.N,Net-(J9-Pin_1)*%
D66*
X125000000Y-57450000D02*
X125000000Y-65950000D01*
X125000000Y-57450000D02*
X123750000Y-56200000D01*
%TO.N,Net-(J9-Pin_2)*%
X118950000Y-80100000D02*
X118950000Y-56400000D01*
X118950000Y-56400000D02*
X118750000Y-56200000D01*
%TO.N,Net-(J9-Pin_3)*%
X112950000Y-57000000D02*
X113750000Y-56200000D01*
X112950000Y-57000000D02*
X112950000Y-65900000D01*
%TO.N,RX1*%
D64*
X200595000Y-59795000D02*
X200650000Y-59850000D01*
X208900000Y-81050000D02*
X202350000Y-87600000D01*
X199700000Y-87600000D02*
X196800000Y-90500000D01*
X208900000Y-76150000D02*
X208900000Y-81050000D01*
X200595000Y-58000000D02*
X200595000Y-59795000D01*
X202350000Y-87600000D02*
X199700000Y-87600000D01*
X196800000Y-90500000D02*
X196800000Y-91650000D01*
%TO.N,Direction*%
X201865000Y-60135000D02*
X201000000Y-61000000D01*
X196000000Y-83222182D02*
X196000000Y-86250000D01*
X200986091Y-78236091D02*
X196000000Y-83222182D01*
X196000000Y-86250000D02*
X193630000Y-88620000D01*
X201865000Y-58000000D02*
X201865000Y-60135000D01*
X204160001Y-56000000D02*
X203135000Y-57025001D01*
X201865000Y-58000000D02*
X203135000Y-58000000D01*
X193630000Y-88620000D02*
X193010000Y-88620000D01*
X205975000Y-56000000D02*
X204160001Y-56000000D01*
X203135000Y-57025001D02*
X203135000Y-58000000D01*
%TO.N,TX1*%
X207155000Y-60750000D02*
X210017767Y-60750000D01*
X209641305Y-76212284D02*
X209629021Y-76200000D01*
X210017767Y-60750000D02*
X210750000Y-61482233D01*
X198120000Y-91120000D02*
X198120000Y-91650000D01*
X202650000Y-87950000D02*
X199950000Y-87950000D01*
X209650000Y-76200000D02*
X209650000Y-80950000D01*
X210750000Y-67150000D02*
X209450000Y-68450000D01*
X209650000Y-80950000D02*
X202650000Y-87950000D01*
X199950000Y-87950000D02*
X198070000Y-89830000D01*
X204405000Y-58000000D02*
X207155000Y-60750000D01*
X210750000Y-61482233D02*
X210750000Y-67150000D01*
X209629021Y-76200000D02*
X209650000Y-76200000D01*
X209647412Y-76212284D02*
X209641305Y-76212284D01*
X198070000Y-89830000D02*
X198070000Y-91650000D01*
%TO.N,Net-(D3-K)*%
D63*
X172000000Y-71750000D02*
X173300001Y-70449999D01*
X173750000Y-72250000D02*
X173750000Y-71625000D01*
X174475000Y-70900000D02*
X175177449Y-70900000D01*
X175895000Y-72800000D02*
X175895000Y-72320000D01*
X173812501Y-70900000D02*
X174475000Y-70900000D01*
X176127449Y-69950000D02*
X176750000Y-69950000D01*
X171775000Y-71975000D02*
X172000000Y-71750000D01*
X173750000Y-71625000D02*
X174475000Y-70900000D01*
X173300001Y-70449999D02*
X173362500Y-70449999D01*
X175895000Y-72320000D02*
X174475000Y-70900000D01*
D64*
X176750000Y-69950000D02*
X176387500Y-69950000D01*
D63*
X175177449Y-70900000D02*
X176127449Y-69950000D01*
X173362500Y-70449999D02*
X173812501Y-70900000D01*
X173500000Y-67450000D02*
X173362500Y-67587500D01*
X173362500Y-67587500D02*
X173362500Y-70449999D01*
D64*
X176396948Y-69950000D02*
X176750000Y-69950000D01*
D63*
X171775000Y-73500000D02*
X171775000Y-71975000D01*
%TO.N,IO0*%
D64*
X195575000Y-94250000D02*
X195575000Y-93825000D01*
X200000000Y-93250000D02*
X196500000Y-93250000D01*
X195575000Y-93825000D02*
X195000000Y-93250000D01*
X199250000Y-96000000D02*
X196500000Y-93250000D01*
X194310000Y-92560000D02*
X194310000Y-91650000D01*
X195000000Y-93250000D02*
X194310000Y-92560000D01*
X202750000Y-96000000D02*
X200000000Y-93250000D01*
X202750000Y-96000000D02*
X209250000Y-96000000D01*
X196500000Y-93250000D02*
X195000000Y-93250000D01*
%TO.N,Net-(U3-FB)*%
D63*
X178475000Y-70875000D02*
X176775000Y-70875000D01*
X176775000Y-70875000D02*
X176750000Y-70900000D01*
X178475000Y-71400000D02*
X179500000Y-72425000D01*
X178475000Y-70875000D02*
X178475000Y-71400000D01*
%TO.N,Relay7*%
D64*
X179700000Y-80540000D02*
X178040000Y-80540000D01*
X178000000Y-80500000D02*
X178040000Y-80540000D01*
%TO.N,Net-(Q2-B)*%
X199825000Y-99400000D02*
X199825000Y-100000000D01*
X198300000Y-97875000D02*
X199825000Y-99400000D01*
%TO.N,Net-(J2-Pin_1)*%
D66*
X160000000Y-57450000D02*
X158700000Y-56150000D01*
X159950000Y-57400000D02*
X158700000Y-56150000D01*
X159950000Y-66050000D02*
X159950000Y-57400000D01*
%TO.N,Net-(J2-Pin_2)*%
X153950000Y-56400000D02*
X153700000Y-56150000D01*
X153900000Y-56350000D02*
X153700000Y-56150000D01*
X153900000Y-80200000D02*
X153900000Y-56350000D01*
%TO.N,Net-(J2-Pin_3)*%
X147900000Y-66000000D02*
X147900000Y-56950000D01*
X147900000Y-56950000D02*
X148700000Y-56150000D01*
%TO.N,Status_led*%
D64*
X196850000Y-73650000D02*
X196850000Y-74150000D01*
X196800000Y-73450000D02*
X197250000Y-73000000D01*
X200250000Y-70000000D02*
X200250000Y-69075000D01*
X198750000Y-71500000D02*
X200250000Y-70000000D01*
X196800000Y-74150000D02*
X196800000Y-73450000D01*
%TO.N,Net-(J4-Pin_1)*%
D66*
X130700000Y-110750000D02*
X131750000Y-111800000D01*
X130700000Y-102450000D02*
X130700000Y-110750000D01*
%TO.N,Net-(J4-Pin_2)*%
X136750000Y-88300000D02*
X136750000Y-111800000D01*
X136800000Y-111750000D02*
X136750000Y-111800000D01*
%TO.N,Net-(J4-Pin_3)*%
X142750000Y-102500000D02*
X142750000Y-110800000D01*
X142750000Y-110800000D02*
X141750000Y-111800000D01*
X142800000Y-110750000D02*
X141750000Y-111800000D01*
%TO.N,Net-(D7-K)*%
D64*
X177930000Y-91180000D02*
X177750000Y-91000000D01*
X177750000Y-91000000D02*
X176325000Y-91000000D01*
X177930000Y-91500000D02*
X177930000Y-91180000D01*
%TO.N,Net-(U2-FB)*%
D63*
X170887500Y-86212500D02*
X172750000Y-88075000D01*
X170887500Y-86200000D02*
X170887500Y-86212500D01*
X172750000Y-88075000D02*
X174250000Y-88075000D01*
X172750000Y-88075000D02*
X172750000Y-88062500D01*
%TO.N,Net-(D11-K)*%
D64*
X177430000Y-94000000D02*
X177930000Y-93500000D01*
X176325000Y-94000000D02*
X177430000Y-94000000D01*
%TO.N,Net-(U1-IO35)*%
X203150000Y-75350000D02*
X202900000Y-75600000D01*
X189750000Y-96175000D02*
X187325000Y-96175000D01*
X180750000Y-96250000D02*
X187250000Y-96250000D01*
X189750000Y-96175000D02*
X189750000Y-93000000D01*
X187325000Y-96175000D02*
X187250000Y-96250000D01*
X203150000Y-74150000D02*
X203150000Y-75350000D01*
%TO.N,Net-(U3-CB)*%
D63*
X176750000Y-69000000D02*
X176750000Y-68050000D01*
X176750000Y-68050000D02*
X177500000Y-67300000D01*
%TO.N,Net-(D5-A)*%
X175800000Y-99200000D02*
X176387500Y-99200000D01*
X175937500Y-99200000D02*
X175937500Y-100587500D01*
X175775000Y-102305000D02*
X175080000Y-103000000D01*
X175937500Y-100587500D02*
X175775000Y-100750000D01*
X175775000Y-100750000D02*
X175775000Y-102305000D01*
%TO.N,Switch_1*%
D64*
X182000000Y-64750000D02*
X180080331Y-62830331D01*
X174500000Y-61000000D02*
X175775000Y-61000000D01*
D63*
X171550000Y-57550000D02*
X169750000Y-55750000D01*
D64*
X204420000Y-73420000D02*
X204000000Y-73000000D01*
X190250000Y-64750000D02*
X182000000Y-64750000D01*
X175775000Y-61000000D02*
X176775000Y-62000000D01*
D63*
X174500000Y-60500000D02*
X169750000Y-55750000D01*
X171550000Y-61000000D02*
X171550000Y-57550000D01*
D64*
X204420000Y-74150000D02*
X204420000Y-73420000D01*
D63*
X174500000Y-61000000D02*
X174500000Y-60500000D01*
D64*
X178500000Y-62000000D02*
X176775000Y-62000000D01*
%TO.N,Relay3*%
X178120000Y-85620000D02*
X178000000Y-85500000D01*
X179700000Y-85620000D02*
X178120000Y-85620000D01*
%TO.N,Net-(J6-Pin_1)*%
D66*
X113200000Y-110950000D02*
X114250000Y-112000000D01*
X113200000Y-100650000D02*
X113200000Y-110950000D01*
%TO.N,Net-(J6-Pin_2)*%
X119150000Y-111900000D02*
X119250000Y-112000000D01*
X119150000Y-88250000D02*
X119150000Y-111900000D01*
%TO.N,Net-(J6-Pin_3)*%
X125250000Y-100700000D02*
X125250000Y-111000000D01*
X125250000Y-111000000D02*
X124250000Y-112000000D01*
%TO.N,Net-(U2-CB)*%
D63*
X170887500Y-84300000D02*
X170887500Y-82862500D01*
X170887500Y-82862500D02*
X170775000Y-82750000D01*
%TO.N,Relay6*%
D64*
X180940000Y-81810000D02*
X181000000Y-81750000D01*
X179700000Y-81810000D02*
X180940000Y-81810000D01*
%TO.N,R1_GPIO*%
X192540000Y-78460000D02*
X193060000Y-78460000D01*
X191500000Y-79500000D02*
X192540000Y-78460000D01*
X192540000Y-78460000D02*
X193010000Y-78460000D01*
X191500000Y-86250000D02*
X191500000Y-79500000D01*
X189590000Y-88160000D02*
X191500000Y-86250000D01*
X189000000Y-88160000D02*
X189590000Y-88160000D01*
%TO.N,R2_GPIO*%
X193250000Y-75250000D02*
X191750000Y-76750000D01*
X195000000Y-75250000D02*
X195580000Y-74670000D01*
X191100000Y-79150000D02*
X191100000Y-85750000D01*
X195580000Y-74670000D02*
X195580000Y-74150000D01*
X191750000Y-78500000D02*
X191100000Y-79150000D01*
X189960000Y-86890000D02*
X189000000Y-86890000D01*
X191100000Y-85750000D02*
X189960000Y-86890000D01*
X193250000Y-75250000D02*
X195000000Y-75250000D01*
X191750000Y-76750000D02*
X191750000Y-78500000D01*
%TO.N,R3_GPIO*%
X201880000Y-74580000D02*
X201880000Y-74150000D01*
X195200000Y-84300000D02*
X195200000Y-81260000D01*
X189120000Y-85500000D02*
X189000000Y-85620000D01*
X195200000Y-81260000D02*
X201880000Y-74580000D01*
X190500000Y-85500000D02*
X189120000Y-85500000D01*
%TO.N,R4_GPIO*%
X189100000Y-84250000D02*
X189000000Y-84350000D01*
X194500000Y-83700000D02*
X194500000Y-80800000D01*
X190500000Y-84250000D02*
X189100000Y-84250000D01*
X194500000Y-80800000D02*
X200610000Y-74690000D01*
X200610000Y-74690000D02*
X200610000Y-74150000D01*
%TO.N,R5_GPIO*%
X189080000Y-83000000D02*
X189000000Y-83080000D01*
X190500000Y-83000000D02*
X189080000Y-83000000D01*
X200610000Y-91650000D02*
X200610000Y-90860000D01*
X200610000Y-90860000D02*
X200250000Y-90500000D01*
%TO.N,R6_GPIO*%
X201880000Y-90880000D02*
X201500000Y-90500000D01*
X189060000Y-81750000D02*
X189000000Y-81810000D01*
X201880000Y-91650000D02*
X201880000Y-90880000D01*
X190500000Y-81750000D02*
X189060000Y-81750000D01*
%TO.N,R7_GPIO*%
X190500000Y-80500000D02*
X189040000Y-80500000D01*
X189040000Y-80500000D02*
X189000000Y-80540000D01*
X209500000Y-91000000D02*
X209000000Y-90500000D01*
X209500000Y-91650000D02*
X209500000Y-91000000D01*
%TO.N,R8_GPIO*%
X190500000Y-79250000D02*
X189020000Y-79250000D01*
X195190000Y-79250000D02*
X194250000Y-79250000D01*
X189020000Y-79250000D02*
X189000000Y-79270000D01*
X199340000Y-74150000D02*
X199340000Y-75100000D01*
X199340000Y-75100000D02*
X195190000Y-79250000D01*
%TO.N,Relay8*%
X178000000Y-79250000D02*
X178020000Y-79270000D01*
X179700000Y-79270000D02*
X178020000Y-79270000D01*
%TO.N,Relay4*%
X178100000Y-84350000D02*
X178000000Y-84250000D01*
X179700000Y-84350000D02*
X178100000Y-84350000D01*
%TO.N,Relay2*%
X178140000Y-86890000D02*
X178000000Y-86750000D01*
X179700000Y-86890000D02*
X178140000Y-86890000D01*
%TO.N,Relay1*%
X179700000Y-88160000D02*
X181340000Y-88160000D01*
X181340000Y-88160000D02*
X181750000Y-87750000D01*
%TO.N,Net-(J3-Pin_1)*%
D66*
X107450000Y-57650000D02*
X107450000Y-66000000D01*
X107550000Y-57550000D02*
X107450000Y-57650000D01*
X107550000Y-57550000D02*
X106250000Y-56250000D01*
%TO.N,Net-(J3-Pin_2)*%
X101250000Y-56250000D02*
X101250000Y-80000000D01*
X101500000Y-56500000D02*
X101250000Y-56250000D01*
X101250000Y-80000000D02*
X101400000Y-80150000D01*
%TO.N,Net-(J3-Pin_3)*%
X95400000Y-57100000D02*
X95400000Y-65950000D01*
X96250000Y-56250000D02*
X95400000Y-57100000D01*
%TD*%
M02*
