%TF.GenerationSoftware,KiCad,Pcbnew,10.0.4*%
%TF.CreationDate,2026-09-21T13:34:08+02:00*%
%TF.ProjectId,esp32-relay-controller,65737033-322d-4726-956c-61792d636f6e,rev?*%
%TF.SameCoordinates,Original*%
%TF.FileFunction,Legend,Top*%
%TF.FilePolarity,Positive*%
%FSLAX46Y46*%
G04 Gerber Fmt 4.6, Leading zero omitted, Abs format (unit mm)*
G04 Created by KiCad (PCBNEW 10.0.4) date 2026-09-21 13:34:08*
%MOMM*%
%LPD*%
G01*
G04 APERTURE LIST*
G04 Aperture macros list*
%AMRoundRect*
0 Rectangle with rounded corners*
0 $1 Rounding radius*
0 $2 $3 $4 $5 $6 $7 $8 $9 X,Y pos of 4 corners*
0 Add a 4 corners polygon primitive as box body*
4,1,4,$2,$3,$4,$5,$6,$7,$8,$9,$2,$3,0*
0 Add four circle primitives for the rounded corners*
1,1,$1+$1,$2,$3*
1,1,$1+$1,$4,$5*
1,1,$1+$1,$6,$7*
1,1,$1+$1,$8,$9*
0 Add four rect primitives between the rounded corners*
20,1,$1+$1,$2,$3,$4,$5,0*
20,1,$1+$1,$4,$5,$6,$7,0*
20,1,$1+$1,$6,$7,$8,$9,0*
20,1,$1+$1,$8,$9,$2,$3,0*%
G04 Aperture macros list end*
%ADD10C,0.100000*%
%ADD11C,0.150000*%
%ADD12C,0.120000*%
%ADD13RoundRect,0.250001X1.149999X1.149999X-1.149999X1.149999X-1.149999X-1.149999X1.149999X-1.149999X0*%
%ADD14C,2.800000*%
%ADD15RoundRect,0.200000X-0.200000X-0.275000X0.200000X-0.275000X0.200000X0.275000X-0.200000X0.275000X0*%
%ADD16RoundRect,0.090000X-0.660000X-0.360000X0.660000X-0.360000X0.660000X0.360000X-0.660000X0.360000X0*%
%ADD17RoundRect,0.225000X0.225000X0.250000X-0.225000X0.250000X-0.225000X-0.250000X0.225000X-0.250000X0*%
%ADD18RoundRect,0.250001X-1.149999X-1.149999X1.149999X-1.149999X1.149999X1.149999X-1.149999X1.149999X0*%
%ADD19RoundRect,0.150000X0.825000X0.150000X-0.825000X0.150000X-0.825000X-0.150000X0.825000X-0.150000X0*%
%ADD20C,3.000000*%
%ADD21C,2.500000*%
%ADD22RoundRect,0.250000X-0.925000X-1.500000X0.925000X-1.500000X0.925000X1.500000X-0.925000X1.500000X0*%
%ADD23RoundRect,0.250000X1.500000X0.550000X-1.500000X0.550000X-1.500000X-0.550000X1.500000X-0.550000X0*%
%ADD24C,0.650000*%
%ADD25RoundRect,0.150000X0.425000X-0.150000X0.425000X0.150000X-0.425000X0.150000X-0.425000X-0.150000X0*%
%ADD26RoundRect,0.075000X0.500000X-0.075000X0.500000X0.075000X-0.500000X0.075000X-0.500000X-0.075000X0*%
%ADD27O,2.100000X1.000000*%
%ADD28O,1.800000X1.000000*%
%ADD29RoundRect,0.150000X0.150000X-0.587500X0.150000X0.587500X-0.150000X0.587500X-0.150000X-0.587500X0*%
%ADD30RoundRect,0.225000X-0.225000X-0.250000X0.225000X-0.250000X0.225000X0.250000X-0.225000X0.250000X0*%
%ADD31C,2.000000*%
%ADD32R,1.700000X1.700000*%
%ADD33C,1.700000*%
%ADD34RoundRect,0.250000X0.250000X0.475000X-0.250000X0.475000X-0.250000X-0.475000X0.250000X-0.475000X0*%
%ADD35RoundRect,0.250000X1.500000X-0.925000X1.500000X0.925000X-1.500000X0.925000X-1.500000X-0.925000X0*%
%ADD36RoundRect,0.150000X-0.512500X-0.150000X0.512500X-0.150000X0.512500X0.150000X-0.512500X0.150000X0*%
%ADD37RoundRect,0.100000X0.130000X0.100000X-0.130000X0.100000X-0.130000X-0.100000X0.130000X-0.100000X0*%
%ADD38RoundRect,0.150000X0.150000X-0.825000X0.150000X0.825000X-0.150000X0.825000X-0.150000X-0.825000X0*%
%ADD39RoundRect,0.112500X0.187500X0.112500X-0.187500X0.112500X-0.187500X-0.112500X0.187500X-0.112500X0*%
%ADD40R,2.000000X2.000000*%
%ADD41RoundRect,0.200000X-0.275000X0.200000X-0.275000X-0.200000X0.275000X-0.200000X0.275000X0.200000X0*%
%ADD42RoundRect,0.200000X0.200000X0.275000X-0.200000X0.275000X-0.200000X-0.275000X0.200000X-0.275000X0*%
%ADD43RoundRect,0.200000X0.275000X-0.200000X0.275000X0.200000X-0.275000X0.200000X-0.275000X-0.200000X0*%
%ADD44RoundRect,0.100000X-0.130000X-0.100000X0.130000X-0.100000X0.130000X0.100000X-0.130000X0.100000X0*%
%ADD45RoundRect,0.150000X-0.150000X-0.200000X0.150000X-0.200000X0.150000X0.200000X-0.150000X0.200000X0*%
%ADD46RoundRect,0.225000X-0.250000X0.225000X-0.250000X-0.225000X0.250000X-0.225000X0.250000X0.225000X0*%
%ADD47RoundRect,0.150000X0.587500X0.150000X-0.587500X0.150000X-0.587500X-0.150000X0.587500X-0.150000X0*%
%ADD48RoundRect,0.150000X0.150000X0.200000X-0.150000X0.200000X-0.150000X-0.200000X0.150000X-0.200000X0*%
%ADD49C,1.500000*%
%ADD50RoundRect,0.250000X1.950000X1.000000X-1.950000X1.000000X-1.950000X-1.000000X1.950000X-1.000000X0*%
%ADD51RoundRect,0.250000X-0.250000X-0.475000X0.250000X-0.475000X0.250000X0.475000X-0.250000X0.475000X0*%
%ADD52RoundRect,0.150000X0.875000X0.150000X-0.875000X0.150000X-0.875000X-0.150000X0.875000X-0.150000X0*%
%ADD53R,1.905000X2.000000*%
%ADD54O,1.905000X2.000000*%
%ADD55RoundRect,0.112500X-0.112500X0.187500X-0.112500X-0.187500X0.112500X-0.187500X0.112500X0.187500X0*%
%ADD56RoundRect,0.250000X0.475000X-0.250000X0.475000X0.250000X-0.475000X0.250000X-0.475000X-0.250000X0*%
%ADD57RoundRect,0.150000X-0.150000X0.587500X-0.150000X-0.587500X0.150000X-0.587500X0.150000X0.587500X0*%
%ADD58RoundRect,0.250000X0.900000X-1.000000X0.900000X1.000000X-0.900000X1.000000X-0.900000X-1.000000X0*%
%ADD59R,0.900000X1.500000*%
%ADD60R,1.500000X0.900000*%
%ADD61C,0.600000*%
%ADD62R,3.800000X3.800000*%
G04 APERTURE END LIST*
D10*
X92530074Y-111872419D02*
X92053884Y-111872419D01*
X92053884Y-111872419D02*
X92006265Y-112348609D01*
X92006265Y-112348609D02*
X92053884Y-112300990D01*
X92053884Y-112300990D02*
X92149122Y-112253371D01*
X92149122Y-112253371D02*
X92387217Y-112253371D01*
X92387217Y-112253371D02*
X92482455Y-112300990D01*
X92482455Y-112300990D02*
X92530074Y-112348609D01*
X92530074Y-112348609D02*
X92577693Y-112443847D01*
X92577693Y-112443847D02*
X92577693Y-112681942D01*
X92577693Y-112681942D02*
X92530074Y-112777180D01*
X92530074Y-112777180D02*
X92482455Y-112824800D01*
X92482455Y-112824800D02*
X92387217Y-112872419D01*
X92387217Y-112872419D02*
X92149122Y-112872419D01*
X92149122Y-112872419D02*
X92053884Y-112824800D01*
X92053884Y-112824800D02*
X92006265Y-112777180D01*
X92827693Y-56622419D02*
X92256265Y-56622419D01*
X92541979Y-56622419D02*
X92541979Y-55622419D01*
X92541979Y-55622419D02*
X92446741Y-55765276D01*
X92446741Y-55765276D02*
X92351503Y-55860514D01*
X92351503Y-55860514D02*
X92256265Y-55908133D01*
X95053884Y-51672419D02*
X95053884Y-50672419D01*
X95053884Y-50672419D02*
X95625312Y-51672419D01*
X95625312Y-51672419D02*
X95625312Y-50672419D01*
X96672931Y-51577180D02*
X96625312Y-51624800D01*
X96625312Y-51624800D02*
X96482455Y-51672419D01*
X96482455Y-51672419D02*
X96387217Y-51672419D01*
X96387217Y-51672419D02*
X96244360Y-51624800D01*
X96244360Y-51624800D02*
X96149122Y-51529561D01*
X96149122Y-51529561D02*
X96101503Y-51434323D01*
X96101503Y-51434323D02*
X96053884Y-51243847D01*
X96053884Y-51243847D02*
X96053884Y-51100990D01*
X96053884Y-51100990D02*
X96101503Y-50910514D01*
X96101503Y-50910514D02*
X96149122Y-50815276D01*
X96149122Y-50815276D02*
X96244360Y-50720038D01*
X96244360Y-50720038D02*
X96387217Y-50672419D01*
X96387217Y-50672419D02*
X96482455Y-50672419D01*
X96482455Y-50672419D02*
X96625312Y-50720038D01*
X96625312Y-50720038D02*
X96672931Y-50767657D01*
X95803884Y-117622419D02*
X95803884Y-116622419D01*
X95803884Y-116622419D02*
X96375312Y-117622419D01*
X96375312Y-117622419D02*
X96375312Y-116622419D01*
X97041979Y-116622419D02*
X97232455Y-116622419D01*
X97232455Y-116622419D02*
X97327693Y-116670038D01*
X97327693Y-116670038D02*
X97422931Y-116765276D01*
X97422931Y-116765276D02*
X97470550Y-116955752D01*
X97470550Y-116955752D02*
X97470550Y-117289085D01*
X97470550Y-117289085D02*
X97422931Y-117479561D01*
X97422931Y-117479561D02*
X97327693Y-117574800D01*
X97327693Y-117574800D02*
X97232455Y-117622419D01*
X97232455Y-117622419D02*
X97041979Y-117622419D01*
X97041979Y-117622419D02*
X96946741Y-117574800D01*
X96946741Y-117574800D02*
X96851503Y-117479561D01*
X96851503Y-117479561D02*
X96803884Y-117289085D01*
X96803884Y-117289085D02*
X96803884Y-116955752D01*
X96803884Y-116955752D02*
X96851503Y-116765276D01*
X96851503Y-116765276D02*
X96946741Y-116670038D01*
X96946741Y-116670038D02*
X97041979Y-116622419D01*
X100375312Y-51577180D02*
X100327693Y-51624800D01*
X100327693Y-51624800D02*
X100184836Y-51672419D01*
X100184836Y-51672419D02*
X100089598Y-51672419D01*
X100089598Y-51672419D02*
X99946741Y-51624800D01*
X99946741Y-51624800D02*
X99851503Y-51529561D01*
X99851503Y-51529561D02*
X99803884Y-51434323D01*
X99803884Y-51434323D02*
X99756265Y-51243847D01*
X99756265Y-51243847D02*
X99756265Y-51100990D01*
X99756265Y-51100990D02*
X99803884Y-50910514D01*
X99803884Y-50910514D02*
X99851503Y-50815276D01*
X99851503Y-50815276D02*
X99946741Y-50720038D01*
X99946741Y-50720038D02*
X100089598Y-50672419D01*
X100089598Y-50672419D02*
X100184836Y-50672419D01*
X100184836Y-50672419D02*
X100327693Y-50720038D01*
X100327693Y-50720038D02*
X100375312Y-50767657D01*
X100994360Y-50672419D02*
X101184836Y-50672419D01*
X101184836Y-50672419D02*
X101280074Y-50720038D01*
X101280074Y-50720038D02*
X101375312Y-50815276D01*
X101375312Y-50815276D02*
X101422931Y-51005752D01*
X101422931Y-51005752D02*
X101422931Y-51339085D01*
X101422931Y-51339085D02*
X101375312Y-51529561D01*
X101375312Y-51529561D02*
X101280074Y-51624800D01*
X101280074Y-51624800D02*
X101184836Y-51672419D01*
X101184836Y-51672419D02*
X100994360Y-51672419D01*
X100994360Y-51672419D02*
X100899122Y-51624800D01*
X100899122Y-51624800D02*
X100803884Y-51529561D01*
X100803884Y-51529561D02*
X100756265Y-51339085D01*
X100756265Y-51339085D02*
X100756265Y-51005752D01*
X100756265Y-51005752D02*
X100803884Y-50815276D01*
X100803884Y-50815276D02*
X100899122Y-50720038D01*
X100899122Y-50720038D02*
X100994360Y-50672419D01*
X101851503Y-51672419D02*
X101851503Y-50672419D01*
X101851503Y-50672419D02*
X102184836Y-51386704D01*
X102184836Y-51386704D02*
X102518169Y-50672419D01*
X102518169Y-50672419D02*
X102518169Y-51672419D01*
X100875312Y-117527180D02*
X100827693Y-117574800D01*
X100827693Y-117574800D02*
X100684836Y-117622419D01*
X100684836Y-117622419D02*
X100589598Y-117622419D01*
X100589598Y-117622419D02*
X100446741Y-117574800D01*
X100446741Y-117574800D02*
X100351503Y-117479561D01*
X100351503Y-117479561D02*
X100303884Y-117384323D01*
X100303884Y-117384323D02*
X100256265Y-117193847D01*
X100256265Y-117193847D02*
X100256265Y-117050990D01*
X100256265Y-117050990D02*
X100303884Y-116860514D01*
X100303884Y-116860514D02*
X100351503Y-116765276D01*
X100351503Y-116765276D02*
X100446741Y-116670038D01*
X100446741Y-116670038D02*
X100589598Y-116622419D01*
X100589598Y-116622419D02*
X100684836Y-116622419D01*
X100684836Y-116622419D02*
X100827693Y-116670038D01*
X100827693Y-116670038D02*
X100875312Y-116717657D01*
X101494360Y-116622419D02*
X101684836Y-116622419D01*
X101684836Y-116622419D02*
X101780074Y-116670038D01*
X101780074Y-116670038D02*
X101875312Y-116765276D01*
X101875312Y-116765276D02*
X101922931Y-116955752D01*
X101922931Y-116955752D02*
X101922931Y-117289085D01*
X101922931Y-117289085D02*
X101875312Y-117479561D01*
X101875312Y-117479561D02*
X101780074Y-117574800D01*
X101780074Y-117574800D02*
X101684836Y-117622419D01*
X101684836Y-117622419D02*
X101494360Y-117622419D01*
X101494360Y-117622419D02*
X101399122Y-117574800D01*
X101399122Y-117574800D02*
X101303884Y-117479561D01*
X101303884Y-117479561D02*
X101256265Y-117289085D01*
X101256265Y-117289085D02*
X101256265Y-116955752D01*
X101256265Y-116955752D02*
X101303884Y-116765276D01*
X101303884Y-116765276D02*
X101399122Y-116670038D01*
X101399122Y-116670038D02*
X101494360Y-116622419D01*
X102351503Y-117622419D02*
X102351503Y-116622419D01*
X102351503Y-116622419D02*
X102684836Y-117336704D01*
X102684836Y-117336704D02*
X103018169Y-116622419D01*
X103018169Y-116622419D02*
X103018169Y-117622419D01*
X105553884Y-51672419D02*
X105553884Y-50672419D01*
X105553884Y-50672419D02*
X106125312Y-51672419D01*
X106125312Y-51672419D02*
X106125312Y-50672419D01*
X106791979Y-50672419D02*
X106982455Y-50672419D01*
X106982455Y-50672419D02*
X107077693Y-50720038D01*
X107077693Y-50720038D02*
X107172931Y-50815276D01*
X107172931Y-50815276D02*
X107220550Y-51005752D01*
X107220550Y-51005752D02*
X107220550Y-51339085D01*
X107220550Y-51339085D02*
X107172931Y-51529561D01*
X107172931Y-51529561D02*
X107077693Y-51624800D01*
X107077693Y-51624800D02*
X106982455Y-51672419D01*
X106982455Y-51672419D02*
X106791979Y-51672419D01*
X106791979Y-51672419D02*
X106696741Y-51624800D01*
X106696741Y-51624800D02*
X106601503Y-51529561D01*
X106601503Y-51529561D02*
X106553884Y-51339085D01*
X106553884Y-51339085D02*
X106553884Y-51005752D01*
X106553884Y-51005752D02*
X106601503Y-50815276D01*
X106601503Y-50815276D02*
X106696741Y-50720038D01*
X106696741Y-50720038D02*
X106791979Y-50672419D01*
X105803884Y-117622419D02*
X105803884Y-116622419D01*
X105803884Y-116622419D02*
X106375312Y-117622419D01*
X106375312Y-117622419D02*
X106375312Y-116622419D01*
X107422931Y-117527180D02*
X107375312Y-117574800D01*
X107375312Y-117574800D02*
X107232455Y-117622419D01*
X107232455Y-117622419D02*
X107137217Y-117622419D01*
X107137217Y-117622419D02*
X106994360Y-117574800D01*
X106994360Y-117574800D02*
X106899122Y-117479561D01*
X106899122Y-117479561D02*
X106851503Y-117384323D01*
X106851503Y-117384323D02*
X106803884Y-117193847D01*
X106803884Y-117193847D02*
X106803884Y-117050990D01*
X106803884Y-117050990D02*
X106851503Y-116860514D01*
X106851503Y-116860514D02*
X106899122Y-116765276D01*
X106899122Y-116765276D02*
X106994360Y-116670038D01*
X106994360Y-116670038D02*
X107137217Y-116622419D01*
X107137217Y-116622419D02*
X107232455Y-116622419D01*
X107232455Y-116622419D02*
X107375312Y-116670038D01*
X107375312Y-116670038D02*
X107422931Y-116717657D01*
X112553884Y-51622419D02*
X112553884Y-50622419D01*
X112553884Y-50622419D02*
X113125312Y-51622419D01*
X113125312Y-51622419D02*
X113125312Y-50622419D01*
X114172931Y-51527180D02*
X114125312Y-51574800D01*
X114125312Y-51574800D02*
X113982455Y-51622419D01*
X113982455Y-51622419D02*
X113887217Y-51622419D01*
X113887217Y-51622419D02*
X113744360Y-51574800D01*
X113744360Y-51574800D02*
X113649122Y-51479561D01*
X113649122Y-51479561D02*
X113601503Y-51384323D01*
X113601503Y-51384323D02*
X113553884Y-51193847D01*
X113553884Y-51193847D02*
X113553884Y-51050990D01*
X113553884Y-51050990D02*
X113601503Y-50860514D01*
X113601503Y-50860514D02*
X113649122Y-50765276D01*
X113649122Y-50765276D02*
X113744360Y-50670038D01*
X113744360Y-50670038D02*
X113887217Y-50622419D01*
X113887217Y-50622419D02*
X113982455Y-50622419D01*
X113982455Y-50622419D02*
X114125312Y-50670038D01*
X114125312Y-50670038D02*
X114172931Y-50717657D01*
X113553884Y-117372419D02*
X113553884Y-116372419D01*
X113553884Y-116372419D02*
X114125312Y-117372419D01*
X114125312Y-117372419D02*
X114125312Y-116372419D01*
X114791979Y-116372419D02*
X114982455Y-116372419D01*
X114982455Y-116372419D02*
X115077693Y-116420038D01*
X115077693Y-116420038D02*
X115172931Y-116515276D01*
X115172931Y-116515276D02*
X115220550Y-116705752D01*
X115220550Y-116705752D02*
X115220550Y-117039085D01*
X115220550Y-117039085D02*
X115172931Y-117229561D01*
X115172931Y-117229561D02*
X115077693Y-117324800D01*
X115077693Y-117324800D02*
X114982455Y-117372419D01*
X114982455Y-117372419D02*
X114791979Y-117372419D01*
X114791979Y-117372419D02*
X114696741Y-117324800D01*
X114696741Y-117324800D02*
X114601503Y-117229561D01*
X114601503Y-117229561D02*
X114553884Y-117039085D01*
X114553884Y-117039085D02*
X114553884Y-116705752D01*
X114553884Y-116705752D02*
X114601503Y-116515276D01*
X114601503Y-116515276D02*
X114696741Y-116420038D01*
X114696741Y-116420038D02*
X114791979Y-116372419D01*
X117875312Y-51527180D02*
X117827693Y-51574800D01*
X117827693Y-51574800D02*
X117684836Y-51622419D01*
X117684836Y-51622419D02*
X117589598Y-51622419D01*
X117589598Y-51622419D02*
X117446741Y-51574800D01*
X117446741Y-51574800D02*
X117351503Y-51479561D01*
X117351503Y-51479561D02*
X117303884Y-51384323D01*
X117303884Y-51384323D02*
X117256265Y-51193847D01*
X117256265Y-51193847D02*
X117256265Y-51050990D01*
X117256265Y-51050990D02*
X117303884Y-50860514D01*
X117303884Y-50860514D02*
X117351503Y-50765276D01*
X117351503Y-50765276D02*
X117446741Y-50670038D01*
X117446741Y-50670038D02*
X117589598Y-50622419D01*
X117589598Y-50622419D02*
X117684836Y-50622419D01*
X117684836Y-50622419D02*
X117827693Y-50670038D01*
X117827693Y-50670038D02*
X117875312Y-50717657D01*
X118494360Y-50622419D02*
X118684836Y-50622419D01*
X118684836Y-50622419D02*
X118780074Y-50670038D01*
X118780074Y-50670038D02*
X118875312Y-50765276D01*
X118875312Y-50765276D02*
X118922931Y-50955752D01*
X118922931Y-50955752D02*
X118922931Y-51289085D01*
X118922931Y-51289085D02*
X118875312Y-51479561D01*
X118875312Y-51479561D02*
X118780074Y-51574800D01*
X118780074Y-51574800D02*
X118684836Y-51622419D01*
X118684836Y-51622419D02*
X118494360Y-51622419D01*
X118494360Y-51622419D02*
X118399122Y-51574800D01*
X118399122Y-51574800D02*
X118303884Y-51479561D01*
X118303884Y-51479561D02*
X118256265Y-51289085D01*
X118256265Y-51289085D02*
X118256265Y-50955752D01*
X118256265Y-50955752D02*
X118303884Y-50765276D01*
X118303884Y-50765276D02*
X118399122Y-50670038D01*
X118399122Y-50670038D02*
X118494360Y-50622419D01*
X119351503Y-51622419D02*
X119351503Y-50622419D01*
X119351503Y-50622419D02*
X119684836Y-51336704D01*
X119684836Y-51336704D02*
X120018169Y-50622419D01*
X120018169Y-50622419D02*
X120018169Y-51622419D01*
X118625312Y-117277180D02*
X118577693Y-117324800D01*
X118577693Y-117324800D02*
X118434836Y-117372419D01*
X118434836Y-117372419D02*
X118339598Y-117372419D01*
X118339598Y-117372419D02*
X118196741Y-117324800D01*
X118196741Y-117324800D02*
X118101503Y-117229561D01*
X118101503Y-117229561D02*
X118053884Y-117134323D01*
X118053884Y-117134323D02*
X118006265Y-116943847D01*
X118006265Y-116943847D02*
X118006265Y-116800990D01*
X118006265Y-116800990D02*
X118053884Y-116610514D01*
X118053884Y-116610514D02*
X118101503Y-116515276D01*
X118101503Y-116515276D02*
X118196741Y-116420038D01*
X118196741Y-116420038D02*
X118339598Y-116372419D01*
X118339598Y-116372419D02*
X118434836Y-116372419D01*
X118434836Y-116372419D02*
X118577693Y-116420038D01*
X118577693Y-116420038D02*
X118625312Y-116467657D01*
X119244360Y-116372419D02*
X119434836Y-116372419D01*
X119434836Y-116372419D02*
X119530074Y-116420038D01*
X119530074Y-116420038D02*
X119625312Y-116515276D01*
X119625312Y-116515276D02*
X119672931Y-116705752D01*
X119672931Y-116705752D02*
X119672931Y-117039085D01*
X119672931Y-117039085D02*
X119625312Y-117229561D01*
X119625312Y-117229561D02*
X119530074Y-117324800D01*
X119530074Y-117324800D02*
X119434836Y-117372419D01*
X119434836Y-117372419D02*
X119244360Y-117372419D01*
X119244360Y-117372419D02*
X119149122Y-117324800D01*
X119149122Y-117324800D02*
X119053884Y-117229561D01*
X119053884Y-117229561D02*
X119006265Y-117039085D01*
X119006265Y-117039085D02*
X119006265Y-116705752D01*
X119006265Y-116705752D02*
X119053884Y-116515276D01*
X119053884Y-116515276D02*
X119149122Y-116420038D01*
X119149122Y-116420038D02*
X119244360Y-116372419D01*
X120101503Y-117372419D02*
X120101503Y-116372419D01*
X120101503Y-116372419D02*
X120434836Y-117086704D01*
X120434836Y-117086704D02*
X120768169Y-116372419D01*
X120768169Y-116372419D02*
X120768169Y-117372419D01*
X123053884Y-51622419D02*
X123053884Y-50622419D01*
X123053884Y-50622419D02*
X123625312Y-51622419D01*
X123625312Y-51622419D02*
X123625312Y-50622419D01*
X124291979Y-50622419D02*
X124482455Y-50622419D01*
X124482455Y-50622419D02*
X124577693Y-50670038D01*
X124577693Y-50670038D02*
X124672931Y-50765276D01*
X124672931Y-50765276D02*
X124720550Y-50955752D01*
X124720550Y-50955752D02*
X124720550Y-51289085D01*
X124720550Y-51289085D02*
X124672931Y-51479561D01*
X124672931Y-51479561D02*
X124577693Y-51574800D01*
X124577693Y-51574800D02*
X124482455Y-51622419D01*
X124482455Y-51622419D02*
X124291979Y-51622419D01*
X124291979Y-51622419D02*
X124196741Y-51574800D01*
X124196741Y-51574800D02*
X124101503Y-51479561D01*
X124101503Y-51479561D02*
X124053884Y-51289085D01*
X124053884Y-51289085D02*
X124053884Y-50955752D01*
X124053884Y-50955752D02*
X124101503Y-50765276D01*
X124101503Y-50765276D02*
X124196741Y-50670038D01*
X124196741Y-50670038D02*
X124291979Y-50622419D01*
X123803884Y-117372419D02*
X123803884Y-116372419D01*
X123803884Y-116372419D02*
X124375312Y-117372419D01*
X124375312Y-117372419D02*
X124375312Y-116372419D01*
X125422931Y-117277180D02*
X125375312Y-117324800D01*
X125375312Y-117324800D02*
X125232455Y-117372419D01*
X125232455Y-117372419D02*
X125137217Y-117372419D01*
X125137217Y-117372419D02*
X124994360Y-117324800D01*
X124994360Y-117324800D02*
X124899122Y-117229561D01*
X124899122Y-117229561D02*
X124851503Y-117134323D01*
X124851503Y-117134323D02*
X124803884Y-116943847D01*
X124803884Y-116943847D02*
X124803884Y-116800990D01*
X124803884Y-116800990D02*
X124851503Y-116610514D01*
X124851503Y-116610514D02*
X124899122Y-116515276D01*
X124899122Y-116515276D02*
X124994360Y-116420038D01*
X124994360Y-116420038D02*
X125137217Y-116372419D01*
X125137217Y-116372419D02*
X125232455Y-116372419D01*
X125232455Y-116372419D02*
X125375312Y-116420038D01*
X125375312Y-116420038D02*
X125422931Y-116467657D01*
X130303884Y-51622419D02*
X130303884Y-50622419D01*
X130303884Y-50622419D02*
X130875312Y-51622419D01*
X130875312Y-51622419D02*
X130875312Y-50622419D01*
X131922931Y-51527180D02*
X131875312Y-51574800D01*
X131875312Y-51574800D02*
X131732455Y-51622419D01*
X131732455Y-51622419D02*
X131637217Y-51622419D01*
X131637217Y-51622419D02*
X131494360Y-51574800D01*
X131494360Y-51574800D02*
X131399122Y-51479561D01*
X131399122Y-51479561D02*
X131351503Y-51384323D01*
X131351503Y-51384323D02*
X131303884Y-51193847D01*
X131303884Y-51193847D02*
X131303884Y-51050990D01*
X131303884Y-51050990D02*
X131351503Y-50860514D01*
X131351503Y-50860514D02*
X131399122Y-50765276D01*
X131399122Y-50765276D02*
X131494360Y-50670038D01*
X131494360Y-50670038D02*
X131637217Y-50622419D01*
X131637217Y-50622419D02*
X131732455Y-50622419D01*
X131732455Y-50622419D02*
X131875312Y-50670038D01*
X131875312Y-50670038D02*
X131922931Y-50717657D01*
X131053884Y-117372419D02*
X131053884Y-116372419D01*
X131053884Y-116372419D02*
X131625312Y-117372419D01*
X131625312Y-117372419D02*
X131625312Y-116372419D01*
X132291979Y-116372419D02*
X132482455Y-116372419D01*
X132482455Y-116372419D02*
X132577693Y-116420038D01*
X132577693Y-116420038D02*
X132672931Y-116515276D01*
X132672931Y-116515276D02*
X132720550Y-116705752D01*
X132720550Y-116705752D02*
X132720550Y-117039085D01*
X132720550Y-117039085D02*
X132672931Y-117229561D01*
X132672931Y-117229561D02*
X132577693Y-117324800D01*
X132577693Y-117324800D02*
X132482455Y-117372419D01*
X132482455Y-117372419D02*
X132291979Y-117372419D01*
X132291979Y-117372419D02*
X132196741Y-117324800D01*
X132196741Y-117324800D02*
X132101503Y-117229561D01*
X132101503Y-117229561D02*
X132053884Y-117039085D01*
X132053884Y-117039085D02*
X132053884Y-116705752D01*
X132053884Y-116705752D02*
X132101503Y-116515276D01*
X132101503Y-116515276D02*
X132196741Y-116420038D01*
X132196741Y-116420038D02*
X132291979Y-116372419D01*
X135625312Y-51527180D02*
X135577693Y-51574800D01*
X135577693Y-51574800D02*
X135434836Y-51622419D01*
X135434836Y-51622419D02*
X135339598Y-51622419D01*
X135339598Y-51622419D02*
X135196741Y-51574800D01*
X135196741Y-51574800D02*
X135101503Y-51479561D01*
X135101503Y-51479561D02*
X135053884Y-51384323D01*
X135053884Y-51384323D02*
X135006265Y-51193847D01*
X135006265Y-51193847D02*
X135006265Y-51050990D01*
X135006265Y-51050990D02*
X135053884Y-50860514D01*
X135053884Y-50860514D02*
X135101503Y-50765276D01*
X135101503Y-50765276D02*
X135196741Y-50670038D01*
X135196741Y-50670038D02*
X135339598Y-50622419D01*
X135339598Y-50622419D02*
X135434836Y-50622419D01*
X135434836Y-50622419D02*
X135577693Y-50670038D01*
X135577693Y-50670038D02*
X135625312Y-50717657D01*
X136244360Y-50622419D02*
X136434836Y-50622419D01*
X136434836Y-50622419D02*
X136530074Y-50670038D01*
X136530074Y-50670038D02*
X136625312Y-50765276D01*
X136625312Y-50765276D02*
X136672931Y-50955752D01*
X136672931Y-50955752D02*
X136672931Y-51289085D01*
X136672931Y-51289085D02*
X136625312Y-51479561D01*
X136625312Y-51479561D02*
X136530074Y-51574800D01*
X136530074Y-51574800D02*
X136434836Y-51622419D01*
X136434836Y-51622419D02*
X136244360Y-51622419D01*
X136244360Y-51622419D02*
X136149122Y-51574800D01*
X136149122Y-51574800D02*
X136053884Y-51479561D01*
X136053884Y-51479561D02*
X136006265Y-51289085D01*
X136006265Y-51289085D02*
X136006265Y-50955752D01*
X136006265Y-50955752D02*
X136053884Y-50765276D01*
X136053884Y-50765276D02*
X136149122Y-50670038D01*
X136149122Y-50670038D02*
X136244360Y-50622419D01*
X137101503Y-51622419D02*
X137101503Y-50622419D01*
X137101503Y-50622419D02*
X137434836Y-51336704D01*
X137434836Y-51336704D02*
X137768169Y-50622419D01*
X137768169Y-50622419D02*
X137768169Y-51622419D01*
X136125312Y-117277180D02*
X136077693Y-117324800D01*
X136077693Y-117324800D02*
X135934836Y-117372419D01*
X135934836Y-117372419D02*
X135839598Y-117372419D01*
X135839598Y-117372419D02*
X135696741Y-117324800D01*
X135696741Y-117324800D02*
X135601503Y-117229561D01*
X135601503Y-117229561D02*
X135553884Y-117134323D01*
X135553884Y-117134323D02*
X135506265Y-116943847D01*
X135506265Y-116943847D02*
X135506265Y-116800990D01*
X135506265Y-116800990D02*
X135553884Y-116610514D01*
X135553884Y-116610514D02*
X135601503Y-116515276D01*
X135601503Y-116515276D02*
X135696741Y-116420038D01*
X135696741Y-116420038D02*
X135839598Y-116372419D01*
X135839598Y-116372419D02*
X135934836Y-116372419D01*
X135934836Y-116372419D02*
X136077693Y-116420038D01*
X136077693Y-116420038D02*
X136125312Y-116467657D01*
X136744360Y-116372419D02*
X136934836Y-116372419D01*
X136934836Y-116372419D02*
X137030074Y-116420038D01*
X137030074Y-116420038D02*
X137125312Y-116515276D01*
X137125312Y-116515276D02*
X137172931Y-116705752D01*
X137172931Y-116705752D02*
X137172931Y-117039085D01*
X137172931Y-117039085D02*
X137125312Y-117229561D01*
X137125312Y-117229561D02*
X137030074Y-117324800D01*
X137030074Y-117324800D02*
X136934836Y-117372419D01*
X136934836Y-117372419D02*
X136744360Y-117372419D01*
X136744360Y-117372419D02*
X136649122Y-117324800D01*
X136649122Y-117324800D02*
X136553884Y-117229561D01*
X136553884Y-117229561D02*
X136506265Y-117039085D01*
X136506265Y-117039085D02*
X136506265Y-116705752D01*
X136506265Y-116705752D02*
X136553884Y-116515276D01*
X136553884Y-116515276D02*
X136649122Y-116420038D01*
X136649122Y-116420038D02*
X136744360Y-116372419D01*
X137601503Y-117372419D02*
X137601503Y-116372419D01*
X137601503Y-116372419D02*
X137934836Y-117086704D01*
X137934836Y-117086704D02*
X138268169Y-116372419D01*
X138268169Y-116372419D02*
X138268169Y-117372419D01*
X140803884Y-51622419D02*
X140803884Y-50622419D01*
X140803884Y-50622419D02*
X141375312Y-51622419D01*
X141375312Y-51622419D02*
X141375312Y-50622419D01*
X142041979Y-50622419D02*
X142232455Y-50622419D01*
X142232455Y-50622419D02*
X142327693Y-50670038D01*
X142327693Y-50670038D02*
X142422931Y-50765276D01*
X142422931Y-50765276D02*
X142470550Y-50955752D01*
X142470550Y-50955752D02*
X142470550Y-51289085D01*
X142470550Y-51289085D02*
X142422931Y-51479561D01*
X142422931Y-51479561D02*
X142327693Y-51574800D01*
X142327693Y-51574800D02*
X142232455Y-51622419D01*
X142232455Y-51622419D02*
X142041979Y-51622419D01*
X142041979Y-51622419D02*
X141946741Y-51574800D01*
X141946741Y-51574800D02*
X141851503Y-51479561D01*
X141851503Y-51479561D02*
X141803884Y-51289085D01*
X141803884Y-51289085D02*
X141803884Y-50955752D01*
X141803884Y-50955752D02*
X141851503Y-50765276D01*
X141851503Y-50765276D02*
X141946741Y-50670038D01*
X141946741Y-50670038D02*
X142041979Y-50622419D01*
X141053884Y-117372419D02*
X141053884Y-116372419D01*
X141053884Y-116372419D02*
X141625312Y-117372419D01*
X141625312Y-117372419D02*
X141625312Y-116372419D01*
X142672931Y-117277180D02*
X142625312Y-117324800D01*
X142625312Y-117324800D02*
X142482455Y-117372419D01*
X142482455Y-117372419D02*
X142387217Y-117372419D01*
X142387217Y-117372419D02*
X142244360Y-117324800D01*
X142244360Y-117324800D02*
X142149122Y-117229561D01*
X142149122Y-117229561D02*
X142101503Y-117134323D01*
X142101503Y-117134323D02*
X142053884Y-116943847D01*
X142053884Y-116943847D02*
X142053884Y-116800990D01*
X142053884Y-116800990D02*
X142101503Y-116610514D01*
X142101503Y-116610514D02*
X142149122Y-116515276D01*
X142149122Y-116515276D02*
X142244360Y-116420038D01*
X142244360Y-116420038D02*
X142387217Y-116372419D01*
X142387217Y-116372419D02*
X142482455Y-116372419D01*
X142482455Y-116372419D02*
X142625312Y-116420038D01*
X142625312Y-116420038D02*
X142672931Y-116467657D01*
X147803884Y-51622419D02*
X147803884Y-50622419D01*
X147803884Y-50622419D02*
X148375312Y-51622419D01*
X148375312Y-51622419D02*
X148375312Y-50622419D01*
X149422931Y-51527180D02*
X149375312Y-51574800D01*
X149375312Y-51574800D02*
X149232455Y-51622419D01*
X149232455Y-51622419D02*
X149137217Y-51622419D01*
X149137217Y-51622419D02*
X148994360Y-51574800D01*
X148994360Y-51574800D02*
X148899122Y-51479561D01*
X148899122Y-51479561D02*
X148851503Y-51384323D01*
X148851503Y-51384323D02*
X148803884Y-51193847D01*
X148803884Y-51193847D02*
X148803884Y-51050990D01*
X148803884Y-51050990D02*
X148851503Y-50860514D01*
X148851503Y-50860514D02*
X148899122Y-50765276D01*
X148899122Y-50765276D02*
X148994360Y-50670038D01*
X148994360Y-50670038D02*
X149137217Y-50622419D01*
X149137217Y-50622419D02*
X149232455Y-50622419D01*
X149232455Y-50622419D02*
X149375312Y-50670038D01*
X149375312Y-50670038D02*
X149422931Y-50717657D01*
X148553884Y-117372419D02*
X148553884Y-116372419D01*
X148553884Y-116372419D02*
X149125312Y-117372419D01*
X149125312Y-117372419D02*
X149125312Y-116372419D01*
X149791979Y-116372419D02*
X149982455Y-116372419D01*
X149982455Y-116372419D02*
X150077693Y-116420038D01*
X150077693Y-116420038D02*
X150172931Y-116515276D01*
X150172931Y-116515276D02*
X150220550Y-116705752D01*
X150220550Y-116705752D02*
X150220550Y-117039085D01*
X150220550Y-117039085D02*
X150172931Y-117229561D01*
X150172931Y-117229561D02*
X150077693Y-117324800D01*
X150077693Y-117324800D02*
X149982455Y-117372419D01*
X149982455Y-117372419D02*
X149791979Y-117372419D01*
X149791979Y-117372419D02*
X149696741Y-117324800D01*
X149696741Y-117324800D02*
X149601503Y-117229561D01*
X149601503Y-117229561D02*
X149553884Y-117039085D01*
X149553884Y-117039085D02*
X149553884Y-116705752D01*
X149553884Y-116705752D02*
X149601503Y-116515276D01*
X149601503Y-116515276D02*
X149696741Y-116420038D01*
X149696741Y-116420038D02*
X149791979Y-116372419D01*
X153125312Y-51527180D02*
X153077693Y-51574800D01*
X153077693Y-51574800D02*
X152934836Y-51622419D01*
X152934836Y-51622419D02*
X152839598Y-51622419D01*
X152839598Y-51622419D02*
X152696741Y-51574800D01*
X152696741Y-51574800D02*
X152601503Y-51479561D01*
X152601503Y-51479561D02*
X152553884Y-51384323D01*
X152553884Y-51384323D02*
X152506265Y-51193847D01*
X152506265Y-51193847D02*
X152506265Y-51050990D01*
X152506265Y-51050990D02*
X152553884Y-50860514D01*
X152553884Y-50860514D02*
X152601503Y-50765276D01*
X152601503Y-50765276D02*
X152696741Y-50670038D01*
X152696741Y-50670038D02*
X152839598Y-50622419D01*
X152839598Y-50622419D02*
X152934836Y-50622419D01*
X152934836Y-50622419D02*
X153077693Y-50670038D01*
X153077693Y-50670038D02*
X153125312Y-50717657D01*
X153744360Y-50622419D02*
X153934836Y-50622419D01*
X153934836Y-50622419D02*
X154030074Y-50670038D01*
X154030074Y-50670038D02*
X154125312Y-50765276D01*
X154125312Y-50765276D02*
X154172931Y-50955752D01*
X154172931Y-50955752D02*
X154172931Y-51289085D01*
X154172931Y-51289085D02*
X154125312Y-51479561D01*
X154125312Y-51479561D02*
X154030074Y-51574800D01*
X154030074Y-51574800D02*
X153934836Y-51622419D01*
X153934836Y-51622419D02*
X153744360Y-51622419D01*
X153744360Y-51622419D02*
X153649122Y-51574800D01*
X153649122Y-51574800D02*
X153553884Y-51479561D01*
X153553884Y-51479561D02*
X153506265Y-51289085D01*
X153506265Y-51289085D02*
X153506265Y-50955752D01*
X153506265Y-50955752D02*
X153553884Y-50765276D01*
X153553884Y-50765276D02*
X153649122Y-50670038D01*
X153649122Y-50670038D02*
X153744360Y-50622419D01*
X154601503Y-51622419D02*
X154601503Y-50622419D01*
X154601503Y-50622419D02*
X154934836Y-51336704D01*
X154934836Y-51336704D02*
X155268169Y-50622419D01*
X155268169Y-50622419D02*
X155268169Y-51622419D01*
X153625312Y-117277180D02*
X153577693Y-117324800D01*
X153577693Y-117324800D02*
X153434836Y-117372419D01*
X153434836Y-117372419D02*
X153339598Y-117372419D01*
X153339598Y-117372419D02*
X153196741Y-117324800D01*
X153196741Y-117324800D02*
X153101503Y-117229561D01*
X153101503Y-117229561D02*
X153053884Y-117134323D01*
X153053884Y-117134323D02*
X153006265Y-116943847D01*
X153006265Y-116943847D02*
X153006265Y-116800990D01*
X153006265Y-116800990D02*
X153053884Y-116610514D01*
X153053884Y-116610514D02*
X153101503Y-116515276D01*
X153101503Y-116515276D02*
X153196741Y-116420038D01*
X153196741Y-116420038D02*
X153339598Y-116372419D01*
X153339598Y-116372419D02*
X153434836Y-116372419D01*
X153434836Y-116372419D02*
X153577693Y-116420038D01*
X153577693Y-116420038D02*
X153625312Y-116467657D01*
X154244360Y-116372419D02*
X154434836Y-116372419D01*
X154434836Y-116372419D02*
X154530074Y-116420038D01*
X154530074Y-116420038D02*
X154625312Y-116515276D01*
X154625312Y-116515276D02*
X154672931Y-116705752D01*
X154672931Y-116705752D02*
X154672931Y-117039085D01*
X154672931Y-117039085D02*
X154625312Y-117229561D01*
X154625312Y-117229561D02*
X154530074Y-117324800D01*
X154530074Y-117324800D02*
X154434836Y-117372419D01*
X154434836Y-117372419D02*
X154244360Y-117372419D01*
X154244360Y-117372419D02*
X154149122Y-117324800D01*
X154149122Y-117324800D02*
X154053884Y-117229561D01*
X154053884Y-117229561D02*
X154006265Y-117039085D01*
X154006265Y-117039085D02*
X154006265Y-116705752D01*
X154006265Y-116705752D02*
X154053884Y-116515276D01*
X154053884Y-116515276D02*
X154149122Y-116420038D01*
X154149122Y-116420038D02*
X154244360Y-116372419D01*
X155101503Y-117372419D02*
X155101503Y-116372419D01*
X155101503Y-116372419D02*
X155434836Y-117086704D01*
X155434836Y-117086704D02*
X155768169Y-116372419D01*
X155768169Y-116372419D02*
X155768169Y-117372419D01*
X158303884Y-51622419D02*
X158303884Y-50622419D01*
X158303884Y-50622419D02*
X158875312Y-51622419D01*
X158875312Y-51622419D02*
X158875312Y-50622419D01*
X159541979Y-50622419D02*
X159732455Y-50622419D01*
X159732455Y-50622419D02*
X159827693Y-50670038D01*
X159827693Y-50670038D02*
X159922931Y-50765276D01*
X159922931Y-50765276D02*
X159970550Y-50955752D01*
X159970550Y-50955752D02*
X159970550Y-51289085D01*
X159970550Y-51289085D02*
X159922931Y-51479561D01*
X159922931Y-51479561D02*
X159827693Y-51574800D01*
X159827693Y-51574800D02*
X159732455Y-51622419D01*
X159732455Y-51622419D02*
X159541979Y-51622419D01*
X159541979Y-51622419D02*
X159446741Y-51574800D01*
X159446741Y-51574800D02*
X159351503Y-51479561D01*
X159351503Y-51479561D02*
X159303884Y-51289085D01*
X159303884Y-51289085D02*
X159303884Y-50955752D01*
X159303884Y-50955752D02*
X159351503Y-50765276D01*
X159351503Y-50765276D02*
X159446741Y-50670038D01*
X159446741Y-50670038D02*
X159541979Y-50622419D01*
X158803884Y-117372419D02*
X158803884Y-116372419D01*
X158803884Y-116372419D02*
X159375312Y-117372419D01*
X159375312Y-117372419D02*
X159375312Y-116372419D01*
X160422931Y-117277180D02*
X160375312Y-117324800D01*
X160375312Y-117324800D02*
X160232455Y-117372419D01*
X160232455Y-117372419D02*
X160137217Y-117372419D01*
X160137217Y-117372419D02*
X159994360Y-117324800D01*
X159994360Y-117324800D02*
X159899122Y-117229561D01*
X159899122Y-117229561D02*
X159851503Y-117134323D01*
X159851503Y-117134323D02*
X159803884Y-116943847D01*
X159803884Y-116943847D02*
X159803884Y-116800990D01*
X159803884Y-116800990D02*
X159851503Y-116610514D01*
X159851503Y-116610514D02*
X159899122Y-116515276D01*
X159899122Y-116515276D02*
X159994360Y-116420038D01*
X159994360Y-116420038D02*
X160137217Y-116372419D01*
X160137217Y-116372419D02*
X160232455Y-116372419D01*
X160232455Y-116372419D02*
X160375312Y-116420038D01*
X160375312Y-116420038D02*
X160422931Y-116467657D01*
X159377693Y-85762475D02*
X158806265Y-85762475D01*
X159091979Y-85762475D02*
X159091979Y-84762475D01*
X159091979Y-84762475D02*
X158996741Y-84905332D01*
X158996741Y-84905332D02*
X158901503Y-85000570D01*
X158901503Y-85000570D02*
X158806265Y-85048189D01*
X159758646Y-84857713D02*
X159806265Y-84810094D01*
X159806265Y-84810094D02*
X159901503Y-84762475D01*
X159901503Y-84762475D02*
X160139598Y-84762475D01*
X160139598Y-84762475D02*
X160234836Y-84810094D01*
X160234836Y-84810094D02*
X160282455Y-84857713D01*
X160282455Y-84857713D02*
X160330074Y-84952951D01*
X160330074Y-84952951D02*
X160330074Y-85048189D01*
X160330074Y-85048189D02*
X160282455Y-85191046D01*
X160282455Y-85191046D02*
X159711027Y-85762475D01*
X159711027Y-85762475D02*
X160330074Y-85762475D01*
X160615789Y-84762475D02*
X160949122Y-85762475D01*
X160949122Y-85762475D02*
X161282455Y-84762475D01*
X162982455Y-55955752D02*
X162982455Y-56622419D01*
X162744360Y-55574800D02*
X162506265Y-56289085D01*
X162506265Y-56289085D02*
X163125312Y-56289085D01*
X162946741Y-112300990D02*
X162851503Y-112253371D01*
X162851503Y-112253371D02*
X162803884Y-112205752D01*
X162803884Y-112205752D02*
X162756265Y-112110514D01*
X162756265Y-112110514D02*
X162756265Y-112062895D01*
X162756265Y-112062895D02*
X162803884Y-111967657D01*
X162803884Y-111967657D02*
X162851503Y-111920038D01*
X162851503Y-111920038D02*
X162946741Y-111872419D01*
X162946741Y-111872419D02*
X163137217Y-111872419D01*
X163137217Y-111872419D02*
X163232455Y-111920038D01*
X163232455Y-111920038D02*
X163280074Y-111967657D01*
X163280074Y-111967657D02*
X163327693Y-112062895D01*
X163327693Y-112062895D02*
X163327693Y-112110514D01*
X163327693Y-112110514D02*
X163280074Y-112205752D01*
X163280074Y-112205752D02*
X163232455Y-112253371D01*
X163232455Y-112253371D02*
X163137217Y-112300990D01*
X163137217Y-112300990D02*
X162946741Y-112300990D01*
X162946741Y-112300990D02*
X162851503Y-112348609D01*
X162851503Y-112348609D02*
X162803884Y-112396228D01*
X162803884Y-112396228D02*
X162756265Y-112491466D01*
X162756265Y-112491466D02*
X162756265Y-112681942D01*
X162756265Y-112681942D02*
X162803884Y-112777180D01*
X162803884Y-112777180D02*
X162851503Y-112824800D01*
X162851503Y-112824800D02*
X162946741Y-112872419D01*
X162946741Y-112872419D02*
X163137217Y-112872419D01*
X163137217Y-112872419D02*
X163232455Y-112824800D01*
X163232455Y-112824800D02*
X163280074Y-112777180D01*
X163280074Y-112777180D02*
X163327693Y-112681942D01*
X163327693Y-112681942D02*
X163327693Y-112491466D01*
X163327693Y-112491466D02*
X163280074Y-112396228D01*
X163280074Y-112396228D02*
X163232455Y-112348609D01*
X163232455Y-112348609D02*
X163137217Y-112300990D01*
X166553884Y-116991466D02*
X167315789Y-116991466D01*
X166934836Y-117372419D02*
X166934836Y-116610514D01*
X168315788Y-117372419D02*
X167744360Y-117372419D01*
X168030074Y-117372419D02*
X168030074Y-116372419D01*
X168030074Y-116372419D02*
X167934836Y-116515276D01*
X167934836Y-116515276D02*
X167839598Y-116610514D01*
X167839598Y-116610514D02*
X167744360Y-116658133D01*
X168696741Y-116467657D02*
X168744360Y-116420038D01*
X168744360Y-116420038D02*
X168839598Y-116372419D01*
X168839598Y-116372419D02*
X169077693Y-116372419D01*
X169077693Y-116372419D02*
X169172931Y-116420038D01*
X169172931Y-116420038D02*
X169220550Y-116467657D01*
X169220550Y-116467657D02*
X169268169Y-116562895D01*
X169268169Y-116562895D02*
X169268169Y-116658133D01*
X169268169Y-116658133D02*
X169220550Y-116800990D01*
X169220550Y-116800990D02*
X168649122Y-117372419D01*
X168649122Y-117372419D02*
X169268169Y-117372419D01*
X169553884Y-116372419D02*
X169887217Y-117372419D01*
X169887217Y-117372419D02*
X170220550Y-116372419D01*
X169303884Y-51372419D02*
X169303884Y-50372419D01*
X169780074Y-51372419D02*
X169780074Y-50372419D01*
X169780074Y-50372419D02*
X170351502Y-51372419D01*
X170351502Y-51372419D02*
X170351502Y-50372419D01*
X170827693Y-51372419D02*
X170827693Y-50372419D01*
X170827693Y-50372419D02*
X171208645Y-50372419D01*
X171208645Y-50372419D02*
X171303883Y-50420038D01*
X171303883Y-50420038D02*
X171351502Y-50467657D01*
X171351502Y-50467657D02*
X171399121Y-50562895D01*
X171399121Y-50562895D02*
X171399121Y-50705752D01*
X171399121Y-50705752D02*
X171351502Y-50800990D01*
X171351502Y-50800990D02*
X171303883Y-50848609D01*
X171303883Y-50848609D02*
X171208645Y-50896228D01*
X171208645Y-50896228D02*
X170827693Y-50896228D01*
X171827693Y-50372419D02*
X171827693Y-51181942D01*
X171827693Y-51181942D02*
X171875312Y-51277180D01*
X171875312Y-51277180D02*
X171922931Y-51324800D01*
X171922931Y-51324800D02*
X172018169Y-51372419D01*
X172018169Y-51372419D02*
X172208645Y-51372419D01*
X172208645Y-51372419D02*
X172303883Y-51324800D01*
X172303883Y-51324800D02*
X172351502Y-51277180D01*
X172351502Y-51277180D02*
X172399121Y-51181942D01*
X172399121Y-51181942D02*
X172399121Y-50372419D01*
X172732455Y-50372419D02*
X173303883Y-50372419D01*
X173018169Y-51372419D02*
X173018169Y-50372419D01*
X174922931Y-51372419D02*
X174351503Y-51372419D01*
X174637217Y-51372419D02*
X174637217Y-50372419D01*
X174637217Y-50372419D02*
X174541979Y-50515276D01*
X174541979Y-50515276D02*
X174446741Y-50610514D01*
X174446741Y-50610514D02*
X174351503Y-50658133D01*
X173327693Y-116420038D02*
X173232455Y-116372419D01*
X173232455Y-116372419D02*
X173089598Y-116372419D01*
X173089598Y-116372419D02*
X172946741Y-116420038D01*
X172946741Y-116420038D02*
X172851503Y-116515276D01*
X172851503Y-116515276D02*
X172803884Y-116610514D01*
X172803884Y-116610514D02*
X172756265Y-116800990D01*
X172756265Y-116800990D02*
X172756265Y-116943847D01*
X172756265Y-116943847D02*
X172803884Y-117134323D01*
X172803884Y-117134323D02*
X172851503Y-117229561D01*
X172851503Y-117229561D02*
X172946741Y-117324800D01*
X172946741Y-117324800D02*
X173089598Y-117372419D01*
X173089598Y-117372419D02*
X173184836Y-117372419D01*
X173184836Y-117372419D02*
X173327693Y-117324800D01*
X173327693Y-117324800D02*
X173375312Y-117277180D01*
X173375312Y-117277180D02*
X173375312Y-116943847D01*
X173375312Y-116943847D02*
X173184836Y-116943847D01*
X173803884Y-117372419D02*
X173803884Y-116372419D01*
X173803884Y-116372419D02*
X174375312Y-117372419D01*
X174375312Y-117372419D02*
X174375312Y-116372419D01*
X174851503Y-117372419D02*
X174851503Y-116372419D01*
X174851503Y-116372419D02*
X175089598Y-116372419D01*
X175089598Y-116372419D02*
X175232455Y-116420038D01*
X175232455Y-116420038D02*
X175327693Y-116515276D01*
X175327693Y-116515276D02*
X175375312Y-116610514D01*
X175375312Y-116610514D02*
X175422931Y-116800990D01*
X175422931Y-116800990D02*
X175422931Y-116943847D01*
X175422931Y-116943847D02*
X175375312Y-117134323D01*
X175375312Y-117134323D02*
X175327693Y-117229561D01*
X175327693Y-117229561D02*
X175232455Y-117324800D01*
X175232455Y-117324800D02*
X175089598Y-117372419D01*
X175089598Y-117372419D02*
X174851503Y-117372419D01*
X181077693Y-51422419D02*
X180506265Y-51422419D01*
X180791979Y-51422419D02*
X180791979Y-50422419D01*
X180791979Y-50422419D02*
X180696741Y-50565276D01*
X180696741Y-50565276D02*
X180601503Y-50660514D01*
X180601503Y-50660514D02*
X180506265Y-50708133D01*
X181458646Y-50517657D02*
X181506265Y-50470038D01*
X181506265Y-50470038D02*
X181601503Y-50422419D01*
X181601503Y-50422419D02*
X181839598Y-50422419D01*
X181839598Y-50422419D02*
X181934836Y-50470038D01*
X181934836Y-50470038D02*
X181982455Y-50517657D01*
X181982455Y-50517657D02*
X182030074Y-50612895D01*
X182030074Y-50612895D02*
X182030074Y-50708133D01*
X182030074Y-50708133D02*
X181982455Y-50850990D01*
X181982455Y-50850990D02*
X181411027Y-51422419D01*
X181411027Y-51422419D02*
X182030074Y-51422419D01*
X182315789Y-50422419D02*
X182649122Y-51422419D01*
X182649122Y-51422419D02*
X182982455Y-50422419D01*
X186556265Y-51136704D02*
X187032455Y-51136704D01*
X186461027Y-51422419D02*
X186794360Y-50422419D01*
X186794360Y-50422419D02*
X187127693Y-51422419D01*
X191837217Y-50898609D02*
X191980074Y-50946228D01*
X191980074Y-50946228D02*
X192027693Y-50993847D01*
X192027693Y-50993847D02*
X192075312Y-51089085D01*
X192075312Y-51089085D02*
X192075312Y-51231942D01*
X192075312Y-51231942D02*
X192027693Y-51327180D01*
X192027693Y-51327180D02*
X191980074Y-51374800D01*
X191980074Y-51374800D02*
X191884836Y-51422419D01*
X191884836Y-51422419D02*
X191503884Y-51422419D01*
X191503884Y-51422419D02*
X191503884Y-50422419D01*
X191503884Y-50422419D02*
X191837217Y-50422419D01*
X191837217Y-50422419D02*
X191932455Y-50470038D01*
X191932455Y-50470038D02*
X191980074Y-50517657D01*
X191980074Y-50517657D02*
X192027693Y-50612895D01*
X192027693Y-50612895D02*
X192027693Y-50708133D01*
X192027693Y-50708133D02*
X191980074Y-50803371D01*
X191980074Y-50803371D02*
X191932455Y-50850990D01*
X191932455Y-50850990D02*
X191837217Y-50898609D01*
X191837217Y-50898609D02*
X191503884Y-50898609D01*
X196227693Y-50470038D02*
X196132455Y-50422419D01*
X196132455Y-50422419D02*
X195989598Y-50422419D01*
X195989598Y-50422419D02*
X195846741Y-50470038D01*
X195846741Y-50470038D02*
X195751503Y-50565276D01*
X195751503Y-50565276D02*
X195703884Y-50660514D01*
X195703884Y-50660514D02*
X195656265Y-50850990D01*
X195656265Y-50850990D02*
X195656265Y-50993847D01*
X195656265Y-50993847D02*
X195703884Y-51184323D01*
X195703884Y-51184323D02*
X195751503Y-51279561D01*
X195751503Y-51279561D02*
X195846741Y-51374800D01*
X195846741Y-51374800D02*
X195989598Y-51422419D01*
X195989598Y-51422419D02*
X196084836Y-51422419D01*
X196084836Y-51422419D02*
X196227693Y-51374800D01*
X196227693Y-51374800D02*
X196275312Y-51327180D01*
X196275312Y-51327180D02*
X196275312Y-50993847D01*
X196275312Y-50993847D02*
X196084836Y-50993847D01*
X196703884Y-51422419D02*
X196703884Y-50422419D01*
X196703884Y-50422419D02*
X197275312Y-51422419D01*
X197275312Y-51422419D02*
X197275312Y-50422419D01*
X197751503Y-51422419D02*
X197751503Y-50422419D01*
X197751503Y-50422419D02*
X197989598Y-50422419D01*
X197989598Y-50422419D02*
X198132455Y-50470038D01*
X198132455Y-50470038D02*
X198227693Y-50565276D01*
X198227693Y-50565276D02*
X198275312Y-50660514D01*
X198275312Y-50660514D02*
X198322931Y-50850990D01*
X198322931Y-50850990D02*
X198322931Y-50993847D01*
X198322931Y-50993847D02*
X198275312Y-51184323D01*
X198275312Y-51184323D02*
X198227693Y-51279561D01*
X198227693Y-51279561D02*
X198132455Y-51374800D01*
X198132455Y-51374800D02*
X197989598Y-51422419D01*
X197989598Y-51422419D02*
X197751503Y-51422419D01*
X201530074Y-114372419D02*
X201053884Y-114372419D01*
X201053884Y-114372419D02*
X201006265Y-114848609D01*
X201006265Y-114848609D02*
X201053884Y-114800990D01*
X201053884Y-114800990D02*
X201149122Y-114753371D01*
X201149122Y-114753371D02*
X201387217Y-114753371D01*
X201387217Y-114753371D02*
X201482455Y-114800990D01*
X201482455Y-114800990D02*
X201530074Y-114848609D01*
X201530074Y-114848609D02*
X201577693Y-114943847D01*
X201577693Y-114943847D02*
X201577693Y-115181942D01*
X201577693Y-115181942D02*
X201530074Y-115277180D01*
X201530074Y-115277180D02*
X201482455Y-115324800D01*
X201482455Y-115324800D02*
X201387217Y-115372419D01*
X201387217Y-115372419D02*
X201149122Y-115372419D01*
X201149122Y-115372419D02*
X201053884Y-115324800D01*
X201053884Y-115324800D02*
X201006265Y-115277180D01*
X201863408Y-114372419D02*
X202196741Y-115372419D01*
X202196741Y-115372419D02*
X202530074Y-114372419D01*
X204387217Y-93848609D02*
X204530074Y-93896228D01*
X204530074Y-93896228D02*
X204577693Y-93943847D01*
X204577693Y-93943847D02*
X204625312Y-94039085D01*
X204625312Y-94039085D02*
X204625312Y-94181942D01*
X204625312Y-94181942D02*
X204577693Y-94277180D01*
X204577693Y-94277180D02*
X204530074Y-94324800D01*
X204530074Y-94324800D02*
X204434836Y-94372419D01*
X204434836Y-94372419D02*
X204053884Y-94372419D01*
X204053884Y-94372419D02*
X204053884Y-93372419D01*
X204053884Y-93372419D02*
X204387217Y-93372419D01*
X204387217Y-93372419D02*
X204482455Y-93420038D01*
X204482455Y-93420038D02*
X204530074Y-93467657D01*
X204530074Y-93467657D02*
X204577693Y-93562895D01*
X204577693Y-93562895D02*
X204577693Y-93658133D01*
X204577693Y-93658133D02*
X204530074Y-93753371D01*
X204530074Y-93753371D02*
X204482455Y-93800990D01*
X204482455Y-93800990D02*
X204387217Y-93848609D01*
X204387217Y-93848609D02*
X204053884Y-93848609D01*
X205244360Y-93372419D02*
X205434836Y-93372419D01*
X205434836Y-93372419D02*
X205530074Y-93420038D01*
X205530074Y-93420038D02*
X205625312Y-93515276D01*
X205625312Y-93515276D02*
X205672931Y-93705752D01*
X205672931Y-93705752D02*
X205672931Y-94039085D01*
X205672931Y-94039085D02*
X205625312Y-94229561D01*
X205625312Y-94229561D02*
X205530074Y-94324800D01*
X205530074Y-94324800D02*
X205434836Y-94372419D01*
X205434836Y-94372419D02*
X205244360Y-94372419D01*
X205244360Y-94372419D02*
X205149122Y-94324800D01*
X205149122Y-94324800D02*
X205053884Y-94229561D01*
X205053884Y-94229561D02*
X205006265Y-94039085D01*
X205006265Y-94039085D02*
X205006265Y-93705752D01*
X205006265Y-93705752D02*
X205053884Y-93515276D01*
X205053884Y-93515276D02*
X205149122Y-93420038D01*
X205149122Y-93420038D02*
X205244360Y-93372419D01*
X206291979Y-93372419D02*
X206482455Y-93372419D01*
X206482455Y-93372419D02*
X206577693Y-93420038D01*
X206577693Y-93420038D02*
X206672931Y-93515276D01*
X206672931Y-93515276D02*
X206720550Y-93705752D01*
X206720550Y-93705752D02*
X206720550Y-94039085D01*
X206720550Y-94039085D02*
X206672931Y-94229561D01*
X206672931Y-94229561D02*
X206577693Y-94324800D01*
X206577693Y-94324800D02*
X206482455Y-94372419D01*
X206482455Y-94372419D02*
X206291979Y-94372419D01*
X206291979Y-94372419D02*
X206196741Y-94324800D01*
X206196741Y-94324800D02*
X206101503Y-94229561D01*
X206101503Y-94229561D02*
X206053884Y-94039085D01*
X206053884Y-94039085D02*
X206053884Y-93705752D01*
X206053884Y-93705752D02*
X206101503Y-93515276D01*
X206101503Y-93515276D02*
X206196741Y-93420038D01*
X206196741Y-93420038D02*
X206291979Y-93372419D01*
X207006265Y-93372419D02*
X207577693Y-93372419D01*
X207291979Y-94372419D02*
X207291979Y-93372419D01*
X88488665Y-60862782D02*
X88488665Y-61196115D01*
X89012475Y-61196115D02*
X88012475Y-61196115D01*
X88012475Y-61196115D02*
X88012475Y-60719925D01*
X89012475Y-60338972D02*
X88345808Y-60338972D01*
X88012475Y-60338972D02*
X88060094Y-60386591D01*
X88060094Y-60386591D02*
X88107713Y-60338972D01*
X88107713Y-60338972D02*
X88060094Y-60291353D01*
X88060094Y-60291353D02*
X88012475Y-60338972D01*
X88012475Y-60338972D02*
X88107713Y-60338972D01*
X89012475Y-59434211D02*
X88488665Y-59434211D01*
X88488665Y-59434211D02*
X88393427Y-59481830D01*
X88393427Y-59481830D02*
X88345808Y-59577068D01*
X88345808Y-59577068D02*
X88345808Y-59767544D01*
X88345808Y-59767544D02*
X88393427Y-59862782D01*
X88964856Y-59434211D02*
X89012475Y-59529449D01*
X89012475Y-59529449D02*
X89012475Y-59767544D01*
X89012475Y-59767544D02*
X88964856Y-59862782D01*
X88964856Y-59862782D02*
X88869617Y-59910401D01*
X88869617Y-59910401D02*
X88774379Y-59910401D01*
X88774379Y-59910401D02*
X88679141Y-59862782D01*
X88679141Y-59862782D02*
X88631522Y-59767544D01*
X88631522Y-59767544D02*
X88631522Y-59529449D01*
X88631522Y-59529449D02*
X88583903Y-59434211D01*
X88345808Y-59100877D02*
X88345808Y-58719925D01*
X88012475Y-58958020D02*
X88869617Y-58958020D01*
X88869617Y-58958020D02*
X88964856Y-58910401D01*
X88964856Y-58910401D02*
X89012475Y-58815163D01*
X89012475Y-58815163D02*
X89012475Y-58719925D01*
X89012475Y-57148496D02*
X89012475Y-57624686D01*
X89012475Y-57624686D02*
X88012475Y-57624686D01*
X88345808Y-56386591D02*
X89012475Y-56386591D01*
X88345808Y-56815162D02*
X88869617Y-56815162D01*
X88869617Y-56815162D02*
X88964856Y-56767543D01*
X88964856Y-56767543D02*
X89012475Y-56672305D01*
X89012475Y-56672305D02*
X89012475Y-56529448D01*
X89012475Y-56529448D02*
X88964856Y-56434210D01*
X88964856Y-56434210D02*
X88917236Y-56386591D01*
X89012475Y-56005638D02*
X88345808Y-55481829D01*
X88345808Y-56005638D02*
X89012475Y-55481829D01*
X90241466Y-61338972D02*
X90193847Y-61291353D01*
X90193847Y-61291353D02*
X90146228Y-61196115D01*
X90146228Y-61196115D02*
X90241466Y-61005639D01*
X90241466Y-61005639D02*
X90193847Y-60910401D01*
X90193847Y-60910401D02*
X90146228Y-60862782D01*
X90622419Y-59719924D02*
X89622419Y-59719924D01*
X89622419Y-59719924D02*
X89622419Y-59338972D01*
X89622419Y-59338972D02*
X89670038Y-59243734D01*
X89670038Y-59243734D02*
X89717657Y-59196115D01*
X89717657Y-59196115D02*
X89812895Y-59148496D01*
X89812895Y-59148496D02*
X89955752Y-59148496D01*
X89955752Y-59148496D02*
X90050990Y-59196115D01*
X90050990Y-59196115D02*
X90098609Y-59243734D01*
X90098609Y-59243734D02*
X90146228Y-59338972D01*
X90146228Y-59338972D02*
X90146228Y-59719924D01*
X90527180Y-58719924D02*
X90574800Y-58672305D01*
X90574800Y-58672305D02*
X90622419Y-58719924D01*
X90622419Y-58719924D02*
X90574800Y-58767543D01*
X90574800Y-58767543D02*
X90527180Y-58719924D01*
X90527180Y-58719924D02*
X90622419Y-58719924D01*
X90574800Y-58291353D02*
X90622419Y-58148496D01*
X90622419Y-58148496D02*
X90622419Y-57910401D01*
X90622419Y-57910401D02*
X90574800Y-57815163D01*
X90574800Y-57815163D02*
X90527180Y-57767544D01*
X90527180Y-57767544D02*
X90431942Y-57719925D01*
X90431942Y-57719925D02*
X90336704Y-57719925D01*
X90336704Y-57719925D02*
X90241466Y-57767544D01*
X90241466Y-57767544D02*
X90193847Y-57815163D01*
X90193847Y-57815163D02*
X90146228Y-57910401D01*
X90146228Y-57910401D02*
X90098609Y-58100877D01*
X90098609Y-58100877D02*
X90050990Y-58196115D01*
X90050990Y-58196115D02*
X90003371Y-58243734D01*
X90003371Y-58243734D02*
X89908133Y-58291353D01*
X89908133Y-58291353D02*
X89812895Y-58291353D01*
X89812895Y-58291353D02*
X89717657Y-58243734D01*
X89717657Y-58243734D02*
X89670038Y-58196115D01*
X89670038Y-58196115D02*
X89622419Y-58100877D01*
X89622419Y-58100877D02*
X89622419Y-57862782D01*
X89622419Y-57862782D02*
X89670038Y-57719925D01*
X162772419Y-62341353D02*
X162772419Y-61722306D01*
X162772419Y-61722306D02*
X163153371Y-62055639D01*
X163153371Y-62055639D02*
X163153371Y-61912782D01*
X163153371Y-61912782D02*
X163200990Y-61817544D01*
X163200990Y-61817544D02*
X163248609Y-61769925D01*
X163248609Y-61769925D02*
X163343847Y-61722306D01*
X163343847Y-61722306D02*
X163581942Y-61722306D01*
X163581942Y-61722306D02*
X163677180Y-61769925D01*
X163677180Y-61769925D02*
X163724800Y-61817544D01*
X163724800Y-61817544D02*
X163772419Y-61912782D01*
X163772419Y-61912782D02*
X163772419Y-62198496D01*
X163772419Y-62198496D02*
X163724800Y-62293734D01*
X163724800Y-62293734D02*
X163677180Y-62341353D01*
X163677180Y-61293734D02*
X163724800Y-61246115D01*
X163724800Y-61246115D02*
X163772419Y-61293734D01*
X163772419Y-61293734D02*
X163724800Y-61341353D01*
X163724800Y-61341353D02*
X163677180Y-61293734D01*
X163677180Y-61293734D02*
X163772419Y-61293734D01*
X162772419Y-60912782D02*
X162772419Y-60293735D01*
X162772419Y-60293735D02*
X163153371Y-60627068D01*
X163153371Y-60627068D02*
X163153371Y-60484211D01*
X163153371Y-60484211D02*
X163200990Y-60388973D01*
X163200990Y-60388973D02*
X163248609Y-60341354D01*
X163248609Y-60341354D02*
X163343847Y-60293735D01*
X163343847Y-60293735D02*
X163581942Y-60293735D01*
X163581942Y-60293735D02*
X163677180Y-60341354D01*
X163677180Y-60341354D02*
X163724800Y-60388973D01*
X163724800Y-60388973D02*
X163772419Y-60484211D01*
X163772419Y-60484211D02*
X163772419Y-60769925D01*
X163772419Y-60769925D02*
X163724800Y-60865163D01*
X163724800Y-60865163D02*
X163677180Y-60912782D01*
X162772419Y-60008020D02*
X163772419Y-59674687D01*
X163772419Y-59674687D02*
X162772419Y-59341354D01*
X201122419Y-65624687D02*
X200646228Y-65958020D01*
X201122419Y-66196115D02*
X200122419Y-66196115D01*
X200122419Y-66196115D02*
X200122419Y-65815163D01*
X200122419Y-65815163D02*
X200170038Y-65719925D01*
X200170038Y-65719925D02*
X200217657Y-65672306D01*
X200217657Y-65672306D02*
X200312895Y-65624687D01*
X200312895Y-65624687D02*
X200455752Y-65624687D01*
X200455752Y-65624687D02*
X200550990Y-65672306D01*
X200550990Y-65672306D02*
X200598609Y-65719925D01*
X200598609Y-65719925D02*
X200646228Y-65815163D01*
X200646228Y-65815163D02*
X200646228Y-66196115D01*
X200598609Y-65196115D02*
X200598609Y-64862782D01*
X201122419Y-64719925D02*
X201122419Y-65196115D01*
X201122419Y-65196115D02*
X200122419Y-65196115D01*
X200122419Y-65196115D02*
X200122419Y-64719925D01*
X201074800Y-64338972D02*
X201122419Y-64196115D01*
X201122419Y-64196115D02*
X201122419Y-63958020D01*
X201122419Y-63958020D02*
X201074800Y-63862782D01*
X201074800Y-63862782D02*
X201027180Y-63815163D01*
X201027180Y-63815163D02*
X200931942Y-63767544D01*
X200931942Y-63767544D02*
X200836704Y-63767544D01*
X200836704Y-63767544D02*
X200741466Y-63815163D01*
X200741466Y-63815163D02*
X200693847Y-63862782D01*
X200693847Y-63862782D02*
X200646228Y-63958020D01*
X200646228Y-63958020D02*
X200598609Y-64148496D01*
X200598609Y-64148496D02*
X200550990Y-64243734D01*
X200550990Y-64243734D02*
X200503371Y-64291353D01*
X200503371Y-64291353D02*
X200408133Y-64338972D01*
X200408133Y-64338972D02*
X200312895Y-64338972D01*
X200312895Y-64338972D02*
X200217657Y-64291353D01*
X200217657Y-64291353D02*
X200170038Y-64243734D01*
X200170038Y-64243734D02*
X200122419Y-64148496D01*
X200122419Y-64148496D02*
X200122419Y-63910401D01*
X200122419Y-63910401D02*
X200170038Y-63767544D01*
X200598609Y-63338972D02*
X200598609Y-63005639D01*
X201122419Y-62862782D02*
X201122419Y-63338972D01*
X201122419Y-63338972D02*
X200122419Y-63338972D01*
X200122419Y-63338972D02*
X200122419Y-62862782D01*
X200122419Y-62577067D02*
X200122419Y-62005639D01*
X201122419Y-62291353D02*
X200122419Y-62291353D01*
D11*
X170211905Y-74054819D02*
X170211905Y-73054819D01*
X170211905Y-73054819D02*
X170450000Y-73054819D01*
X170450000Y-73054819D02*
X170592857Y-73102438D01*
X170592857Y-73102438D02*
X170688095Y-73197676D01*
X170688095Y-73197676D02*
X170735714Y-73292914D01*
X170735714Y-73292914D02*
X170783333Y-73483390D01*
X170783333Y-73483390D02*
X170783333Y-73626247D01*
X170783333Y-73626247D02*
X170735714Y-73816723D01*
X170735714Y-73816723D02*
X170688095Y-73911961D01*
X170688095Y-73911961D02*
X170592857Y-74007200D01*
X170592857Y-74007200D02*
X170450000Y-74054819D01*
X170450000Y-74054819D02*
X170211905Y-74054819D01*
X171116667Y-73054819D02*
X171735714Y-73054819D01*
X171735714Y-73054819D02*
X171402381Y-73435771D01*
X171402381Y-73435771D02*
X171545238Y-73435771D01*
X171545238Y-73435771D02*
X171640476Y-73483390D01*
X171640476Y-73483390D02*
X171688095Y-73531009D01*
X171688095Y-73531009D02*
X171735714Y-73626247D01*
X171735714Y-73626247D02*
X171735714Y-73864342D01*
X171735714Y-73864342D02*
X171688095Y-73959580D01*
X171688095Y-73959580D02*
X171640476Y-74007200D01*
X171640476Y-74007200D02*
X171545238Y-74054819D01*
X171545238Y-74054819D02*
X171259524Y-74054819D01*
X171259524Y-74054819D02*
X171164286Y-74007200D01*
X171164286Y-74007200D02*
X171116667Y-73959580D01*
X181559048Y-65533866D02*
X182320953Y-65533866D01*
X181940000Y-65914819D02*
X181940000Y-65152914D01*
%TO.C,J1*%
D12*
X166380000Y-107330000D02*
X173700000Y-107330000D01*
X166380000Y-115370000D02*
X166380000Y-107330000D01*
X167188000Y-110750000D02*
X166380000Y-110750000D01*
X167188000Y-111750000D02*
X166380000Y-111750000D01*
X168457000Y-109450000D02*
X166380000Y-109450000D01*
X172120000Y-109450000D02*
X169543000Y-109450000D01*
X172120000Y-110750000D02*
X170812000Y-110750000D01*
X172120000Y-111750000D02*
X170812000Y-111750000D01*
X174300000Y-107330000D02*
X177120000Y-107330000D01*
X177120000Y-107330000D02*
X177120000Y-115370000D01*
X177120000Y-109450000D02*
X175880000Y-109450000D01*
X177120000Y-110750000D02*
X175880000Y-110750000D01*
X177120000Y-111750000D02*
X175880000Y-111750000D01*
X177120000Y-115370000D02*
X166380000Y-115370000D01*
X174000000Y-107330000D02*
X173560000Y-106720000D01*
X174440000Y-106720000D01*
X174000000Y-107330000D01*
G36*
X174000000Y-107330000D02*
G01*
X173560000Y-106720000D01*
X174440000Y-106720000D01*
X174000000Y-107330000D01*
G37*
%TO.C,R26*%
X201262742Y-50477500D02*
X201737258Y-50477500D01*
X201262742Y-51522500D02*
X201737258Y-51522500D01*
%TO.C,D15*%
X192250000Y-65250000D02*
X192250000Y-70750000D01*
X192250000Y-65250000D02*
X199250000Y-65250000D01*
X192250000Y-70750000D02*
X198800000Y-70750000D01*
X193050000Y-68900000D02*
X193050000Y-67100000D01*
X198450000Y-68900000D02*
X198450000Y-67100000D01*
X198800000Y-70750000D02*
X199250000Y-70300000D01*
X199250000Y-70300000D02*
X199250000Y-65250000D01*
%TO.C,C19*%
X203165580Y-69740000D02*
X202884420Y-69740000D01*
X203165580Y-70760000D02*
X202884420Y-70760000D01*
%TO.C,J10*%
X93380000Y-107880000D02*
X109120000Y-107880000D01*
X93380000Y-111500000D02*
X94620000Y-111500000D01*
X93380000Y-112500000D02*
X94620000Y-112500000D01*
X93380000Y-113800000D02*
X94620000Y-113800000D01*
X93380000Y-115920000D02*
X93380000Y-107880000D01*
X96200000Y-115920000D02*
X93380000Y-115920000D01*
X98380000Y-111500000D02*
X99688000Y-111500000D01*
X98380000Y-112500000D02*
X99688000Y-112500000D01*
X98380000Y-113800000D02*
X100957000Y-113800000D01*
X102043000Y-113800000D02*
X105957000Y-113800000D01*
X103312000Y-111500000D02*
X104688000Y-111500000D01*
X103312000Y-112500000D02*
X104688000Y-112500000D01*
X107043000Y-113800000D02*
X109120000Y-113800000D01*
X108312000Y-111500000D02*
X109120000Y-111500000D01*
X108312000Y-112500000D02*
X109120000Y-112500000D01*
X109120000Y-107880000D02*
X109120000Y-115920000D01*
X109120000Y-115920000D02*
X96800000Y-115920000D01*
X96500000Y-115920000D02*
X96940000Y-116530000D01*
X96060000Y-116530000D01*
X96500000Y-115920000D01*
G36*
X96940000Y-116530000D02*
G01*
X96060000Y-116530000D01*
X96500000Y-115920000D01*
X96940000Y-116530000D01*
G37*
%TO.C,J11*%
X128880000Y-52280000D02*
X141200000Y-52280000D01*
X128880000Y-60320000D02*
X128880000Y-52280000D01*
X129688000Y-55700000D02*
X128880000Y-55700000D01*
X129688000Y-56700000D02*
X128880000Y-56700000D01*
X130957000Y-54400000D02*
X128880000Y-54400000D01*
X134688000Y-55700000D02*
X133312000Y-55700000D01*
X134688000Y-56700000D02*
X133312000Y-56700000D01*
X135957000Y-54400000D02*
X132043000Y-54400000D01*
X139620000Y-54400000D02*
X137043000Y-54400000D01*
X139620000Y-55700000D02*
X138312000Y-55700000D01*
X139620000Y-56700000D02*
X138312000Y-56700000D01*
X141800000Y-52280000D02*
X144620000Y-52280000D01*
X144620000Y-52280000D02*
X144620000Y-60320000D01*
X144620000Y-54400000D02*
X143380000Y-54400000D01*
X144620000Y-55700000D02*
X143380000Y-55700000D01*
X144620000Y-56700000D02*
X143380000Y-56700000D01*
X144620000Y-60320000D02*
X128880000Y-60320000D01*
X141500000Y-52280000D02*
X141060000Y-51670000D01*
X141940000Y-51670000D01*
X141500000Y-52280000D01*
G36*
X141500000Y-52280000D02*
G01*
X141060000Y-51670000D01*
X141940000Y-51670000D01*
X141500000Y-52280000D01*
G37*
%TO.C,U6*%
X194940000Y-102940000D02*
X199060000Y-102940000D01*
X194940000Y-102995000D02*
X194940000Y-102940000D01*
X194940000Y-113060000D02*
X194940000Y-113005000D01*
X199060000Y-102940000D02*
X199060000Y-102995000D01*
X199060000Y-113005000D02*
X199060000Y-113060000D01*
X199060000Y-113060000D02*
X194940000Y-113060000D01*
X199600000Y-113010000D02*
X199840000Y-113340000D01*
X199360000Y-113340000D01*
X199600000Y-113010000D01*
G36*
X199840000Y-113340000D02*
G01*
X199360000Y-113340000D01*
X199600000Y-113010000D01*
X199840000Y-113340000D01*
G37*
%TO.C,K7*%
X146450000Y-106700000D02*
X146450000Y-86900000D01*
X148200000Y-91850000D02*
X148200000Y-94350000D01*
X150050000Y-102450000D02*
X152500000Y-102450000D01*
X150600000Y-97750000D02*
X150600000Y-90950000D01*
X152400000Y-92350000D02*
X156000000Y-92350000D01*
X152400000Y-94350000D02*
X148200000Y-94350000D01*
X152400000Y-96350000D02*
X152400000Y-92350000D01*
X152400000Y-96350000D02*
X156000000Y-92350000D01*
X153050000Y-86900000D02*
X146450000Y-86900000D01*
X154200000Y-90950000D02*
X150600000Y-90950000D01*
X154200000Y-90950000D02*
X154200000Y-90150000D01*
X154200000Y-97750000D02*
X150600000Y-97750000D01*
X154200000Y-97750000D02*
X154200000Y-99250000D01*
X154200000Y-99250000D02*
X156700000Y-103850000D01*
X156000000Y-92350000D02*
X156000000Y-96350000D01*
X156000000Y-96350000D02*
X152400000Y-96350000D01*
X158450000Y-102450000D02*
X155950000Y-102450000D01*
X160200000Y-94350000D02*
X156000000Y-94350000D01*
X160200000Y-94350000D02*
X160200000Y-91850000D01*
X162050000Y-86900000D02*
X155450000Y-86900000D01*
X162050000Y-86900000D02*
X162050000Y-106700000D01*
X162050000Y-106700000D02*
X146450000Y-106700000D01*
%TO.C,L1*%
X165165000Y-74840000D02*
X171835000Y-74840000D01*
X165165000Y-76240000D02*
X165165000Y-74840000D01*
X165165000Y-81660000D02*
X165165000Y-80260000D01*
X171835000Y-74840000D02*
X171835000Y-76240000D01*
X171835000Y-80260000D02*
X171835000Y-81660000D01*
X171835000Y-81660000D02*
X165165000Y-81660000D01*
%TO.C,C2*%
X179540000Y-98090000D02*
X179540000Y-100440000D01*
X179540000Y-104910000D02*
X179540000Y-102560000D01*
X185295563Y-98090000D02*
X179540000Y-98090000D01*
X185295563Y-104910000D02*
X179540000Y-104910000D01*
X186360000Y-99154437D02*
X185295563Y-98090000D01*
X186360000Y-99154437D02*
X186360000Y-100440000D01*
X186360000Y-103845563D02*
X185295563Y-104910000D01*
X186360000Y-103845563D02*
X186360000Y-102560000D01*
X186993750Y-103741250D02*
X186993750Y-102953750D01*
X187387500Y-103347500D02*
X186600000Y-103347500D01*
%TO.C,J5*%
X207400000Y-103470000D02*
X205700000Y-103470000D01*
X207400000Y-112810000D02*
X205700000Y-112810000D01*
%TO.C,Q5*%
X188390000Y-74427500D02*
X189390000Y-74427500D01*
X188390000Y-75947500D02*
X188390000Y-74427500D01*
X188440000Y-75947500D02*
X188390000Y-75947500D01*
X190340000Y-75947500D02*
X189560000Y-75947500D01*
X190510000Y-74427500D02*
X191510000Y-74427500D01*
X191510000Y-74427500D02*
X191510000Y-75947500D01*
X191510000Y-75947500D02*
X191460000Y-75947500D01*
X189570000Y-76487500D02*
X189900000Y-76247500D01*
X189900000Y-76727500D01*
X189570000Y-76487500D01*
G36*
X189900000Y-76727500D02*
G01*
X189570000Y-76487500D01*
X189900000Y-76247500D01*
X189900000Y-76727500D01*
G37*
%TO.C,C14*%
X209359420Y-71740000D02*
X209640580Y-71740000D01*
X209359420Y-72760000D02*
X209640580Y-72760000D01*
%TO.C,R14*%
X176437742Y-74227500D02*
X176912258Y-74227500D01*
X176437742Y-75272500D02*
X176912258Y-75272500D01*
%TO.C,JP1*%
X205595000Y-59880000D02*
X205595000Y-58500000D01*
X206975000Y-59880000D02*
X205595000Y-59880000D01*
X208245000Y-57120000D02*
X210895000Y-57120000D01*
X208245000Y-59880000D02*
X208245000Y-57120000D01*
X208245000Y-59880000D02*
X210895000Y-59880000D01*
X210895000Y-59880000D02*
X210895000Y-57120000D01*
%TO.C,C12*%
X166261252Y-87265000D02*
X165738748Y-87265000D01*
X166261252Y-88735000D02*
X165738748Y-88735000D01*
%TO.C,C21*%
X209359420Y-69740000D02*
X209640580Y-69740000D01*
X209359420Y-70760000D02*
X209640580Y-70760000D01*
%TO.C,L2*%
X165340000Y-62915000D02*
X166740000Y-62915000D01*
X165340000Y-69585000D02*
X165340000Y-62915000D01*
X166740000Y-69585000D02*
X165340000Y-69585000D01*
X170760000Y-62915000D02*
X172160000Y-62915000D01*
X172160000Y-62915000D02*
X172160000Y-69585000D01*
X172160000Y-69585000D02*
X170760000Y-69585000D01*
%TO.C,U4*%
X196090000Y-113440000D02*
X197910000Y-113440000D01*
X196090000Y-113490000D02*
X196090000Y-113440000D01*
X196090000Y-116560000D02*
X196090000Y-116510000D01*
X197910000Y-113440000D02*
X197910000Y-113490000D01*
X197910000Y-116510000D02*
X197910000Y-116560000D01*
X197910000Y-116560000D02*
X196090000Y-116560000D01*
X195550000Y-113490000D02*
X195310000Y-113160000D01*
X195790000Y-113160000D01*
X195550000Y-113490000D01*
G36*
X195550000Y-113490000D02*
G01*
X195310000Y-113160000D01*
X195790000Y-113160000D01*
X195550000Y-113490000D01*
G37*
%TO.C,R8*%
X195262742Y-99477500D02*
X195737258Y-99477500D01*
X195262742Y-100522500D02*
X195737258Y-100522500D01*
%TO.C,R18*%
X186337742Y-74977500D02*
X186812258Y-74977500D01*
X186337742Y-76022500D02*
X186812258Y-76022500D01*
%TO.C,D9*%
D10*
X173910000Y-92500000D02*
G75*
G02*
X173810000Y-92500000I-50000J0D01*
G01*
X173810000Y-92500000D02*
G75*
G02*
X173910000Y-92500000I50000J0D01*
G01*
%TO.C,J9*%
D12*
X111130000Y-52280000D02*
X123450000Y-52280000D01*
X111130000Y-60320000D02*
X111130000Y-52280000D01*
X111938000Y-55700000D02*
X111130000Y-55700000D01*
X111938000Y-56700000D02*
X111130000Y-56700000D01*
X113207000Y-54400000D02*
X111130000Y-54400000D01*
X116938000Y-55700000D02*
X115562000Y-55700000D01*
X116938000Y-56700000D02*
X115562000Y-56700000D01*
X118207000Y-54400000D02*
X114293000Y-54400000D01*
X121870000Y-54400000D02*
X119293000Y-54400000D01*
X121870000Y-55700000D02*
X120562000Y-55700000D01*
X121870000Y-56700000D02*
X120562000Y-56700000D01*
X124050000Y-52280000D02*
X126870000Y-52280000D01*
X126870000Y-52280000D02*
X126870000Y-60320000D01*
X126870000Y-54400000D02*
X125630000Y-54400000D01*
X126870000Y-55700000D02*
X125630000Y-55700000D01*
X126870000Y-56700000D02*
X125630000Y-56700000D01*
X126870000Y-60320000D02*
X111130000Y-60320000D01*
X123750000Y-52280000D02*
X123310000Y-51670000D01*
X124190000Y-51670000D01*
X123750000Y-52280000D01*
G36*
X123750000Y-52280000D02*
G01*
X123310000Y-51670000D01*
X124190000Y-51670000D01*
X123750000Y-52280000D01*
G37*
%TO.C,U9*%
X199940000Y-53465000D02*
X200035000Y-53465000D01*
X199940000Y-57585000D02*
X199940000Y-53465000D01*
X200035000Y-57585000D02*
X199940000Y-57585000D01*
X204965000Y-53465000D02*
X205060000Y-53465000D01*
X205060000Y-53465000D02*
X205060000Y-57585000D01*
X205060000Y-57585000D02*
X204965000Y-57585000D01*
X200030000Y-58125000D02*
X199700000Y-58365000D01*
X199700000Y-57885000D01*
X200030000Y-58125000D01*
G36*
X200030000Y-58125000D02*
G01*
X199700000Y-58365000D01*
X199700000Y-57885000D01*
X200030000Y-58125000D01*
G37*
%TO.C,J8*%
X146130000Y-107630000D02*
X161870000Y-107630000D01*
X146130000Y-111250000D02*
X147370000Y-111250000D01*
X146130000Y-112250000D02*
X147370000Y-112250000D01*
X146130000Y-113550000D02*
X147370000Y-113550000D01*
X146130000Y-115670000D02*
X146130000Y-107630000D01*
X148950000Y-115670000D02*
X146130000Y-115670000D01*
X151130000Y-111250000D02*
X152438000Y-111250000D01*
X151130000Y-112250000D02*
X152438000Y-112250000D01*
X151130000Y-113550000D02*
X153707000Y-113550000D01*
X154793000Y-113550000D02*
X158707000Y-113550000D01*
X156062000Y-111250000D02*
X157438000Y-111250000D01*
X156062000Y-112250000D02*
X157438000Y-112250000D01*
X159793000Y-113550000D02*
X161870000Y-113550000D01*
X161062000Y-111250000D02*
X161870000Y-111250000D01*
X161062000Y-112250000D02*
X161870000Y-112250000D01*
X161870000Y-107630000D02*
X161870000Y-115670000D01*
X161870000Y-115670000D02*
X149550000Y-115670000D01*
X149250000Y-115670000D02*
X149690000Y-116280000D01*
X148810000Y-116280000D01*
X149250000Y-115670000D01*
G36*
X149690000Y-116280000D02*
G01*
X148810000Y-116280000D01*
X149250000Y-115670000D01*
X149690000Y-116280000D01*
G37*
%TO.C,D3*%
X172560000Y-70900000D02*
X169900000Y-70900000D01*
X172560000Y-72600000D02*
X169900000Y-72600000D01*
X172560000Y-72600000D02*
X172560000Y-70900000D01*
%TO.C,Buzzer1*%
X191850000Y-68000000D02*
G75*
G02*
X179650000Y-68000000I-6100000J0D01*
G01*
X179650000Y-68000000D02*
G75*
G02*
X191850000Y-68000000I6100000J0D01*
G01*
%TO.C,R15*%
X194512742Y-93727500D02*
X194987258Y-93727500D01*
X194512742Y-94772500D02*
X194987258Y-94772500D01*
%TO.C,R3*%
X177952500Y-69812742D02*
X177952500Y-70287258D01*
X178997500Y-69812742D02*
X178997500Y-70287258D01*
%TO.C,K3*%
X93700000Y-106700000D02*
X93700000Y-86900000D01*
X95450000Y-91850000D02*
X95450000Y-94350000D01*
X97300000Y-102450000D02*
X99750000Y-102450000D01*
X97850000Y-97750000D02*
X97850000Y-90950000D01*
X99650000Y-92350000D02*
X103250000Y-92350000D01*
X99650000Y-94350000D02*
X95450000Y-94350000D01*
X99650000Y-96350000D02*
X99650000Y-92350000D01*
X99650000Y-96350000D02*
X103250000Y-92350000D01*
X100300000Y-86900000D02*
X93700000Y-86900000D01*
X101450000Y-90950000D02*
X97850000Y-90950000D01*
X101450000Y-90950000D02*
X101450000Y-90150000D01*
X101450000Y-97750000D02*
X97850000Y-97750000D01*
X101450000Y-97750000D02*
X101450000Y-99250000D01*
X101450000Y-99250000D02*
X103950000Y-103850000D01*
X103250000Y-92350000D02*
X103250000Y-96350000D01*
X103250000Y-96350000D02*
X99650000Y-96350000D01*
X105700000Y-102450000D02*
X103200000Y-102450000D01*
X107450000Y-94350000D02*
X103250000Y-94350000D01*
X107450000Y-94350000D02*
X107450000Y-91850000D01*
X109300000Y-86900000D02*
X102700000Y-86900000D01*
X109300000Y-86900000D02*
X109300000Y-106700000D01*
X109300000Y-106700000D02*
X93700000Y-106700000D01*
%TO.C,R9*%
X199237258Y-99477500D02*
X198762742Y-99477500D01*
X199237258Y-100522500D02*
X198762742Y-100522500D01*
%TO.C,J2*%
X146080000Y-52230000D02*
X158400000Y-52230000D01*
X146080000Y-60270000D02*
X146080000Y-52230000D01*
X146888000Y-55650000D02*
X146080000Y-55650000D01*
X146888000Y-56650000D02*
X146080000Y-56650000D01*
X148157000Y-54350000D02*
X146080000Y-54350000D01*
X151888000Y-55650000D02*
X150512000Y-55650000D01*
X151888000Y-56650000D02*
X150512000Y-56650000D01*
X153157000Y-54350000D02*
X149243000Y-54350000D01*
X156820000Y-54350000D02*
X154243000Y-54350000D01*
X156820000Y-55650000D02*
X155512000Y-55650000D01*
X156820000Y-56650000D02*
X155512000Y-56650000D01*
X159000000Y-52230000D02*
X161820000Y-52230000D01*
X161820000Y-52230000D02*
X161820000Y-60270000D01*
X161820000Y-54350000D02*
X160580000Y-54350000D01*
X161820000Y-55650000D02*
X160580000Y-55650000D01*
X161820000Y-56650000D02*
X160580000Y-56650000D01*
X161820000Y-60270000D02*
X146080000Y-60270000D01*
X158700000Y-52230000D02*
X158260000Y-51620000D01*
X159140000Y-51620000D01*
X158700000Y-52230000D01*
G36*
X158700000Y-52230000D02*
G01*
X158260000Y-51620000D01*
X159140000Y-51620000D01*
X158700000Y-52230000D01*
G37*
%TO.C,Q3*%
X193940000Y-96177500D02*
X194940000Y-96177500D01*
X193940000Y-97697500D02*
X193940000Y-96177500D01*
X193990000Y-97697500D02*
X193940000Y-97697500D01*
X195890000Y-97697500D02*
X195110000Y-97697500D01*
X196060000Y-96177500D02*
X197060000Y-96177500D01*
X197060000Y-96177500D02*
X197060000Y-97697500D01*
X197060000Y-97697500D02*
X197010000Y-97697500D01*
X195120000Y-98237500D02*
X195450000Y-97997500D01*
X195450000Y-98477500D01*
X195120000Y-98237500D01*
G36*
X195450000Y-98477500D02*
G01*
X195120000Y-98237500D01*
X195450000Y-97997500D01*
X195450000Y-98477500D01*
G37*
%TO.C,R42*%
X199727500Y-68487258D02*
X199727500Y-68012742D01*
X200772500Y-68487258D02*
X200772500Y-68012742D01*
%TO.C,J4*%
X128630000Y-107680000D02*
X144370000Y-107680000D01*
X128630000Y-111300000D02*
X129870000Y-111300000D01*
X128630000Y-112300000D02*
X129870000Y-112300000D01*
X128630000Y-113600000D02*
X129870000Y-113600000D01*
X128630000Y-115720000D02*
X128630000Y-107680000D01*
X131450000Y-115720000D02*
X128630000Y-115720000D01*
X133630000Y-111300000D02*
X134938000Y-111300000D01*
X133630000Y-112300000D02*
X134938000Y-112300000D01*
X133630000Y-113600000D02*
X136207000Y-113600000D01*
X137293000Y-113600000D02*
X141207000Y-113600000D01*
X138562000Y-111300000D02*
X139938000Y-111300000D01*
X138562000Y-112300000D02*
X139938000Y-112300000D01*
X142293000Y-113600000D02*
X144370000Y-113600000D01*
X143562000Y-111300000D02*
X144370000Y-111300000D01*
X143562000Y-112300000D02*
X144370000Y-112300000D01*
X144370000Y-107680000D02*
X144370000Y-115720000D01*
X144370000Y-115720000D02*
X132050000Y-115720000D01*
X131750000Y-115720000D02*
X132190000Y-116330000D01*
X131310000Y-116330000D01*
X131750000Y-115720000D01*
G36*
X132190000Y-116330000D02*
G01*
X131310000Y-116330000D01*
X131750000Y-115720000D01*
X132190000Y-116330000D01*
G37*
%TO.C,D7*%
D10*
X177440000Y-91500000D02*
G75*
G02*
X177340000Y-91500000I-50000J0D01*
G01*
X177340000Y-91500000D02*
G75*
G02*
X177440000Y-91500000I50000J0D01*
G01*
%TO.C,TP4*%
D12*
X91500000Y-83750000D02*
G75*
G02*
X88500000Y-83750000I-1500000J0D01*
G01*
X88500000Y-83750000D02*
G75*
G02*
X91500000Y-83750000I1500000J0D01*
G01*
%TO.C,R2*%
X172227500Y-87487258D02*
X172227500Y-87012742D01*
X173272500Y-87487258D02*
X173272500Y-87012742D01*
%TO.C,R7*%
X205727500Y-114762742D02*
X205727500Y-115237258D01*
X206772500Y-114762742D02*
X206772500Y-115237258D01*
%TO.C,L3*%
X164965000Y-92440000D02*
X171635000Y-92440000D01*
X164965000Y-93840000D02*
X164965000Y-92440000D01*
X164965000Y-99260000D02*
X164965000Y-97860000D01*
X171635000Y-92440000D02*
X171635000Y-93840000D01*
X171635000Y-97860000D02*
X171635000Y-99260000D01*
X171635000Y-99260000D02*
X164965000Y-99260000D01*
%TO.C,D13*%
X193120000Y-71125000D02*
X195080000Y-71125000D01*
X193120000Y-72325000D02*
X195080000Y-72325000D01*
X195080000Y-72325000D02*
X195080000Y-71125000D01*
%TO.C,D11*%
D10*
X177440000Y-93500000D02*
G75*
G02*
X177340000Y-93500000I-50000J0D01*
G01*
X177340000Y-93500000D02*
G75*
G02*
X177440000Y-93500000I50000J0D01*
G01*
%TO.C,SW2*%
D12*
X202500000Y-97500000D02*
X202500000Y-99000000D01*
X203750000Y-101500000D02*
X208250000Y-101500000D01*
X208250000Y-95000000D02*
X203750000Y-95000000D01*
X209500000Y-99000000D02*
X209500000Y-97500000D01*
%TO.C,R38*%
X175262742Y-91977500D02*
X175737258Y-91977500D01*
X175262742Y-93022500D02*
X175737258Y-93022500D01*
%TO.C,R25*%
X189227500Y-96762742D02*
X189227500Y-97237258D01*
X190272500Y-96762742D02*
X190272500Y-97237258D01*
%TO.C,U3*%
X174702500Y-68390000D02*
X176522500Y-68390000D01*
X174702500Y-68440000D02*
X174702500Y-68390000D01*
X174702500Y-71510000D02*
X174702500Y-71460000D01*
X176522500Y-68390000D02*
X176522500Y-68440000D01*
X176522500Y-71460000D02*
X176522500Y-71510000D01*
X176522500Y-71510000D02*
X174702500Y-71510000D01*
X174162500Y-68440000D02*
X173922500Y-68110000D01*
X174402500Y-68110000D01*
X174162500Y-68440000D01*
G36*
X174162500Y-68440000D02*
G01*
X173922500Y-68110000D01*
X174402500Y-68110000D01*
X174162500Y-68440000D01*
G37*
%TO.C,R27*%
X205727500Y-53262742D02*
X205727500Y-53737258D01*
X206772500Y-53262742D02*
X206772500Y-53737258D01*
%TO.C,R6*%
X200977500Y-104237258D02*
X200977500Y-103762742D01*
X202022500Y-104237258D02*
X202022500Y-103762742D01*
%TO.C,R40*%
X175737258Y-93477500D02*
X175262742Y-93477500D01*
X175737258Y-94522500D02*
X175262742Y-94522500D01*
%TO.C,C3*%
X188740000Y-102359420D02*
X188740000Y-102640580D01*
X189760000Y-102359420D02*
X189760000Y-102640580D01*
%TO.C,R5*%
X176362742Y-100227500D02*
X176837258Y-100227500D01*
X176362742Y-101272500D02*
X176837258Y-101272500D01*
%TO.C,C25*%
X173584420Y-60490000D02*
X173865580Y-60490000D01*
X173584420Y-61510000D02*
X173865580Y-61510000D01*
%TO.C,K6*%
X128950000Y-106700000D02*
X128950000Y-86900000D01*
X130700000Y-91850000D02*
X130700000Y-94350000D01*
X132550000Y-102450000D02*
X135000000Y-102450000D01*
X133100000Y-97750000D02*
X133100000Y-90950000D01*
X134900000Y-92350000D02*
X138500000Y-92350000D01*
X134900000Y-94350000D02*
X130700000Y-94350000D01*
X134900000Y-96350000D02*
X134900000Y-92350000D01*
X134900000Y-96350000D02*
X138500000Y-92350000D01*
X135550000Y-86900000D02*
X128950000Y-86900000D01*
X136700000Y-90950000D02*
X133100000Y-90950000D01*
X136700000Y-90950000D02*
X136700000Y-90150000D01*
X136700000Y-97750000D02*
X133100000Y-97750000D01*
X136700000Y-97750000D02*
X136700000Y-99250000D01*
X136700000Y-99250000D02*
X139200000Y-103850000D01*
X138500000Y-92350000D02*
X138500000Y-96350000D01*
X138500000Y-96350000D02*
X134900000Y-96350000D01*
X140950000Y-102450000D02*
X138450000Y-102450000D01*
X142700000Y-94350000D02*
X138500000Y-94350000D01*
X142700000Y-94350000D02*
X142700000Y-91850000D01*
X144550000Y-86900000D02*
X137950000Y-86900000D01*
X144550000Y-86900000D02*
X144550000Y-106700000D01*
X144550000Y-106700000D02*
X128950000Y-106700000D01*
%TO.C,C22*%
X203890580Y-116240000D02*
X203609420Y-116240000D01*
X203890580Y-117260000D02*
X203609420Y-117260000D01*
%TO.C,D5*%
X174240000Y-96690000D02*
X175760000Y-96690000D01*
X174240000Y-97690000D02*
X174240000Y-96690000D01*
X174240000Y-99810000D02*
X174240000Y-98810000D01*
X175760000Y-96690000D02*
X175760000Y-96740000D01*
X175760000Y-97860000D02*
X175760000Y-98640000D01*
X175760000Y-99760000D02*
X175760000Y-99810000D01*
X175760000Y-99810000D02*
X174240000Y-99810000D01*
X176300000Y-98630000D02*
X176060000Y-98300000D01*
X176540000Y-98300000D01*
X176300000Y-98630000D01*
G36*
X176300000Y-98630000D02*
G01*
X176060000Y-98300000D01*
X176540000Y-98300000D01*
X176300000Y-98630000D01*
G37*
%TO.C,SW3*%
X180500000Y-93250000D02*
X180500000Y-94750000D01*
X181750000Y-97250000D02*
X186250000Y-97250000D01*
X186250000Y-90750000D02*
X181750000Y-90750000D01*
X187500000Y-94750000D02*
X187500000Y-93250000D01*
%TO.C,R24*%
X170487742Y-60477500D02*
X170962258Y-60477500D01*
X170487742Y-61522500D02*
X170962258Y-61522500D01*
%TO.C,J6*%
X111130000Y-107880000D02*
X126870000Y-107880000D01*
X111130000Y-111500000D02*
X112370000Y-111500000D01*
X111130000Y-112500000D02*
X112370000Y-112500000D01*
X111130000Y-113800000D02*
X112370000Y-113800000D01*
X111130000Y-115920000D02*
X111130000Y-107880000D01*
X113950000Y-115920000D02*
X111130000Y-115920000D01*
X116130000Y-111500000D02*
X117438000Y-111500000D01*
X116130000Y-112500000D02*
X117438000Y-112500000D01*
X116130000Y-113800000D02*
X118707000Y-113800000D01*
X119793000Y-113800000D02*
X123707000Y-113800000D01*
X121062000Y-111500000D02*
X122438000Y-111500000D01*
X121062000Y-112500000D02*
X122438000Y-112500000D01*
X124793000Y-113800000D02*
X126870000Y-113800000D01*
X126062000Y-111500000D02*
X126870000Y-111500000D01*
X126062000Y-112500000D02*
X126870000Y-112500000D01*
X126870000Y-107880000D02*
X126870000Y-115920000D01*
X126870000Y-115920000D02*
X114550000Y-115920000D01*
X114250000Y-115920000D02*
X114690000Y-116530000D01*
X113810000Y-116530000D01*
X114250000Y-115920000D01*
G36*
X114690000Y-116530000D02*
G01*
X113810000Y-116530000D01*
X114250000Y-115920000D01*
X114690000Y-116530000D01*
G37*
%TO.C,C5*%
X170140580Y-82240000D02*
X169859420Y-82240000D01*
X170140580Y-83260000D02*
X169859420Y-83260000D01*
%TO.C,C8*%
X174261252Y-84015000D02*
X173738748Y-84015000D01*
X174261252Y-85485000D02*
X173738748Y-85485000D01*
%TO.C,K5*%
X111150000Y-61700000D02*
X126750000Y-61700000D01*
X111150000Y-81500000D02*
X111150000Y-61700000D01*
X111150000Y-81500000D02*
X117750000Y-81500000D01*
X113000000Y-74050000D02*
X113000000Y-76550000D01*
X113000000Y-74050000D02*
X117200000Y-74050000D01*
X114750000Y-65950000D02*
X117250000Y-65950000D01*
X117200000Y-72050000D02*
X120800000Y-72050000D01*
X117200000Y-76050000D02*
X117200000Y-72050000D01*
X119000000Y-69150000D02*
X116500000Y-64550000D01*
X119000000Y-70650000D02*
X119000000Y-69150000D01*
X119000000Y-70650000D02*
X122600000Y-70650000D01*
X119000000Y-77450000D02*
X119000000Y-78250000D01*
X119000000Y-77450000D02*
X122600000Y-77450000D01*
X120150000Y-81500000D02*
X126750000Y-81500000D01*
X120800000Y-72050000D02*
X117200000Y-76050000D01*
X120800000Y-72050000D02*
X120800000Y-76050000D01*
X120800000Y-74050000D02*
X125000000Y-74050000D01*
X120800000Y-76050000D02*
X117200000Y-76050000D01*
X122600000Y-70650000D02*
X122600000Y-77450000D01*
X123150000Y-65950000D02*
X120700000Y-65950000D01*
X125000000Y-76550000D02*
X125000000Y-74050000D01*
X126750000Y-61700000D02*
X126750000Y-81500000D01*
%TO.C,D1*%
X195190000Y-63875000D02*
X195190000Y-65075000D01*
X197150000Y-63875000D02*
X195190000Y-63875000D01*
X197150000Y-65075000D02*
X195190000Y-65075000D01*
%TO.C,TP2*%
X170700000Y-88500000D02*
G75*
G02*
X168800000Y-88500000I-950000J0D01*
G01*
X168800000Y-88500000D02*
G75*
G02*
X170700000Y-88500000I950000J0D01*
G01*
%TO.C,C1*%
X178840000Y-105390000D02*
X178840000Y-109240000D01*
X178840000Y-116110000D02*
X178840000Y-112260000D01*
X188495563Y-105390000D02*
X178840000Y-105390000D01*
X188495563Y-116110000D02*
X178840000Y-116110000D01*
X189560000Y-106454437D02*
X188495563Y-105390000D01*
X189560000Y-106454437D02*
X189560000Y-109240000D01*
X189560000Y-115045563D02*
X188495563Y-116110000D01*
X189560000Y-115045563D02*
X189560000Y-112260000D01*
X190425000Y-114135000D02*
X190425000Y-112885000D01*
X191050000Y-113510000D02*
X189800000Y-113510000D01*
%TO.C,C10*%
X176188748Y-62765000D02*
X176711252Y-62765000D01*
X176188748Y-64235000D02*
X176711252Y-64235000D01*
%TO.C,TP1*%
X163650000Y-85250000D02*
G75*
G02*
X161750000Y-85250000I-950000J0D01*
G01*
X161750000Y-85250000D02*
G75*
G02*
X163650000Y-85250000I950000J0D01*
G01*
%TO.C,C4*%
X166140580Y-85740000D02*
X165859420Y-85740000D01*
X166140580Y-86760000D02*
X165859420Y-86760000D01*
%TO.C,R1*%
X173727500Y-87012742D02*
X173727500Y-87487258D01*
X174772500Y-87012742D02*
X174772500Y-87487258D01*
%TO.C,C18*%
X191990000Y-111359420D02*
X191990000Y-111640580D01*
X193010000Y-111359420D02*
X193010000Y-111640580D01*
%TO.C,C9*%
X176865580Y-66790000D02*
X176584420Y-66790000D01*
X176865580Y-67810000D02*
X176584420Y-67810000D01*
%TO.C,U7*%
X180490000Y-77195000D02*
X188210000Y-77195000D01*
X180490000Y-77440000D02*
X180490000Y-77195000D01*
X180490000Y-88965000D02*
X180490000Y-88720000D01*
X188210000Y-77195000D02*
X188210000Y-77440000D01*
X188210000Y-88720000D02*
X188210000Y-88965000D01*
X188210000Y-88965000D02*
X180490000Y-88965000D01*
X189000000Y-88720000D02*
X189340000Y-89190000D01*
X188660000Y-89190000D01*
X189000000Y-88720000D01*
G36*
X189340000Y-89190000D02*
G01*
X188660000Y-89190000D01*
X189000000Y-88720000D01*
X189340000Y-89190000D01*
G37*
%TO.C,C15*%
X176583748Y-72065000D02*
X177106252Y-72065000D01*
X176583748Y-73535000D02*
X177106252Y-73535000D01*
%TO.C,Q1*%
X167430000Y-101640000D02*
X177650000Y-101640000D01*
X167430000Y-106260000D02*
X167430000Y-101640000D01*
X170690000Y-106260000D02*
X170690000Y-104880000D01*
X174390000Y-106260000D02*
X174390000Y-104880000D01*
X177650000Y-101640000D02*
X177650000Y-106260000D01*
X177650000Y-104880000D02*
X167430000Y-104880000D01*
X177650000Y-106260000D02*
X167430000Y-106260000D01*
%TO.C,SW1*%
X202750000Y-63500000D02*
X202750000Y-65000000D01*
X204000000Y-67500000D02*
X208500000Y-67500000D01*
X208500000Y-61000000D02*
X204000000Y-61000000D01*
X209750000Y-65000000D02*
X209750000Y-63500000D01*
%TO.C,C23*%
X205059420Y-50490000D02*
X205340580Y-50490000D01*
X205059420Y-51510000D02*
X205340580Y-51510000D01*
%TO.C,R37*%
X175737258Y-90477500D02*
X175262742Y-90477500D01*
X175737258Y-91522500D02*
X175262742Y-91522500D01*
%TO.C,D4*%
X172900000Y-71690000D02*
X172900000Y-74350000D01*
X174600000Y-71690000D02*
X172900000Y-71690000D01*
X174600000Y-71690000D02*
X174600000Y-74350000D01*
%TO.C,R4*%
X178977500Y-73012742D02*
X178977500Y-73487258D01*
X180022500Y-73012742D02*
X180022500Y-73487258D01*
%TO.C,C7*%
X174261252Y-82015000D02*
X173738748Y-82015000D01*
X174261252Y-83485000D02*
X173738748Y-83485000D01*
%TO.C,K9*%
X146100000Y-61800000D02*
X161700000Y-61800000D01*
X146100000Y-81600000D02*
X146100000Y-61800000D01*
X146100000Y-81600000D02*
X152700000Y-81600000D01*
X147950000Y-74150000D02*
X147950000Y-76650000D01*
X147950000Y-74150000D02*
X152150000Y-74150000D01*
X149700000Y-66050000D02*
X152200000Y-66050000D01*
X152150000Y-72150000D02*
X155750000Y-72150000D01*
X152150000Y-76150000D02*
X152150000Y-72150000D01*
X153950000Y-69250000D02*
X151450000Y-64650000D01*
X153950000Y-70750000D02*
X153950000Y-69250000D01*
X153950000Y-70750000D02*
X157550000Y-70750000D01*
X153950000Y-77550000D02*
X153950000Y-78350000D01*
X153950000Y-77550000D02*
X157550000Y-77550000D01*
X155100000Y-81600000D02*
X161700000Y-81600000D01*
X155750000Y-72150000D02*
X152150000Y-76150000D01*
X155750000Y-72150000D02*
X155750000Y-76150000D01*
X155750000Y-74150000D02*
X159950000Y-74150000D01*
X155750000Y-76150000D02*
X152150000Y-76150000D01*
X157550000Y-70750000D02*
X157550000Y-77550000D01*
X158100000Y-66050000D02*
X155650000Y-66050000D01*
X159950000Y-76650000D02*
X159950000Y-74150000D01*
X161700000Y-61800000D02*
X161700000Y-81600000D01*
%TO.C,TP3*%
X166150000Y-61150000D02*
G75*
G02*
X164250000Y-61150000I-950000J0D01*
G01*
X164250000Y-61150000D02*
G75*
G02*
X166150000Y-61150000I950000J0D01*
G01*
%TO.C,J3*%
X93630000Y-52330000D02*
X105950000Y-52330000D01*
X93630000Y-60370000D02*
X93630000Y-52330000D01*
X94438000Y-55750000D02*
X93630000Y-55750000D01*
X94438000Y-56750000D02*
X93630000Y-56750000D01*
X95707000Y-54450000D02*
X93630000Y-54450000D01*
X99438000Y-55750000D02*
X98062000Y-55750000D01*
X99438000Y-56750000D02*
X98062000Y-56750000D01*
X100707000Y-54450000D02*
X96793000Y-54450000D01*
X104370000Y-54450000D02*
X101793000Y-54450000D01*
X104370000Y-55750000D02*
X103062000Y-55750000D01*
X104370000Y-56750000D02*
X103062000Y-56750000D01*
X106550000Y-52330000D02*
X109370000Y-52330000D01*
X109370000Y-52330000D02*
X109370000Y-60370000D01*
X109370000Y-54450000D02*
X108130000Y-54450000D01*
X109370000Y-55750000D02*
X108130000Y-55750000D01*
X109370000Y-56750000D02*
X108130000Y-56750000D01*
X109370000Y-60370000D02*
X93630000Y-60370000D01*
X106250000Y-52330000D02*
X105810000Y-51720000D01*
X106690000Y-51720000D01*
X106250000Y-52330000D01*
G36*
X106250000Y-52330000D02*
G01*
X105810000Y-51720000D01*
X106690000Y-51720000D01*
X106250000Y-52330000D01*
G37*
%TO.C,C20*%
X205609420Y-68230000D02*
X205890580Y-68230000D01*
X205609420Y-69250000D02*
X205890580Y-69250000D01*
%TO.C,TP10*%
X204950000Y-114750000D02*
G75*
G02*
X203050000Y-114750000I-950000J0D01*
G01*
X203050000Y-114750000D02*
G75*
G02*
X204950000Y-114750000I950000J0D01*
G01*
%TO.C,R23*%
X209587742Y-55477500D02*
X210062258Y-55477500D01*
X209587742Y-56522500D02*
X210062258Y-56522500D01*
%TO.C,C13*%
X172765000Y-66761252D02*
X172765000Y-66238748D01*
X174235000Y-66761252D02*
X174235000Y-66238748D01*
%TO.C,C11*%
X176238748Y-64765000D02*
X176761252Y-64765000D01*
X176238748Y-66235000D02*
X176761252Y-66235000D01*
%TO.C,K2*%
X93600000Y-61750000D02*
X109200000Y-61750000D01*
X93600000Y-81550000D02*
X93600000Y-61750000D01*
X93600000Y-81550000D02*
X100200000Y-81550000D01*
X95450000Y-74100000D02*
X95450000Y-76600000D01*
X95450000Y-74100000D02*
X99650000Y-74100000D01*
X97200000Y-66000000D02*
X99700000Y-66000000D01*
X99650000Y-72100000D02*
X103250000Y-72100000D01*
X99650000Y-76100000D02*
X99650000Y-72100000D01*
X101450000Y-69200000D02*
X98950000Y-64600000D01*
X101450000Y-70700000D02*
X101450000Y-69200000D01*
X101450000Y-70700000D02*
X105050000Y-70700000D01*
X101450000Y-77500000D02*
X101450000Y-78300000D01*
X101450000Y-77500000D02*
X105050000Y-77500000D01*
X102600000Y-81550000D02*
X109200000Y-81550000D01*
X103250000Y-72100000D02*
X99650000Y-76100000D01*
X103250000Y-72100000D02*
X103250000Y-76100000D01*
X103250000Y-74100000D02*
X107450000Y-74100000D01*
X103250000Y-76100000D02*
X99650000Y-76100000D01*
X105050000Y-70700000D02*
X105050000Y-77500000D01*
X105600000Y-66000000D02*
X103150000Y-66000000D01*
X107450000Y-76600000D02*
X107450000Y-74100000D01*
X109200000Y-61750000D02*
X109200000Y-81550000D01*
%TO.C,D6*%
X196890000Y-61377500D02*
X196940000Y-61377500D01*
X196890000Y-62897500D02*
X196890000Y-61377500D01*
X197890000Y-62897500D02*
X196890000Y-62897500D01*
X198060000Y-61377500D02*
X198840000Y-61377500D01*
X199960000Y-61377500D02*
X200010000Y-61377500D01*
X200010000Y-61377500D02*
X200010000Y-62897500D01*
X200010000Y-62897500D02*
X199010000Y-62897500D01*
X198830000Y-60837500D02*
X198500000Y-61077500D01*
X198500000Y-60597500D01*
X198830000Y-60837500D01*
G36*
X198830000Y-60837500D02*
G01*
X198500000Y-61077500D01*
X198500000Y-60597500D01*
X198830000Y-60837500D01*
G37*
%TO.C,C17*%
X192859420Y-63740000D02*
X193140580Y-63740000D01*
X192859420Y-64760000D02*
X193140580Y-64760000D01*
%TO.C,K8*%
X111350000Y-106650000D02*
X111350000Y-86850000D01*
X113100000Y-91800000D02*
X113100000Y-94300000D01*
X114950000Y-102400000D02*
X117400000Y-102400000D01*
X115500000Y-97700000D02*
X115500000Y-90900000D01*
X117300000Y-92300000D02*
X120900000Y-92300000D01*
X117300000Y-94300000D02*
X113100000Y-94300000D01*
X117300000Y-96300000D02*
X117300000Y-92300000D01*
X117300000Y-96300000D02*
X120900000Y-92300000D01*
X117950000Y-86850000D02*
X111350000Y-86850000D01*
X119100000Y-90900000D02*
X115500000Y-90900000D01*
X119100000Y-90900000D02*
X119100000Y-90100000D01*
X119100000Y-97700000D02*
X115500000Y-97700000D01*
X119100000Y-97700000D02*
X119100000Y-99200000D01*
X119100000Y-99200000D02*
X121600000Y-103800000D01*
X120900000Y-92300000D02*
X120900000Y-96300000D01*
X120900000Y-96300000D02*
X117300000Y-96300000D01*
X123350000Y-102400000D02*
X120850000Y-102400000D01*
X125100000Y-94300000D02*
X120900000Y-94300000D01*
X125100000Y-94300000D02*
X125100000Y-91800000D01*
X126950000Y-86850000D02*
X120350000Y-86850000D01*
X126950000Y-86850000D02*
X126950000Y-106650000D01*
X126950000Y-106650000D02*
X111350000Y-106650000D01*
%TO.C,J12*%
X178630000Y-51630000D02*
X199370000Y-51630000D01*
X178630000Y-55250000D02*
X179870000Y-55250000D01*
X178630000Y-56250000D02*
X179870000Y-56250000D01*
X178630000Y-57550000D02*
X179870000Y-57550000D01*
X178630000Y-59670000D02*
X178630000Y-51630000D01*
X181450000Y-59670000D02*
X178630000Y-59670000D01*
X183630000Y-55250000D02*
X184938000Y-55250000D01*
X183630000Y-56250000D02*
X184938000Y-56250000D01*
X183630000Y-57550000D02*
X186207000Y-57550000D01*
X187293000Y-57550000D02*
X191207000Y-57550000D01*
X188562000Y-55250000D02*
X189938000Y-55250000D01*
X188562000Y-56250000D02*
X189938000Y-56250000D01*
X192293000Y-57550000D02*
X196207000Y-57550000D01*
X193562000Y-55250000D02*
X194938000Y-55250000D01*
X193562000Y-56250000D02*
X194938000Y-56250000D01*
X197293000Y-57550000D02*
X199370000Y-57550000D01*
X198562000Y-55250000D02*
X199370000Y-55250000D01*
X198562000Y-56250000D02*
X199370000Y-56250000D01*
X199370000Y-51630000D02*
X199370000Y-59670000D01*
X199370000Y-59670000D02*
X182050000Y-59670000D01*
X181750000Y-59670000D02*
X182190000Y-60280000D01*
X181310000Y-60280000D01*
X181750000Y-59670000D01*
G36*
X182190000Y-60280000D02*
G01*
X181310000Y-60280000D01*
X181750000Y-59670000D01*
X182190000Y-60280000D01*
G37*
%TO.C,R22*%
X207037258Y-55477500D02*
X206562742Y-55477500D01*
X207037258Y-56522500D02*
X206562742Y-56522500D01*
%TO.C,D2*%
X162500000Y-106860000D02*
X162500000Y-101050000D01*
X162500000Y-106860000D02*
X166800000Y-106860000D01*
X166800000Y-106860000D02*
X166800000Y-101050000D01*
%TO.C,Q2*%
X197690000Y-96177500D02*
X198690000Y-96177500D01*
X197690000Y-97697500D02*
X197690000Y-96177500D01*
X197740000Y-97697500D02*
X197690000Y-97697500D01*
X199640000Y-97697500D02*
X198860000Y-97697500D01*
X199810000Y-96177500D02*
X200810000Y-96177500D01*
X200810000Y-96177500D02*
X200810000Y-97697500D01*
X200810000Y-97697500D02*
X200760000Y-97697500D01*
X198870000Y-98237500D02*
X199200000Y-97997500D01*
X199200000Y-98477500D01*
X198870000Y-98237500D01*
G36*
X199200000Y-98477500D02*
G01*
X198870000Y-98237500D01*
X199200000Y-97997500D01*
X199200000Y-98477500D01*
G37*
%TO.C,R10*%
X206312258Y-69727500D02*
X205837742Y-69727500D01*
X206312258Y-70772500D02*
X205837742Y-70772500D01*
%TO.C,U2*%
X168840000Y-83690000D02*
X170660000Y-83690000D01*
X168840000Y-83740000D02*
X168840000Y-83690000D01*
X168840000Y-86810000D02*
X168840000Y-86760000D01*
X170660000Y-83690000D02*
X170660000Y-83740000D01*
X170660000Y-86760000D02*
X170660000Y-86810000D01*
X170660000Y-86810000D02*
X168840000Y-86810000D01*
X168300000Y-83740000D02*
X168060000Y-83410000D01*
X168540000Y-83410000D01*
X168300000Y-83740000D01*
G36*
X168300000Y-83740000D02*
G01*
X168060000Y-83410000D01*
X168540000Y-83410000D01*
X168300000Y-83740000D01*
G37*
%TO.C,C6*%
X171140580Y-72990000D02*
X170859420Y-72990000D01*
X171140580Y-74010000D02*
X170859420Y-74010000D01*
%TO.C,J7*%
X166630000Y-51630000D02*
X177370000Y-51630000D01*
X166630000Y-55250000D02*
X167870000Y-55250000D01*
X166630000Y-56250000D02*
X167870000Y-56250000D01*
X166630000Y-57550000D02*
X167870000Y-57550000D01*
X166630000Y-59670000D02*
X166630000Y-51630000D01*
X169450000Y-59670000D02*
X166630000Y-59670000D01*
X171630000Y-55250000D02*
X172938000Y-55250000D01*
X171630000Y-56250000D02*
X172938000Y-56250000D01*
X171630000Y-57550000D02*
X174207000Y-57550000D01*
X175293000Y-57550000D02*
X177370000Y-57550000D01*
X176562000Y-55250000D02*
X177370000Y-55250000D01*
X176562000Y-56250000D02*
X177370000Y-56250000D01*
X177370000Y-51630000D02*
X177370000Y-59670000D01*
X177370000Y-59670000D02*
X170050000Y-59670000D01*
X169750000Y-59670000D02*
X170190000Y-60280000D01*
X169310000Y-60280000D01*
X169750000Y-59670000D01*
G36*
X170190000Y-60280000D02*
G01*
X169310000Y-60280000D01*
X169750000Y-59670000D01*
X170190000Y-60280000D01*
G37*
%TO.C,K4*%
X128700000Y-61750000D02*
X144300000Y-61750000D01*
X128700000Y-81550000D02*
X128700000Y-61750000D01*
X128700000Y-81550000D02*
X135300000Y-81550000D01*
X130550000Y-74100000D02*
X130550000Y-76600000D01*
X130550000Y-74100000D02*
X134750000Y-74100000D01*
X132300000Y-66000000D02*
X134800000Y-66000000D01*
X134750000Y-72100000D02*
X138350000Y-72100000D01*
X134750000Y-76100000D02*
X134750000Y-72100000D01*
X136550000Y-69200000D02*
X134050000Y-64600000D01*
X136550000Y-70700000D02*
X136550000Y-69200000D01*
X136550000Y-70700000D02*
X140150000Y-70700000D01*
X136550000Y-77500000D02*
X136550000Y-78300000D01*
X136550000Y-77500000D02*
X140150000Y-77500000D01*
X137700000Y-81550000D02*
X144300000Y-81550000D01*
X138350000Y-72100000D02*
X134750000Y-76100000D01*
X138350000Y-72100000D02*
X138350000Y-76100000D01*
X138350000Y-74100000D02*
X142550000Y-74100000D01*
X138350000Y-76100000D02*
X134750000Y-76100000D01*
X140150000Y-70700000D02*
X140150000Y-77500000D01*
X140700000Y-66000000D02*
X138250000Y-66000000D01*
X142550000Y-76600000D02*
X142550000Y-74100000D01*
X144300000Y-61750000D02*
X144300000Y-81550000D01*
%TO.C,U1*%
X192640000Y-73780000D02*
X192640000Y-74780000D01*
X192640000Y-92020000D02*
X192640000Y-91020000D01*
X193420000Y-73780000D02*
X192640000Y-73780000D01*
X193420000Y-92020000D02*
X192640000Y-92020000D01*
X218380000Y-73780000D02*
X212220000Y-73780000D01*
X218380000Y-73780000D02*
X218380000Y-92020000D01*
X218380000Y-92020000D02*
X211965000Y-92020000D01*
X211495000Y-73775000D02*
X211495000Y-73275000D01*
X211995000Y-73775000D01*
X211495000Y-73775000D01*
G36*
X211995000Y-73775000D02*
G01*
X211495000Y-73775000D01*
X211495000Y-73275000D01*
X211995000Y-73775000D01*
G37*
%TO.C,D8*%
X175215000Y-60400000D02*
X175215000Y-61600000D01*
X177175000Y-60400000D02*
X175215000Y-60400000D01*
X177175000Y-61600000D02*
X175215000Y-61600000D01*
%TD*%
%LPC*%
D13*
%TO.C,J1*%
X174000000Y-111250000D03*
D14*
X169000000Y-111250000D03*
%TD*%
D15*
%TO.C,R26*%
X200675000Y-51000000D03*
X202325000Y-51000000D03*
%TD*%
D16*
%TO.C,D15*%
X193300000Y-66350000D03*
X193300000Y-69650000D03*
X198200000Y-69650000D03*
X198200000Y-66350000D03*
%TD*%
D17*
%TO.C,C19*%
X203800000Y-70250000D03*
X202250000Y-70250000D03*
%TD*%
D18*
%TO.C,J10*%
X96500000Y-112000000D03*
D14*
X101500000Y-112000000D03*
X106500000Y-112000000D03*
%TD*%
D13*
%TO.C,J11*%
X141500000Y-56200000D03*
D14*
X136500000Y-56200000D03*
X131500000Y-56200000D03*
%TD*%
D19*
%TO.C,U6*%
X199475000Y-112445000D03*
X199475000Y-111175000D03*
X199475000Y-109905000D03*
X199475000Y-108635000D03*
X199475000Y-107365000D03*
X199475000Y-106095000D03*
X199475000Y-104825000D03*
X199475000Y-103555000D03*
X194525000Y-103555000D03*
X194525000Y-104825000D03*
X194525000Y-106095000D03*
X194525000Y-107365000D03*
X194525000Y-108635000D03*
X194525000Y-109905000D03*
X194525000Y-111175000D03*
X194525000Y-112445000D03*
%TD*%
D20*
%TO.C,K7*%
X154250000Y-88300000D03*
D21*
X148200000Y-90250000D03*
D20*
X148200000Y-102450000D03*
X160250000Y-102500000D03*
D21*
X160200000Y-90250000D03*
%TD*%
D22*
%TO.C,L1*%
X165475000Y-78250000D03*
X171525000Y-78250000D03*
%TD*%
D23*
%TO.C,C2*%
X185650000Y-101500000D03*
X180250000Y-101500000D03*
%TD*%
D24*
%TO.C,J5*%
X204895000Y-111030000D03*
X204895000Y-105250000D03*
D25*
X203820000Y-111340000D03*
X203820000Y-110540000D03*
D26*
X203820000Y-109390000D03*
X203820000Y-108390000D03*
X203820000Y-107890000D03*
X203820000Y-106890000D03*
D25*
X203820000Y-105740000D03*
X203820000Y-104940000D03*
X203820000Y-104940000D03*
X203820000Y-105740000D03*
D26*
X203820000Y-106390000D03*
X203820000Y-107390000D03*
X203820000Y-108890000D03*
X203820000Y-109890000D03*
D25*
X203820000Y-110540000D03*
X203820000Y-111340000D03*
D27*
X204395000Y-112460000D03*
D28*
X208575000Y-112460000D03*
D27*
X204395000Y-103820000D03*
D28*
X208575000Y-103820000D03*
%TD*%
D29*
%TO.C,Q5*%
X189000000Y-76125000D03*
X190900000Y-76125000D03*
X189950000Y-74250000D03*
%TD*%
D30*
%TO.C,C14*%
X208725000Y-72250000D03*
X210275000Y-72250000D03*
%TD*%
D15*
%TO.C,R14*%
X175850000Y-74750000D03*
X177500000Y-74750000D03*
%TD*%
D31*
%TO.C,H1*%
X209500000Y-115750000D03*
%TD*%
D32*
%TO.C,JP1*%
X206975000Y-58500000D03*
D33*
X209515000Y-58500000D03*
%TD*%
D34*
%TO.C,C12*%
X166950000Y-88000000D03*
X165050000Y-88000000D03*
%TD*%
D30*
%TO.C,C21*%
X208725000Y-70250000D03*
X210275000Y-70250000D03*
%TD*%
D35*
%TO.C,L2*%
X168750000Y-69275000D03*
X168750000Y-63225000D03*
%TD*%
D36*
%TO.C,U4*%
X195862500Y-114050000D03*
X195862500Y-115000000D03*
X195862500Y-115950000D03*
X198137500Y-115950000D03*
X198137500Y-115000000D03*
X198137500Y-114050000D03*
%TD*%
D15*
%TO.C,R8*%
X194675000Y-100000000D03*
X196325000Y-100000000D03*
%TD*%
%TO.C,R18*%
X185750000Y-75500000D03*
X187400000Y-75500000D03*
%TD*%
D37*
%TO.C,D9*%
X173320000Y-92500000D03*
X172680000Y-92500000D03*
%TD*%
D13*
%TO.C,J9*%
X123750000Y-56200000D03*
D14*
X118750000Y-56200000D03*
X113750000Y-56200000D03*
%TD*%
D38*
%TO.C,U9*%
X200595000Y-58000000D03*
X201865000Y-58000000D03*
X203135000Y-58000000D03*
X204405000Y-58000000D03*
X204405000Y-53050000D03*
X203135000Y-53050000D03*
X201865000Y-53050000D03*
X200595000Y-53050000D03*
%TD*%
D18*
%TO.C,J8*%
X149250000Y-111750000D03*
D14*
X154250000Y-111750000D03*
X159250000Y-111750000D03*
%TD*%
D39*
%TO.C,D3*%
X172000000Y-71750000D03*
X169900000Y-71750000D03*
%TD*%
D40*
%TO.C,Buzzer1*%
X181950000Y-68000000D03*
D31*
X189550000Y-68000000D03*
%TD*%
D15*
%TO.C,R15*%
X193925000Y-94250000D03*
X195575000Y-94250000D03*
%TD*%
D41*
%TO.C,R3*%
X178475000Y-69225000D03*
X178475000Y-70875000D03*
%TD*%
D20*
%TO.C,K3*%
X101500000Y-88300000D03*
D21*
X95450000Y-90250000D03*
D20*
X95450000Y-102450000D03*
X107500000Y-102500000D03*
D21*
X107450000Y-90250000D03*
%TD*%
D42*
%TO.C,R9*%
X199825000Y-100000000D03*
X198175000Y-100000000D03*
%TD*%
D13*
%TO.C,J2*%
X158700000Y-56150000D03*
D14*
X153700000Y-56150000D03*
X148700000Y-56150000D03*
%TD*%
D29*
%TO.C,Q3*%
X194550000Y-97875000D03*
X196450000Y-97875000D03*
X195500000Y-96000000D03*
%TD*%
D43*
%TO.C,R42*%
X200250000Y-69075000D03*
X200250000Y-67425000D03*
%TD*%
D18*
%TO.C,J4*%
X131750000Y-111800000D03*
D14*
X136750000Y-111800000D03*
X141750000Y-111800000D03*
%TD*%
D44*
%TO.C,D7*%
X177930000Y-91500000D03*
X178570000Y-91500000D03*
%TD*%
D31*
%TO.C,TP4*%
X90000000Y-83750000D03*
%TD*%
D43*
%TO.C,R2*%
X172750000Y-88075000D03*
X172750000Y-86425000D03*
%TD*%
D41*
%TO.C,R7*%
X206250000Y-114175000D03*
X206250000Y-115825000D03*
%TD*%
D22*
%TO.C,L3*%
X165275000Y-95850000D03*
X171325000Y-95850000D03*
%TD*%
D45*
%TO.C,D13*%
X194520000Y-71725000D03*
X193120000Y-71725000D03*
%TD*%
D44*
%TO.C,D11*%
X177930000Y-93500000D03*
X178570000Y-93500000D03*
%TD*%
D31*
%TO.C,SW2*%
X202750000Y-96000000D03*
X209250000Y-96000000D03*
X202750000Y-100500000D03*
X209250000Y-100500000D03*
%TD*%
D15*
%TO.C,R38*%
X174675000Y-92500000D03*
X176325000Y-92500000D03*
%TD*%
D41*
%TO.C,R25*%
X189750000Y-96175000D03*
X189750000Y-97825000D03*
%TD*%
D36*
%TO.C,U3*%
X174475000Y-69000000D03*
X174475000Y-69950000D03*
X174475000Y-70900000D03*
X176750000Y-70900000D03*
X176750000Y-69950000D03*
X176750000Y-69000000D03*
%TD*%
D41*
%TO.C,R27*%
X206250000Y-52675000D03*
X206250000Y-54325000D03*
%TD*%
D43*
%TO.C,R6*%
X201500000Y-104825000D03*
X201500000Y-103175000D03*
%TD*%
D31*
%TO.C,H3*%
X89250000Y-52250000D03*
%TD*%
D42*
%TO.C,R40*%
X176325000Y-94000000D03*
X174675000Y-94000000D03*
%TD*%
D46*
%TO.C,C3*%
X189250000Y-101725000D03*
X189250000Y-103275000D03*
%TD*%
D15*
%TO.C,R5*%
X175775000Y-100750000D03*
X177425000Y-100750000D03*
%TD*%
D30*
%TO.C,C25*%
X172950000Y-61000000D03*
X174500000Y-61000000D03*
%TD*%
D20*
%TO.C,K6*%
X136750000Y-88300000D03*
D21*
X130700000Y-90250000D03*
D20*
X130700000Y-102450000D03*
X142750000Y-102500000D03*
D21*
X142700000Y-90250000D03*
%TD*%
D17*
%TO.C,C22*%
X204525000Y-116750000D03*
X202975000Y-116750000D03*
%TD*%
D47*
%TO.C,D5*%
X175937500Y-99200000D03*
X175937500Y-97300000D03*
X174062500Y-98250000D03*
%TD*%
D31*
%TO.C,SW3*%
X180750000Y-91750000D03*
X187250000Y-91750000D03*
X180750000Y-96250000D03*
X187250000Y-96250000D03*
%TD*%
D15*
%TO.C,R24*%
X169900000Y-61000000D03*
X171550000Y-61000000D03*
%TD*%
D18*
%TO.C,J6*%
X114250000Y-112000000D03*
D14*
X119250000Y-112000000D03*
X124250000Y-112000000D03*
%TD*%
D17*
%TO.C,C5*%
X170775000Y-82750000D03*
X169225000Y-82750000D03*
%TD*%
D34*
%TO.C,C8*%
X174950000Y-84750000D03*
X173050000Y-84750000D03*
%TD*%
D20*
%TO.C,K5*%
X118950000Y-80100000D03*
D21*
X125000000Y-78150000D03*
D20*
X125000000Y-65950000D03*
X112950000Y-65900000D03*
D21*
X113000000Y-78150000D03*
%TD*%
D48*
%TO.C,D1*%
X195750000Y-64475000D03*
X197150000Y-64475000D03*
%TD*%
D49*
%TO.C,TP2*%
X169750000Y-88500000D03*
%TD*%
D50*
%TO.C,C1*%
X188400000Y-110750000D03*
X180000000Y-110750000D03*
%TD*%
D51*
%TO.C,C10*%
X175500000Y-63500000D03*
X177400000Y-63500000D03*
%TD*%
D49*
%TO.C,TP1*%
X162700000Y-85250000D03*
%TD*%
D17*
%TO.C,C4*%
X166775000Y-86250000D03*
X165225000Y-86250000D03*
%TD*%
D41*
%TO.C,R1*%
X174250000Y-86425000D03*
X174250000Y-88075000D03*
%TD*%
D46*
%TO.C,C18*%
X192500000Y-110725000D03*
X192500000Y-112275000D03*
%TD*%
D17*
%TO.C,C9*%
X177500000Y-67300000D03*
X175950000Y-67300000D03*
%TD*%
D52*
%TO.C,U7*%
X189000000Y-88160000D03*
X189000000Y-86890000D03*
X189000000Y-85620000D03*
X189000000Y-84350000D03*
X189000000Y-83080000D03*
X189000000Y-81810000D03*
X189000000Y-80540000D03*
X189000000Y-79270000D03*
X189000000Y-78000000D03*
X179700000Y-78000000D03*
X179700000Y-79270000D03*
X179700000Y-80540000D03*
X179700000Y-81810000D03*
X179700000Y-83080000D03*
X179700000Y-84350000D03*
X179700000Y-85620000D03*
X179700000Y-86890000D03*
X179700000Y-88160000D03*
%TD*%
D51*
%TO.C,C15*%
X175895000Y-72800000D03*
X177795000Y-72800000D03*
%TD*%
D53*
%TO.C,Q1*%
X175080000Y-103000000D03*
D54*
X172540000Y-103000000D03*
X170000000Y-103000000D03*
%TD*%
D31*
%TO.C,SW1*%
X203000000Y-62000000D03*
X209500000Y-62000000D03*
X203000000Y-66500000D03*
X209500000Y-66500000D03*
%TD*%
D30*
%TO.C,C23*%
X204425000Y-51000000D03*
X205975000Y-51000000D03*
%TD*%
D42*
%TO.C,R37*%
X176325000Y-91000000D03*
X174675000Y-91000000D03*
%TD*%
D55*
%TO.C,D4*%
X173750000Y-72250000D03*
X173750000Y-74350000D03*
%TD*%
D41*
%TO.C,R4*%
X179500000Y-72425000D03*
X179500000Y-74075000D03*
%TD*%
D34*
%TO.C,C7*%
X174950000Y-82750000D03*
X173050000Y-82750000D03*
%TD*%
D31*
%TO.C,H2*%
X89250000Y-115750000D03*
%TD*%
D20*
%TO.C,K9*%
X153900000Y-80200000D03*
D21*
X159950000Y-78250000D03*
D20*
X159950000Y-66050000D03*
X147900000Y-66000000D03*
D21*
X147950000Y-78250000D03*
%TD*%
D49*
%TO.C,TP3*%
X165200000Y-61150000D03*
%TD*%
D13*
%TO.C,J3*%
X106250000Y-56250000D03*
D14*
X101250000Y-56250000D03*
X96250000Y-56250000D03*
%TD*%
D30*
%TO.C,C20*%
X204975000Y-68740000D03*
X206525000Y-68740000D03*
%TD*%
D49*
%TO.C,TP10*%
X204000000Y-114750000D03*
%TD*%
D15*
%TO.C,R23*%
X209000000Y-56000000D03*
X210650000Y-56000000D03*
%TD*%
D56*
%TO.C,C13*%
X173500000Y-67450000D03*
X173500000Y-65550000D03*
%TD*%
D51*
%TO.C,C11*%
X175550000Y-65500000D03*
X177450000Y-65500000D03*
%TD*%
D20*
%TO.C,K2*%
X101400000Y-80150000D03*
D21*
X107450000Y-78200000D03*
D20*
X107450000Y-66000000D03*
X95400000Y-65950000D03*
D21*
X95450000Y-78200000D03*
%TD*%
D57*
%TO.C,D6*%
X199400000Y-61200000D03*
X197500000Y-61200000D03*
X198450000Y-63075000D03*
%TD*%
D30*
%TO.C,C17*%
X192225000Y-64250000D03*
X193775000Y-64250000D03*
%TD*%
D20*
%TO.C,K8*%
X119150000Y-88250000D03*
D21*
X113100000Y-90200000D03*
D20*
X113100000Y-102400000D03*
X125150000Y-102450000D03*
D21*
X125100000Y-90200000D03*
%TD*%
D18*
%TO.C,J12*%
X181750000Y-55750000D03*
D14*
X186750000Y-55750000D03*
X191750000Y-55750000D03*
X196750000Y-55750000D03*
%TD*%
D42*
%TO.C,R22*%
X207625000Y-56000000D03*
X205975000Y-56000000D03*
%TD*%
D58*
%TO.C,D2*%
X164650000Y-105350000D03*
X164650000Y-101050000D03*
%TD*%
D29*
%TO.C,Q2*%
X198300000Y-97875000D03*
X200200000Y-97875000D03*
X199250000Y-96000000D03*
%TD*%
D42*
%TO.C,R10*%
X206900000Y-70250000D03*
X205250000Y-70250000D03*
%TD*%
D31*
%TO.C,H4*%
X209500000Y-52250000D03*
%TD*%
D36*
%TO.C,U2*%
X168612500Y-84300000D03*
X168612500Y-85250000D03*
X168612500Y-86200000D03*
X170887500Y-86200000D03*
X170887500Y-85250000D03*
X170887500Y-84300000D03*
%TD*%
D17*
%TO.C,C6*%
X171775000Y-73500000D03*
X170225000Y-73500000D03*
%TD*%
D18*
%TO.C,J7*%
X169750000Y-55750000D03*
D14*
X174750000Y-55750000D03*
%TD*%
D20*
%TO.C,K4*%
X136500000Y-80150000D03*
D21*
X142550000Y-78200000D03*
D20*
X142550000Y-66000000D03*
X130500000Y-65950000D03*
D21*
X130550000Y-78200000D03*
%TD*%
D59*
%TO.C,U1*%
X210770000Y-74150000D03*
X209500000Y-74150000D03*
X208230000Y-74150000D03*
X206960000Y-74150000D03*
X205690000Y-74150000D03*
X204420000Y-74150000D03*
X203150000Y-74150000D03*
X201880000Y-74150000D03*
X200610000Y-74150000D03*
X199340000Y-74150000D03*
X198070000Y-74150000D03*
X196800000Y-74150000D03*
X195530000Y-74150000D03*
X194260000Y-74150000D03*
D60*
X193010000Y-77190000D03*
X193010000Y-78460000D03*
X193010000Y-79730000D03*
X193010000Y-81000000D03*
X193010000Y-82270000D03*
X193010000Y-83540000D03*
X193010000Y-84810000D03*
X193010000Y-86080000D03*
X193010000Y-87350000D03*
X193010000Y-88620000D03*
D59*
X194260000Y-91650000D03*
X195530000Y-91650000D03*
X196800000Y-91650000D03*
X198070000Y-91650000D03*
X199340000Y-91650000D03*
X200610000Y-91650000D03*
X201880000Y-91650000D03*
X203150000Y-91650000D03*
X204420000Y-91650000D03*
X205690000Y-91650000D03*
X206960000Y-91650000D03*
X208230000Y-91650000D03*
X209500000Y-91650000D03*
X210770000Y-91650000D03*
D61*
X203750000Y-80000000D03*
X202350000Y-80000000D03*
X204450000Y-80700000D03*
X203050000Y-80700000D03*
X201650000Y-80700000D03*
X203750000Y-81375000D03*
X202350000Y-81375000D03*
D62*
X203050000Y-81400000D03*
D61*
X204450000Y-82100000D03*
X203050000Y-82100000D03*
X201650000Y-82100000D03*
X203750000Y-82800000D03*
X202350000Y-82800000D03*
%TD*%
D48*
%TO.C,D8*%
X175775000Y-61000000D03*
X177175000Y-61000000D03*
%TD*%
%LPD*%
M02*
